<mxfile host="app.diagrams.net" modified="2024-03-24T12:40:02.041Z" agent="Mozilla/5.0 (Windows NT 10.0; Win64; x64) AppleWebKit/537.36 (KHTML, like Gecko) Chrome/122.0.0.0 Safari/537.36" etag="m-uSWywfHWzmAh_5ZZdh" version="24.0.6" type="device">
  <diagram name="Page-1" id="Z7ffGvlRVA9LzBE-LWE0">
    <mxGraphModel dx="2284" dy="746" grid="1" gridSize="10" guides="1" tooltips="1" connect="1" arrows="1" fold="1" page="1" pageScale="1" pageWidth="850" pageHeight="1100" math="0" shadow="0">
      <root>
        <mxCell id="0" />
        <mxCell id="1" parent="0" />
        <mxCell id="byrFbOCBDsxeEp1RwZBV-3" style="edgeStyle=orthogonalEdgeStyle;rounded=0;orthogonalLoop=1;jettySize=auto;html=1;" edge="1" parent="1" source="byrFbOCBDsxeEp1RwZBV-1">
          <mxGeometry relative="1" as="geometry">
            <mxPoint x="660" y="190" as="targetPoint" />
          </mxGeometry>
        </mxCell>
        <mxCell id="byrFbOCBDsxeEp1RwZBV-5" style="edgeStyle=orthogonalEdgeStyle;rounded=0;orthogonalLoop=1;jettySize=auto;html=1;" edge="1" parent="1" source="byrFbOCBDsxeEp1RwZBV-1">
          <mxGeometry relative="1" as="geometry">
            <mxPoint x="450" y="350" as="targetPoint" />
          </mxGeometry>
        </mxCell>
        <mxCell id="byrFbOCBDsxeEp1RwZBV-16" style="edgeStyle=orthogonalEdgeStyle;rounded=0;orthogonalLoop=1;jettySize=auto;html=1;exitX=0.5;exitY=0;exitDx=0;exitDy=0;" edge="1" parent="1" source="byrFbOCBDsxeEp1RwZBV-1" target="byrFbOCBDsxeEp1RwZBV-2">
          <mxGeometry relative="1" as="geometry" />
        </mxCell>
        <mxCell id="byrFbOCBDsxeEp1RwZBV-1" value="var parent = self;" style="ellipse;whiteSpace=wrap;html=1;" vertex="1" parent="1">
          <mxGeometry x="360" y="150" width="180" height="80" as="geometry" />
        </mxCell>
        <mxCell id="byrFbOCBDsxeEp1RwZBV-2" value="" style="shape=image;verticalLabelPosition=bottom;labelBackgroundColor=default;verticalAlign=top;aspect=fixed;imageAspect=0;image=data:image/png,iVBORw0KGgoAAAANSUhEUgAAAYwAAAB8CAYAAAB63IfnAAAadUlEQVR4Ae1dTY/ctrLVb8rP6OUAjfyLxLMOAgONwV0aMMabAEa86kE2nuC9lbOzgWBsDLyxE2SVLAa+ga+Du+9lvVckSyxSpCSqW91S6wwwkETxo3RUrKMim8WKTvz3/v172u12i/r/66+/Tow6mgcCQAAIlCNQlRc5bAkQxmHxRG1AAAgAgbEQAGGcwLuBhzGWOqNeIAAExkQAhFFEGA90+2hFq5X7f3RLD0Xl7dAbCGNMlUbdQAAIjIUACGOAwZc5l/unK7p8+VA8/wLCGEudUS8QAAJjIgDCGEwY1tu4flc+YQ/CGFOlUTcQAAJjIQDCKCaMe7qWIamn98XeBXsnIIyx1Bn1AgEgMCYCIIxiwvAeBQ9JrQaQBghjTJVG3UAACIyFAAhjD8LYvbum1YCJbxDGWOqMeoEAEBgTARDGHoSBSe8xVRN1AwEgMDUEQBhFhKHmL1bDfiGFOYypdQHIAwSAQF8EQBhFhOHnL+SntUOOGJLqq57IBwSAwJQQAGGAMKakj5AFCACBCSMAwgBhTFg9IRoQAAJTQgCEAcKYkj5CFiAABCaMAAgDhDFh9YRoQAAITAkBEAYIY0r6CFmAABCYMAIgDBDGhNUTogEBIDAlBEAYIIyT6eN/X31PX/3rF/rvySSYQ8O/05Nvv6ZvXn2Zg7AjyfiFfv7XHDGYq9z51wjCGEQYsi/GNd0PKD+ldRhstNPGiA3Vj/Qhrzt735ksYXz4kb769mvzn8fG3v/q2+/p5/8MhOI/v9A3nYR5OML48OJrejLmCx0IQ3exlOG1afY99dfTPAYWZ1Nf5zvpltjmSMndt2zffC04dOpxoo0OnQRhDDD4Dy8vafX0mq5XcyeMPCnkiSShZGealMMgl14MQ0fnLK6vo0DeWHYUnPTtvA6nxO7E4MjvJCXjsLQ8DkX62vH8IIxSwni4pUtDFBwmZN6EkVekvPI1lDlSsLBOrke+xPWQgkqPvua4/JNXv9A3Uu7F775J9cVkvyz7fN2rtuKhHV1fJAc3Gj6LEqP4Sz2Uof7Kd9j9/EIw8l/K3LZ4OXwMPB0uJ/g0vMBEW/o5s+X88+11Fsim5Dbp/vm4DW+89Vfy1+EwpZI9wKAWkp83rJdyMkibSr8adXLZhC6wrPI+GmVqWdRJi9wfXnxPP7/q8mJVXXza8kw2ZwIHV0VOj6MW7KV7/pRO0ocfCYRRRBh606S5EwZ30ozBZWXXhjqpWS4x6mBaOfV5soqoLOexhlIMAHcCkVGfW2PTp+NmZYjaNu1GzxyXtbJ5w2EMSFSm+ZzWGNYkQeo5WIZv/TBRSgbBxD9rZBj4XdUGLm4rlMYb6DB9vKtQx8L2o+dQQsS4861Umi2Sr8feb8rg8VLvQtqP9KLZdjvGUo0cU3Ib8pF3ZnRA9F1KdR3DZ7K58zikZMi20KaTIIyy2FB2KEo2TZo5YWRJIaWMWfWyXz6i/HHHlq+snFHt1Tn3Iwz+KkoZdu5E8sVYHyM5cx0tNHwt2JhbzY5cl4+fP752VQdyyPPUnoL6Is+UFwnrdiWh88iye4L0pNVWMCwTzPFondPn7su/fg+xRxXrVdB8E18ypOzl1jLEGMTX5kte6TORJQgtG5/7D4BAmMZF8O7c3bDNlPyNaqjtmWzufD0pGVItmLRYh/Q1CKOEMGSie0Ur2XHPHUu3aT39pHcLKUQdOatYckMrVK5ji5GLDHKzc8ZfklrOqOMGnVqEaTlGMvTpRLk8YYdvadPcanbkunyEnSG3GKMY07b3E9cXiVa3G6Uf8pLb8N6pfn/cCl/br2kzLCM/FjDvxn9lp3BPpVm50/jmZAgxiOVzQz+BbiXyFACWkjuUoSl/qvp2XLlEvp6UDKk2TFqsQ1rfQBglhBHnnbGHESuF0p5QmdWN3CnXJWPI5lyNW+syqTYTaaFyq86ayKur73Wu6+BzkTtTOJTFZyrDiJ9BfZGadp3XpOVxX9mpr/hQDjYM4nV5mewZ31NtRbdZ7lT9Uba9LoM2DBGEsvKzPPnwOz3RRpnz1df2GWI5Qwy0iE1D2SZD8O5SOhC9E26J2/YEpNvuPk/JHcjQYuh17W3PZPM1cZDyKRnkXuMYPX/cLuYwiuYwNGnMlzBChVUqEymLutN6yvVZl/1H+ln9TNen2/u1G286qpRxR/dlHSq3IozU0EBtZPLiZWUQQ6CGXEQ+YyBUejwEkcUvJ0b0vNJOPJGZM0ohJswsfsKUZQuMa64tli2457/oc2IPStdtvPilOU/m7gcyB+821KH8u7DEYvXO6ZDoQ4sMoT4oMtNl5N3X3p4lfd9WN3Z5ufVkPyOcN/QB/lq+ANc8Dm0yBHXrC90O41BjYPUOhDGYMDR5lJ2fdEiKFUI6llYU94VbG7Po3skvtWtshOGOojr8yQUcT4BighpPFNS8cARAGEsjjNkqfPNLarLktjfG0Ret/srbu25UAASGIwDCAGEM1x6UBAJAYFEIgDBAGItSeDwsEAACwxEAYYAwhmsPSgIBILAoBEAYIIxFKTweFggAgeEIgDBAGMO1ByWBABBYFAIgDBDGohQeDwsEgMBwBEAYRYTRDA9SGhZkt9vRSddhDNeV2Za82xBdvZ2i+J9pu66oqvj/iu4SIn6+uXD3K6o2qRyJQkgCAiMhAMIoJoxLun0oW6jHJKH/QRgjaXOm2ukShgh8R1dJwsilSzkcgcBxEQBhRMZcG/bmOXsY8yaMPzZrerx+Rf+Inn16Rc+qNf30luifm+/ocbX2/5vfXK7f6KdqTc82z01ek6e+JxU1j2yotzdEVWX/L258Hr4n6Xysv53fElVcbu3v1/c+EV24uoIynJ4qw3Wp/HJe1+fFOchZ4A0EBKA9iSrh7WSI4dOWLtZb+pyQzraV9koS2ZEEBA6CAAijmDBUtNpHt/RQVN56Gif1MN4+p8fVd/Tmk9UfQxKaQEStFJEQWcJ4XD2nP/h+VIcUiY+GFNZUG7yrimjr2g3yOpIwac7IS77PN0RCNFy+NvacT+p2RCLDTtyulOE6+VruBe1mLu42Mkzkj93lM0bftK9JgvNdRDjEZfnat22HrMIyIIzMy0PyqAiAMAYYfPE87p+uaPVU9scIh50kT+p4UsKgL/RmvaZnN19MuGl/znomxOC9DPY8JN2W6a+PsaHW10wE8sVvjhtXryYP3ZQjkqCMJgw5JyJNMlyFbldXedhz8SJCw84U12X8bZ6Et9DiYRxWdtQGBPohAMLYgzB2765nSBhu6Im9CuNFiLdhiaQerkp4GPsSBg8zmS915xGIF0GaJPS51uFcOufh+g5IGMM8DBE2Jo7Ye5B8+pjJA8LQIOF8AgiAMAYThv3F1OXLh2BCO+VRxGmn9TBY69iT+I5+2nxHj+u5CEcY7trMdbi5jYN4GI4kzJCSPic3X9HlYRBRdkirB2HoIapj9DsmHRnG4vOLm9RMhEhSThh2SCr2ZqQ+HIHAOAiAMIoIg/fA8HMYQ8iCyeP0hEEUEoJTLjM3YYejnt28MhPd+w5J6SGk2qNww0Ryz0yM9yAM44moSeyaBDoIw3ggqlw9D3LIPsXegJ53CCaro2Gp+l6UzuXre+w55Se96e2V+bltOxEd8gFRFxAgAmEUEUb/eYrYq9DXUyCMYyj/ceYOjvEkU2yDyQYexhTfzDnLBMIAYYym3yCMcaCVn+/KkNc4raBWINBEAIQBwmhqBVKAABAAAgkEQBggjIRaIAkIAAEg0EQAhAHCaGoFUoAAEAACCQRAGCCMhFogCQgAASDQRACEAcJoagVSgAAQAAIJBEAYCyUMCTRo11kkNGNIUtu6gSH1jV2G1zIgZPjYKKP+M0IAhDGAMB5eXtLKLeAbsnhvCusw2ghDFvX1jUpr+8N01wXcbV7Xq67jvtu9CjsuwdcS/sOv5k7lQhoQODcEQBiFhGHIYkDAwdks3AtiSPVX92GGt3/9++RsIwwb+K9wARw8k31eB8rOGAEQRhFhcGiQa7ovKtNcHX5aDyOMSNsYkuoZujzUefYumtFW7za/0vbmPVXVa/N/YSLk2pJsxCW9qt6rsOXvqdp8pO1a7qt7nz7ShasrKMPpqTJvfdvJttxD8EK4ohAbb6/K8odg4QoIzBYBEEaJ8X+4pctHt3TLYc3NkFRmM6V/v6btDz/QD/K/fU1/q3ZOSxhOV13cKE8YIZHYjZQkkm2Hfme+uA0prD+6/TD+pKvq12gfCJGFSeJPe2GMvM/3+eZXskTD5RV5cD6p2xGJrHzmdmNyknvJJ2H5dQynZCafWEwwvijOgMCsEQBhKEOuh42S5xzOfLWieh9vvs5sovT3m60jjC29/nfoZUyTMJweD/EwWghDG2o9NMRE4L/6X4eEIeShu1bKW9CEIedmPwwhGVuBbldXWZ/3nqy3wQKLvJG6EZwAgfkjAMIoIQznYfhd9tqGqD7S/7CH8b8fG+HPl0kYX8wwkyEQ4xF4L4KYDIQk9LnuX7l0zsP17UMYGcLTzetzeBgaDZwvCQEQRglh7Jgg1DBUi4fBHsrfb17Tx0T9Z0cYZle51ByG+nWSIQk3pKTPyRJJJ2FQy5BWD8LQQ1RxBy8mAMxhxBDieiEIgDASBj05HCX52Muo98QYNgF+UsJwv4KycxSyFavbq5uVfsiQlNu3Oh6qMXMY9SS18ihMfpnUdhPjXR6GkS2cxK5JoIMwjAdSy6HmQUwnH/BzYBDGQswjHjNGAIQhRHDE40kJI9aAg103DW/n3MHB2h5e0aCfAxcOYQ2XDiWBwLQQAGEckSjEczlPwmjuEDd5whhs+LFwb1pmDNIcCwEQBgjjWLqGdoAAEJg5AiAMEMbMVRjiAwEgcCwEQBggjGPpGtoBAkBg5giAMEAYM1dhiA8EgMCxEABhgDCOpWtoBwgAgZkjAMIAYcxchSE+EAACx0IAhFFCGC6WlOyFYY6ZWFLyE9rU8Wx/VnssrT1hO9s1UVXZ/7sTyjHppqOFlFOSlVf1V1Vl/nWcsynJOGVZQBglhBHnZQIZsDcGCGPKXaKfbFcV76SBvyQCEyYMkZcXbIIwBI3+RxBGTAK9rx/o9pGKK9W73I4WQRiNECNf6M16TY83vxE1wpP40CR2J8Dn9NNGwpb0C7Guv/yrNe+JZ//uNkTbG+8VXNz4zvFZpWuvgdN1Pq57+8mX47MUYeRkkPq4jGlHyRfWuucVG+rUviBcbRTt1xtLjuXVb9+SOhQLx/Vaf6RtvaeJhH1xccHqMCzNfVByT8gGXL78K7W3CnsEVzdbunBeQbClLi+8lHRzdBthRdGHU7HCUoSRk4HMAs8tbdciYxg3zXotYVruOeeeDsIoMPTB8NJA74LrWARhkN1f45lsmmRIImX8FZEQkWwda8uF9/p2NjHQnJ8JoyaQT0QX4hnocyJiYy9GVJfnOvoShpZP18HnTBTikbBM0pYuo89D49VzCIUJo/IBH00IeYnRpSs3gRwlplYU/FHd83uRcGGbz8rNgSD9niONdvb1MNQK/NAY6/Az+pzfc+U3tRpIGAFESgZDGJXflTEmoFDGoJazuwBhDCIM9i7UvhiFdSyDMJzxX7+if4QI3Dn3omDf8P+36MbzkHyV9zj69jhDDPIFX3kPITbOtWcwAmHkZNDk0fd5BuWLDbW+dmTi9yDRhCEegm417S14wpDyznvRxKTb1VW2nFujK1/wFYknERpnDskihvvwhJGTwXoYQvctD7GAWyCMQmNvvIyOsOaBJ5KofymEYYee2KuwnoJ4G9aLEG8j9CJkSOqPks73NvyC1wY6SxhuWEmGoqqNb1CX59ReHkaLDHF9vqX82WAPQ+0LYoahzLU1/sGQUr17Id/LEUYqnWVO7H64D2GwR6C+4LWBzhOGj+dlhqX0jolDPIwWGbQ8+Te2jDsgjIRBbzf4+3kXyxmSsh2IPYlnm+f0THkNASm4rWL38jDYWKt5AfYiZA4iSxhcRpGE7u5s4OWeOa96zGG0yDCEMLQ8vc+jL3sO/mhJQg8nEdndDsVDyBGGy6eJoBakB2HUhFQXsifGMKvhI041aTIH4IhgY7/os4QRkULQiq4v1Z4Lxx8MC+oyFMrQRRjWMxHPJ5Dk7C5AGKWEsad3sTTCsPtr+CEn24PU/uHrV/SGJ7h5MnyPISk94cyT3J2EEXsYPJylCKSeoOZJczXpXafL8JciqpwMRyUMPeGsjb2a9L64+aj2R88ThsxbNIexOggj2O9ESMvZzhYDbiewL2h7c9VjSCryMHjSW3kZ3kO7ou3NRT2/4dNl+Msben8vlKGLMMz9KiJB97jndgBhlBLGAfIvZkhqwr2lYcSjOY0Ji54XLfIw8hnP4I6elDaPE85pHPcJT9n2cZ8UhHEAAmgfwtpNc0/v4+rZ9FpzBFHPYSSGnaYndIdESyIMsy2weAk9f0XWAd+Q2zJRHgxvDaloJmVAGCCMmagqxAQCQODUCIAwQBin1kG0DwSAwEwQAGGAMGaiqhATCACBUyMAwgBhnFoH0T4QAAIzQQCEAcKYiapCTCAABE6NAAgDhHFqHUT7QAAIzAQBEEYhYTy8vCS/Hwai1U5RzxtrLKYopMjEP+9Vi/8k+VyPvPp8+E9QebGeX2g3eYx4kaJaTDh5eXsICMIoIYyHW7pcXdO9lBkYsRYL93po5h5ZQBh7gDdyURDGyACPXD0IQ4x/r+M9Xa98lNr7pyu6fPnQWJjXtZBvEYRx5P0wyAX/k4V4EhqE+48O5xF/3abuxYQjoUFM+saGSOcwIhIKpI5jqmVQXgPHs0rtySHlRWY+arkP2ffvNv32vKh0DCgOJ5LbX4MXCdZhSCQuFceFyuzJoUKTNEONtD+pD9nBC/SUh8Grvev9MCQWldTFq6/9wj5571yXnHPA+Su394aJWbW5svtubGTvC1+nluHipt5tha7WW9rWe3mIbImwJXHoEBcixcsick/7CMLoRRR6tbYNPsjDUtfvdHr/80UQxjH3w4jCemiDz0ZZd0omCNkMKb4nXVWX5zTOx2U4nY36nWuP65V7FA0tmbwuNpUJey4EEskalxMZskdnaLyhDGMo5crxl31VR7LlWFCZSLSGJP601Rgj7/P5/TESsaSkbkckgrkPgGirLPUwzEpqF4iQt8Wqh6QMDt6gm3hO9fCPNdgig8akjTDMxk21IfdtGTKpSULXbUlJCCSU1QVVrGXSUkjARU1e0f2JXoIwigjDkoX1Kqy3AQ8jr9kmKu0R9sOIDby+ZoKoPQC3oZIxJJGB10+hy3O6kEKdrsrqe9pTMOeKMLTxCmRSdWkZDn0eG2p9baPX2t3xzNe/BC3U5KEFSnkLmjDknGzEWx9WnTc6KpnD8EbbNq+uk7GkHIGw0c8Y6jbCMIa/LittWYIICLoSQ+89FCNfLFNdlwZv3ucgjBLCiCPVxnMaPetahofBX1Gv6Fk1/n4YtSF3fVFfB8Z5ZMLIDSdlQ6yzvKWE4b6AAwOWMY7aNIWGWoU7Nx6B9yLMHhp9CEPy6EbM83yki7MjDBlqih8WhBEjMvr1+/fvi+cAuuYIRrsfE0RMICCMhr4cfT8MNsBqLoA9gPrr3t2TISkmk/qekpwJR0Kdm3M3jFUTkTLy4mEYwx95M1JlJ2Fkykn5QxwDwjAk4eYd9LnbhrUSMsh5GGYDJUUyWkCur4MwtMehi5ohHT1H4fatCIZ85L4hTj8kZcrWxGmHilLvlj0Mqc/OS9g66mGn2isQD4O9pIs63LqWV8+BmPSUh6H2Jw/KOuIXWYJ7E76Ah9HTyAsJhT+rVb+YKqhnMR4GK360QZLtCyPuh7EmulP7YYghl+GiwIg4AkndYzKRYSUhhVbCMMMvrowrK221EobzekSGnJeyrw1hwvCTzaGx9/fcxHgnYbhtWetJb7XnRQdhmEnxupyaLDf4XYST2vzQyqO6uLnzcxh1fpnY9uRhsFLl2BuTdxHWtw0nvXmeIkEYdu5E2uGjtNXhYTjCE28wJAdLanoPj33f8THKgzAKDL2Qxr7HRRHGMbQYbXQiEHgYnbmR4RgIaG/nGO0dog0QBgjjEHqEOiaOAAhjQi9IvJ/6118Tkq1DFBAGCKNDRXAbCAABIGARAGGAMNAXgAAQAAK9EABhgDB6KQoyAQEgAARAGCAM9AIgAASAQC8EQBggjF6KgkxAAAgAARAGCAO9AAgAASDQCwEQRilh8Oru1cr+P7qlh9Lyux2deh2GXeHqV7z20hRkAgJAYPEIgDBKDH4UGoRXfc82+KD5LbisWF18PwAAQAAI9EAAhFFCGPGGSUwgA7yMU3sYVi+isAY9lAVZgAAQWDYCIIxSwlAEwRsordR135Ah0yAMH1xt2V0ATw8EgEBfBEAYJYSx25EhCTeHcf1yzh4Gq4iL9T/DEAV9FRz5gAAQOBwCIIxCwgi8iHiIqmdd8DAOp8CoCQgAgeMhAMLoaeQDojBleMe9S7p96L81q9QxDcLAHMbxuhlaAgLngQAIo4gw/H7eq4FkwaQBwjiPzoOnAAJLQwCEUUQY5d6EeBX6OAnCwM9ql9bX8bxAYG8EQBgLJAws3Nu736ACILBIBEAYCySMRWo6HhoIAIG9EQBhgDD2ViJUAASAwDIQAGGAMJah6XhKIAAE9kYAhAHC2FuJUAEQAALLQACEAcJYhqbjKYEAENgbARAGCGNvJUIFQAAILAMBEEaGMCRmVCN8uQlxPu/9MJah2nhKIAAEDo0ACKNBGHY19/U7G2gwJIwwHAjvh7F6ek96UV6f80ks3Du0JqE+IAAEzh4BEEaDMPxqbvYyAsKIgg1aL+Sa7lvqSBEICOPs+xUeEAicJQIgjBZjHxOG32HPeiGXL2/pegXCOMuegYcCAkCggQAIo5gw7un20Yp4yGq34yEqEEZDq5AABIDAWSIAwiggjB0PSa2ELHa0i/b4Tg0/pdIwJHWWfQkPBQTOHgEQRglhRB6FmcPApPfZdxI8IBAAAhYBEEaCMOxktvvprNmOVW2U5LwM9jSG7OfNHgc8DHQ/IAAE5ogACCNBGKlhpEOmgTDm2FUgMxAAAv8HaGpojpIM1UgAAAAASUVORK5CYII=;" vertex="1" parent="1">
          <mxGeometry x="27.869999999999997" y="126" width="332.13" height="104" as="geometry" />
        </mxCell>
        <mxCell id="byrFbOCBDsxeEp1RwZBV-4" value="Self (global window)" style="ellipse;whiteSpace=wrap;html=1;" vertex="1" parent="1">
          <mxGeometry x="660" y="160" width="120" height="80" as="geometry" />
        </mxCell>
        <mxCell id="byrFbOCBDsxeEp1RwZBV-7" style="edgeStyle=orthogonalEdgeStyle;rounded=0;orthogonalLoop=1;jettySize=auto;html=1;" edge="1" parent="1" source="byrFbOCBDsxeEp1RwZBV-6">
          <mxGeometry relative="1" as="geometry">
            <mxPoint x="610" y="390" as="targetPoint" />
          </mxGeometry>
        </mxCell>
        <mxCell id="byrFbOCBDsxeEp1RwZBV-6" value="If (parent)&lt;br&gt;check on (null, or undefind)" style="ellipse;whiteSpace=wrap;html=1;" vertex="1" parent="1">
          <mxGeometry x="390" y="350" width="120" height="80" as="geometry" />
        </mxCell>
        <mxCell id="byrFbOCBDsxeEp1RwZBV-8" value="true" style="text;html=1;align=center;verticalAlign=middle;resizable=0;points=[];autosize=1;strokeColor=none;fillColor=none;" vertex="1" parent="1">
          <mxGeometry x="540" y="358" width="40" height="30" as="geometry" />
        </mxCell>
        <mxCell id="byrFbOCBDsxeEp1RwZBV-10" style="edgeStyle=orthogonalEdgeStyle;rounded=0;orthogonalLoop=1;jettySize=auto;html=1;" edge="1" parent="1" source="byrFbOCBDsxeEp1RwZBV-9">
          <mxGeometry relative="1" as="geometry">
            <mxPoint x="670" y="530" as="targetPoint" />
          </mxGeometry>
        </mxCell>
        <mxCell id="byrFbOCBDsxeEp1RwZBV-9" value="Add 2 object from global Window (self)&lt;br&gt;&lt;br&gt;angular&lt;br&gt;documment" style="ellipse;whiteSpace=wrap;html=1;" vertex="1" parent="1">
          <mxGeometry x="610" y="358" width="120" height="80" as="geometry" />
        </mxCell>
        <mxCell id="byrFbOCBDsxeEp1RwZBV-13" style="edgeStyle=orthogonalEdgeStyle;rounded=0;orthogonalLoop=1;jettySize=auto;html=1;" edge="1" parent="1" source="byrFbOCBDsxeEp1RwZBV-11">
          <mxGeometry relative="1" as="geometry">
            <mxPoint x="400" y="640" as="targetPoint" />
          </mxGeometry>
        </mxCell>
        <mxCell id="byrFbOCBDsxeEp1RwZBV-11" value="Angular using for add frontend type&lt;br&gt;Document use for add css style in html doc type" style="ellipse;whiteSpace=wrap;html=1;" vertex="1" parent="1">
          <mxGeometry x="530" y="530" width="320" height="80" as="geometry" />
        </mxCell>
        <mxCell id="byrFbOCBDsxeEp1RwZBV-12" value="" style="shape=image;verticalLabelPosition=bottom;labelBackgroundColor=default;verticalAlign=top;aspect=fixed;imageAspect=0;image=data:image/png,iVBORw0KGgoAAAANSUhEUgAAAN4AAADsCAYAAAAb1RgRAAAgAElEQVR4Ae1dPa/ttpW9v2fK/IzbTYAH19OlSuzaGDh4CFK4CGC8lIFT2UjhvLR2MQOkyQvcGMEEmSrFg4vxfFTT3FIzi4eLZ3GLpCQe6VxJd1/gQhI/NjcX9+Km+HH08PT0NOzt/+9///vgf47AmRF42BvpoM9ZifeX334w/OiX3wz/c7NF/efwh19+MPz06/+8WdJ+BPx1+NXPPhh+9Zf9aLSlJt3E+/azx+Hx8XH46PfvxWO+H95+eAlH3OOHb4f3HR51T8T7n6//uWLgMJTPhyV2Mpt4P3wz/LRJ0A7iTcpcw8wuev3oZx8MPyph09RhOfHqbdNXF7TPvYjfQbwLud78+WkA+XLi5cPWqfiat90P8erkWrvRM1NpGmiWcv7DFjKrpVdwW1mHtdtg58S7kqtNrCtBawSrhe+FePWGrRhWyRBhbMEDwAvYoeall794CBk6RgP9A4am1nv85fMYJulDuX8dfvXLb4Zrnn8e/vADItQLUZ7NO1Y8GOFvL2X99OtvwjCQw+QcF8hnWZRj8WnrAHnEwHocjUte1GIaMKIOUZ+vazgNw2jkIZhSj1TWcKnLHwo6NnHIdByPjDo83hTxvh3eYJiJ/8++lWHoNV+NcAzfB/FKBhUNCw3127/SyuZfI6H4jpc3nIiJjcZ3OBgK75lqnPdCYqYLBqs6mrIpp3ZNxhmMEkZ9JVNedgmna9pM/oQOgezZ2L0iJwrN9WBJkeSp7mMZqW7MEq/j8hGB/IK/1CEvX3EwZQJD8+qwAfGuBAvvgR3k2wXxquRSgE3LTT1Ko4Wkwag/GJPYpMsb+FLIOKzQ2Mn4hmEwMqdUTUaYcLjKz8su4XFNm5UzoUMqM2WKJPoZvVmKCDe5Howr6cO49nVcPtJX6jIMQ16+lMt2rY50hmFT4j39+U3XBMvzE09AtG2VDNFGzHiuGR4bikQx6fIGvpQzDjMGYvU0Mqe0TUaY5Fzl52WXsLqmzcqZ0CGVmWXCA8rAMDknYK4HM5X0YVz7Wi6/Upcp4rEtK0VuSrz2O+DVM3KIyeuzE69hIOXGqaBrgxtyM49k0pUMbBxmDCQRJioBmaWZRqtjfE71THKu8lE2h9rh3hCi6iUmdEhlTukU41WPa5Zp4qEcO/RDfoRzqH6Vd633Nexyp+XnOCBP3knYvF3EC0NIvseF60fD2/cgkrzfjZYa6kQj4Xh9buJVDcAQwoI5+WzyBwOQ4UiaWDDp0Kg0iEsDXydJMBlwyWcMJBHmqpWWR3nX2PwuYZDkqHzcRx1++41Mrkg44827TUkHDbtMbkSjDUSVuhpZfP/K8gTv2Db6UN5IVhyOU+/USWm9c4yy8jMcwOLr5A70s3h3EY8E2er6rMQzRq9QJ2PUwCX3yYiXZPK0Z0TAibdxq+YeajytvHHxLn6nCDjxdtowrta5EXDinbt9vXY7RcCJt9OGcbXOjYAT79zt67XbKQJOvJ02jKt1bgSceDto3188DMMv3u1AEVfhbgh0E4+L6OVjQTyX92b49uDn8e7REkuI9x9fDsPDw/V/U8J+Pww/fjUM/zEXhHdXvYKOr+dmHIY/vV7e+XzxSsozegLTP80vflBcN8U06tRBvOtxn9qWsPe//2h4/OzN8ObRibeg7WclhYH8+MuYNBr6EgObVQgT9RBPyAYyPcgzxZauS4mH9AmHgsClxKOIpXow39JrB/GuW7+KxHv/dvgoEA7bx45HvL+9fjV88urr4b+I5PdfD79+eDX87t0w/NeXHw+fPLy6/r/+t5jq34bfPbwafv36NyFtSJPiKGh8nepltUenkWXEG4YBBvbF91E2iCLekIQMxgQSPFyMFXn+vxrJk4XnmI+9vZZND0sdUBpkjsLRESjRoj7UI5PJ8q2XjHo088TyVR+iq3pRP+qEuCwPyqYeUUDAyg77VUeTnuUuva5MvKs3vOzbPB7xhne/GT55+Hj4YzTmQDYlIhEWQg7DhXifPPxm+BvijQxmqV1LjT0ykpg5I54xnKyXlzjICgYWDQhEZVqQgWRDEQjPiFwwtEyHYRiSDMhX4ll5AoCVUcJAkofbLI90MklfycD6SdAwGA9eKnMUZvJAB1vHrAw8fP/F8OOHh+FB/199kTo6JFmVeJchJg+/HtPj4QjKH1+9Gn79JX5ISO8BFwl29XrwhAy/5MHzsr9RY0eDZa+v0kLDF7zaEEmVennxakm+EIOGySvLSGkRYIyOaTLPpZ5S5DOtEhmyVT/1Plm5zGw8K/JqnpCMBDQdhK0XRUJ3EvUXJg/SWD0s3kF/07lQ9pLrisTjhIr82FE8wYDfZ1myofpZN0kPcUgJLxe8Gr3fhYRpGFrwePciHo0vEIBGUDB6GkIyJklDw+R1lBYBDeLReJkvXEV+eI6kCB0I4mTCI/NeBYNP8hp5tOzkdWOgrVdK+y6S913u6RmfsIoBVk+ma17v7fFych3V4wFSeLaPh9+9/nj4JL2rReLF5/AuGN/9tvB4MCQSTBs5M4RozCQBjI33micZkxCDhpkZbCRKkqHEEYHBC5DwEh68roRndUDZ4mFQvtYPOupzEDuRR4uGvOqQWRNiNAGv97o865mwYp4KBozuvXZ5PC4lhN9Vyc7jqWc7MvGGISdWhDe8u12Gmb/+8uswoXLLUBONrEMv3Cejj8NNxtMoM+LZSYZIRJsnGVOBeMGrydBVjRe1Vh2pA8JBKpaDq3o1hmt6m+cLnZ1FZDRw5uUwW8vRPBqOPLas0DmwXtIZpDqVwpg+XtkWmSxDcMjr+esiXu7ZlGzr3D/3ULMHSM9zHARAWpLqubR24j0X8l7u3RGgl7Re/e6K3DqruZXnc4/3HKbgZd4TAfd490Tby3IEIgJOPDcFR+AZEHDiPQPoXqQj4MRzG3AEngGB8xDv3TD8w8MwfPcMIHqRjsBSBLqJx0X0/DzeeNvY0u1imCntmtXciniQaxZbSyB/2iL998Pwk1fD8N+ljJ1h//3lpaNBZzNHv85i7pot1UnwbuJ6V+3WLayDeNcTCONjQYjjr0r3L6Z3EW9dXK7Sdkq8MxpkqU4g46f2mM61dQ5710G8K6H2QryvXl17/9JQEw0aPMPDtRHRoD9BozJOPRI8FMNnehTI+Uq80FfxWJHqRh1QLv6+e53nYfikNdU8aPT6LEexsPoFY45yPo34Uf85hp7VSz3Uq2H46vUVb+IwWadhGKDHaFRQq+scgTtOswHx5HTCnT/FDONSYwPuMJCSIXFYw/QgAdMFI+Xh0gUeLxEHedSIKsaDMlM6pCnob20HupFYvAbjtvmNDsiX9KM+MQ/qHYj0ehjYIdlys+cGJlk5RodMhn2gTjY8dlBsm0L0IYNWJt7VG+JdLbwH3vH7eGh0Eim0RqMxqwZmjco+V5rZlp09V/RQskNslqdSTrVeBT1Vnt4n0aIXiAcCV3FJmS4bmsOIQDuXGG/Lsc8qhvdZB8RAvUJP8aoaddT7TYkXvo/3EoknBh0Mwz5Hazks8WjtqBc8sBAwI1qMzzpD5rXXCkZMxo6Bz0e/bki8yyRMPuuZe8TaXs/W5AoatjaLlzV6bBmElYYp1Z7dGEurPG18LRuyMx2NTOabIl7wBNaLI3PJSE0ZQYcaIaiAyKFhV3FhnsJV6673IxwKeTWo+I7HBAWPzqgjXruIx6WE8Xk8nMG7vuP1kG5qOaFEhBCm7z5icMFIJY4kbBkYDR7vUN/NbPBMBy0/WoXK5LvWqsQbLsNEvvcF3cUilRApuJN4gVCCKesDuVM4pLILN03ixff1JZM1hSJ2E9RFvJqnWiu85fF2g5wrUkSgSPBiynHgVN6lHnRcwn5CnHgz28L28upZztILJyjisFXryHv1bim93EyRR5KObhPGJ5tIGVXUz+OVIPEwR2B7BNzjbY+xl+AIjBBw4o0g8QBHYHsEnHjbY+wlOAIjBJx4I0g8wBHYHgEnXg1jrN+VFq9r6T3cEViAQDfxuIheWiQP31CIC+ml+Kn1vq3W8TBdXZsOH02DPzPxoA+n8LNdMAsad25SLu6PsIkYBD02nOJvtcvcOhwtXQfxWufxnob8wyXztohZIu6CeDtqSWzn4o6btdWibJAvI57ZgjaKX1mRqV0rKxf37OI6iHcl0/g8Xv/Ptiv5SsRDr/gpPBY9gfTA7LHpIbJNudpr69GYuAWJeXBlPhgjwxmGlmrpgO8GMA+vurAedCxsJZtjAfB+lFXVIZav6bROU+VYYlkvFDCJ+t+iQw0HhG/VuUzV/Tni1yUePkr54dvh7Wfcr9l3Gr1GPDUk9tQj0GCAJKXptdWYrKGNhpqFYzrIrzooIfTeyoaONYMb6c8A2T2insjqkOEgdS/Vh6JLV6sznkkEyAqdnhBPcViiQxUH1LezYyrVZ+9h6xLvz28GbJxOv7OC547DsDXiWQPkM40RxhD+I/GUaGgIfbaGaZ+R3oZpfsTD4OhhkJb31ohvNQKUo3Xlva0TnoNhV05ktPSwOuMZxEv1EmJYHOzzLToQw5auZ4hbl3jR471/4nC0b+g5h3jJUKJnSA0mvb41CH22pLLPaFwbpvkRr8TDfSL+yj03yqUXtzokHKI1BsKIt5prpFZOKFM6kzCUFo+n5Ld5e3UIZXC0Mlfxg6Zbl3hPIJoMLzf0eFlPbN/P2HggIUkQCUqDAVE4lIKh6NCJbTmbeOINmNdeQxnUxUZOPKuulngJBx4LinXX8AnxIdqSx575gw7E7hYdalhTR5STOlEGnvDaRTwuJYzP4z0NT/B66Uzeet9AZw9Mr0LSoE3YmIgLP9hD4ukEyqth+E6XE0DKODTlkIoTKTBaxoVrpadXI8F9KQ9tZhHxYidBeVrXKg6xPqwDJ3umjFixY3nMk5UlmGbhOqydoQPzap2IUbhChpSVxZ3ooYt4OgO5xf2coeau2qBgLEs9ztz6wHDpeebmWTvdTTrETiV1EAXltsKuUNSzBTnxVoLeeslqj35jeTcZ/Y1lM3uvDvSu9KiU9xKvhyHeS2wcr/N5EXDinbdtvWY7RsCJt+PGcdXOi4AT77xt6zXbMQJOvB03jqt2XgSceLW2tWtStXQe7gh0INBNPC6iZ+ft4l7N68L642p7NTvqdluWZyZetjyx4YJy79LAbeB67g7itc/jZQvqIOIdv51w1ubErpit1gWB2Us7C7cHO+kgHjdAX74GlHm8tDkaafo/UlnauQIP8GncU8nvuHEHBxdmueVJd0WEXRDy3To14MyryFk93f6lsuAdamcC0ZiIhw6aZ41GDnWInw2r6hA9NBenS7rUtq0hXHFZQ2eX0UZgO+J1ejt4zBrxQLRkPIVtWqGqJhxGS4Lqxl/ISeHIU9jAjLxKImvMSgiUbePb0E/Eyn7NpGehjMwbSt2t7igtYWeLnrHJ22bx59sQ2Ih41+FoNvTMPOLVc9o0NeKBBKl3FiOjwdPj6SbbkgECsl7iKQlg9PQwXc0g5ILuNa+Dclgu6sp7lGmfA7kasmp6It9NdakJ9vAiAtsQr/M4EAm4iHjReJPRCCFR4xrxLFlTfoHJ5rVGfjPxpKzWbdA1TrBYHbIOhB1Tz9DR4NbSx+NuR2AD4t3m7VpDzaLHi8TjkBBkmOPx5pBmKfFIZupye/NcJEBXekNLPOjITkMJquHUg96wpt8cTCjLr7ch0EU8LiVclw1uP/xKb7eYeHx3iWfo7Hk8Sx7CRZKk4akYMPJoON//rNFbQ6XMmmGz7MlrYwjKMqgfCcnzd6lseDCpE8pk3pTHKuJezyKy2XMX8ZQkW9yXhpprI2AJaYdsa5e3ljxL/kVyzeiglLfkKUvpPOw2BF4s8TjsoufQ4eltkG6bu5d4rC+Hpdtq6dKnEHixxJsCxuMdgS0RcOJtia7LdgQqCOyWeD/87zD4v2NwVhtw4jnBvYN7Bhtw4j0D6Gftxb1e80coTrwdEO/nD8Pw83+Z32hu4MfHqpt4XES3pxP023iP+qvSM/dpcgG9Zlx/+1wWtz++NMDn/3gN+9eViAQyrCWrVheGLyEe6v9Pn9cNb6neU/Koo1/rmPdg00G865YwkC8jXvgVafn16M4TClhAr1WmZVituJq8Wviasmpl9IRPEaVH75//4zD8baUOq6dOLzFPB/GupwpGxAvfTrh+LWgcf83b2vFSJd6/D8M/NYykZHSZh9S8/3L1klhE51DvXz/Ow8MCe/SsNBCU0/I6TMcr0n8unpplqW4MYx6N4yI/PDCJB5mq2xy9QxrFIJIN4bZ86uHXdT0d8VyZeDwAe/k+Xvpc14JhZm2omQyNBgdj/vccFKTJhocglxhaMGZDIgJh89pnpsMVcUuJl9IXOo+R4SON1AVDaRKDhGTdoQvvqVuGgXiyGvF+KOik9fX73M7WwGNl4l2GoZfhJ74cZIaiMwm4lsejd0hAqYFF46Y3wVUNtkW8JE+MuhU2JWsp8RKJ/3cYQMq5xGvpCB1UTiutx91OxHWJZ8/h2Xe+HREPBqsGbMlhn28xtilZI+JFr5o6BfHStjNZi3g/YHQg5dxSX887Tcx1iWeJZol4Z+IFY5KhZhhqReMqDd+sx6t5ABBJSTtlaIuJ1yDBHOLV9A71N55ddbck1ji/nybTEoy6iMelhNJ5vHw5QWY4Z5Ku9o4XKqVDRRnmwbCTd8C9JRvjJTyQMoaDRJYcfJcKco0nWIt4JILqTtKM6hR1mCJeS2/G8X1xZCgNwo/SCv4et5yUXcRrzUiuEVd9x3shjW3JFSY/Gp5qtuHH91r17DYvCE/y2zh/Xk6wGmZOvD2SuTDxcysZ6F1vlVMzJA9fRkon3h6J5zpVN1CcheBOPDfy0xv5Hsm6W+JVzg96sCNwCgSceKdoRq/E0RBw4h2txVzfUyDgxDtFM3oljoZAN/G4iJ4dC8IiOXarPF42ST9++HZ4v2DhnGuAWMcb/cmPvKYfbY2J7A/LjvJ6gCOwMwQ6iDf/PB52sYyIOYOIReJF4Io/PPsu/5DHzjB2dRyBEQIdxLueqRudt7MHX7F3s8PrtYhX+0FX+8vQo5p6gCOwIwTWJ54QLQxH5ZlDyalri3jhGwGFTxPXCLkjrF0VRyAhsC7xni5fieU73pvfr+/xguaFD3Ig3D8pnNrVb3aOwOrEy7yZHXrOeL9D/h6PB5zx/lf9Es7OG8LVe1kIbEg8nECXz3fNJN0U8ZpDSsx8Fj6p/LKa1Gt7BAS6iMelBA4prz/jd5nxvIT3ke4m4rnXO4LNuY7DMHQRLxtOLvBkc/O1hprF5QRtSrz/uddTRPx+hwgch3iNBfQd4uoqOQJNBI5DvGY1PNIROBYCTrxjtZdrexIEnHgnaUivxrEQcOIdq71c25Mg4MQ7SUN6NY6FwIsnHjZX+26XYxntGbTtJN7luwjFhfLwa9IbnMfbCO29Ew/64Qdvv/o+AoB1ysIm8Y3gcbEbIdBFPJyz45eAwi9HpxMI+TaxEPfZt8PchXOmay2gb4TDLsXWtsfh4K89DLzLCrhSVQS6iEeChKueuTOboi9by5b/jPti4sXTCvwp9OQdsOj+ehhgqIyjwcKoGWaHmjjl8NXrazzlIc+nXw7DT/iT8Op5ZIEfclkOkIfX+qpRXq11QnnvxrE1Qo5TesheEbiZeOrVcH85cc7Pdb0d3jxuT7zqTz9EMpBYgWxKlsreThDlJ19emkzzhHshVSBUHALiPpHNbFtTeQN0mrmlrXXaIitvr9blelURuI144fdVrsS6EO/b4e2H/Coshp7X+MxTNvZ4LvV4MFB4GRIs1dYauX1uEC8jUSSr9TSJ8MbjBk8q5FpMEtNhpPrIDXQZ1Vfi/XbfCPQTL5DOnEAIYSTd0/BkP9vVIJuScinxCPGIgJZoxhMhX8mrZERBnjnEM56UOuGaydOIifuSbimLrVuK8JsjINBHvEAoQ7pAqtzDhXe8lSdXYMQkQgngzCsZ44QhcwjJvCXjzogyh3h8j+PMI4XHaybPxLUep7xaSfeWPI/bDwIdxNMzd3HZ4FG8XPR6YakhzXZefyBJPVvtvuXxSsQLYZzw0HetOGTjJIoSFkabws2UfUaUmcQLvwUjOijBM3kL2n6KeEveFxcU60nvgEAH8ZaRqEauVniLeIswMR5vUd4dJM68d0UfvGf6u14FnB0HO/F23DhQjd6cSxo7V9fVm4nAuYk3EwRP5gjcGwEn3r0R9/IcgSP+5oq3miNwBgTc452hFb0Oh0PAiXe4JnOFz4DAiyceZg2XTsdjCl/X6c5gCF6H+yLQSbzGebwnxpV2tsxbA1xtHW8GljXitRa990q8ls4zoBglgTy773SUqBCwph5ryiqo+mxBXcTDZujieby0NxPkOwbxasgfscE30bljE8Kaekzu3qk14M7Du4iX7TrR83hpE/T6xAsNUDsLh21d7J11y9gwDMhXitNwHWqWtpKlrWZSzmioKXEoL51ugOFWzgQG24jb2lSHps3E9KyT6gGD13N/uuiu9c30k0V6hI/0KBAPsrRcntJoYodKKUZyeqOJQ6H8Jj4HibyZeHoe70rIbYinBpO2SkVDTIaOxpVGnep9axuNW/ms4YU9k0o21SHqR4NGeWq0zMv4pXZDo0c+6Jxkqw4xLmEkhSQcY1ggr272Lhi+rb/qQD1GZRk5oSPQEx0GJ1GxeIJE4494fxvxzHm8rYmXjCp6svAMA9MGNEYGowBhtffXhlqFeC0dCgan9VBd5t6DHKgT/1k321nocw0HTYPyR3gY/ZGmh3iBaKJz0N20W7X+0GFu2qqQfUX0E690Hm/joaYabPIcLaMXrGuGNzK0mMcapIgaGV7pK7UpvzFca7Qqd8499NWORr1NKhOCTLmUbXHI8mxMPG0/6jP3qvWcm2fP6fqIVz2Px1nLbYaa2nAwmNDTw8BkmBd6VhlqKvglkpXCkCfJVwHxfkSelg6GALW8c4ea0DfhgE6HOBhPH3CoeAmtMww6lR3rQQ8aqmv0R5jKDveiA+KL2BmMIpTXS4xPdbvGXO4KHaxNcqTnDuK1zuOBcNczer1n8krLCWxgDq+SsdAQZBiT3i9iYzKPvvvB+FJ4zKsGl5UXDTgLi3moh43LdJCOAOky44o6Us6k8Wid4qQN9YbBpzpJmXyPnBOX9NByKFeInMoyOkD/DAvJk4UXJnKCTNXbgHEmr9dBPHq17a414mUGaxrFH4+PQObNC9UJxBUiF5IcJsiJd5imOrGi9K4nIdWcljoM8eZUxtM4AkdBwIl3lJZyPU+FgBPvVM3plTkKAk68o7SU63kqBJx4p2pOr8xREDgP8eJiclo/O0oLuJ4vEoFO4ulCuTn+s/EP2lZbaSHxdPdGSSYWc1cjcdQtLGDPnDJftfxSBT3sWRHoIl71PN4TdrXwIyX8YtD7XX4f727Ei2tUJPHUIjGtAYvFaRcJA/16GgS6iHc9hRA/TFL5qfbL14NWIl7cq8dNvvAeNOZSGFvIblNivkA8Od/HXTEIT1urClulIBfeiOlZTu2K8jVt0FW3RUVijkiGcE1XK8DDD4nAzcQrn8fDdrKLx+NJ9Yys6RRDedtZacsYD1FyX6I1aKA/Gp4ZbwOjp4GTYIG8Jl1RljTvEuIFgsePSyJf+LClEqpGvNJJAdHBb4+NwG3Eq57Hexp6vxQEglaJN/F+tJR4JCGa0Oa1z73NTOJBXug0lngypJ2oc69enu95EegnXuM8XiBdZfg5x/OtRrxIqDR0FCMmIQi/JZp9ZrqlVw516amD51aPNyEQXjrlnUjr0cdBoI94jfN4Yeh5A+lW9XjxvbDUHHOIVzN4kFLf20ryU5jxcCBSljcONbOwlDn+Tol0GBrl98dFoIN4jfN4gZDmPN5an2JukAhESF4N9+JRRnHRiKeIR08V5BrDX0S8xvk0mk3QUXRmOK/u9YjEea4dxCtPiMwZQs5NUxxqdmA+moCJ3oWzoR0iN8mCTqDq8UhcQ/5NFHGhd0Pg1MQbnbzmBMfd4J0oKHYE+hsqEzk8+iQInJt4J2kkr8b5EHDina9NvUYHQMCJd4BGchXPh4AT73xt6jU6AAJOvAM0kqt4PgReBPHCmlxjnex8zeo12jsCncSrncczi+udO1jWWscj+DcRr7FwT/mbXLnUIKcwWA7W/bhhQPebZssnMzua0VonC/Hrpgh0Ea9+Hi9fXMeezY9+v9KxoE1haAh/DuKhTBCnsOAfOhFZTMeuF25t03ubrlHD4dOZJG3J8LhlCHQRL9uBUvw+3vrHgoIhma1hc3aghO1YZhsZIILX0G/JZTtHxNvYLWPqbVIeEEUIQF1Vv5BvqYEXiJdtH4vxQQ/TQVDPOTogbeY5l9mQp+5A4Gbijc/jyTD0s28Xnz6vbpKWysGwFxkKDNQYfUYEY+DqOfRLQCg3kW0YBpAg6SGGj/xq8FA9K0/q0rw1eiFtkk2yR51UN27ETmljIVUdCvg09fLImxG4jXiN83ggUO+ZvOY73rvc+IEAPQzfe6zRlz5ZZXv5ZKRCoICuPMOgWQaviXgkV+FjHN2tVCMedIodCQnHq3YGqU4zFAAeHLLOSO5JbkSgn3iN83hpKIo0HRMsLeJ1vY8UevRe4rWMM8hcc9hWIF4gv3hvlJmGmkr6Qt6mrUgH00znkasg0Ee8xnm8RLro8dacXOnulZcQzxgsvAY3MQfPKhMb2gIahzyWoNCdXkrzNe+NLkhLzxbyxXiWpR4ulGd0DWGFYTB1AKkpi2F+3QaBDuKZJYP4PbzLb6vI+91j34xm9R0PPbKZXNFhXhGeaJhZvmiMMELNPzLaWNZ3xhPY4WYY1kbd0hA3PqsRLyJeQ2/UU3XQOvB3aUJ9xSsSm9A5qFdkBK+mrgz26/oIdBAvXzJQD7fWfWuouT4EL0hiwYPa2pe8tU3jz7cj4MS7HcNDSOAwU73wIRQ/qZJOvJM2rFdr3wg48fbdPq7dSRFw4p20Yb1a+1aIdMMAAApISURBVEbAibfv9nHtToqAE++kDevV2jcCTrxa+9i1uVq6FcIxhZ+tx60g00XsG4FO4ulCufk+XvggCRfZ+cmuZWt/u1jH2ynxsp0rBdvSjQCF6EVBXILgBoS0QWCRlOnEU3WalnC8FF3EmzqPdzmx8GZ40/Er0tWdK8fDdhONp4x0NeKh45HdL1Pl3lrZrj24txb6jPm7iJftULHn8cI+Tng6eMX1PF4YjsWT1zxHxyM6rZ4Z+ZgePbcO6RDH3hxXytMtWdrLw/jCZ7aYz+yFrLVjTQfIY/mqF+RoHNNAFxIg6S5b4JguXY1+PdvWuOAOTKhjFYc4SmAe1kExrOmAcMqv4Xim8JuJl5/Huwwxr/s21yUeiJEaDo1sDCs0jAmHgZJQejwIclK46d3ZwMirRmMNKRDqe6auX2s6MMfI6MzWLmv0IBaN2+pgdWYZuCbsNHDiHvK0PCS3OKh+en6xpEtVB9RZPOyEWoePvo145jxeTsL1PR5IkIxUCEZDKPX0pcZHq0FOD/FSnrhZmQSwOihhazrQelKdGDBBvJoOyD5VFouYc4Ws4IWiPvRIqKvqYJ8DuZh3TkExDfIRzwXZDpm0n3ij83icULFfC3ocln4VtjS5QoNKRkriRaNIDcbw2BzMZ1vHEiXll4Q2rzUw9PSlfCIi3Fo5Nj7VSSKQp9SRTOkwVZYU0bwN+OiIQkYFVgfor0QM9ekZOpq2ayp48Mg+4s06j3cnj1fwDjoErRniHNLYvNbg5siAfVg51mZGxGsY4JQOKKvWGaAcnTCxemTPQjSEKxGtDlqmptNwyg46mCE843Cdi6nmOeJ9B/HKnm3s1e5EPL678F0EExbSU9eMPhiIehUxWORJ3gb38d3DGtxcI6npQCPUskiakQ6xTlM6ZPUSHGCci4jH9MRC3r+yMnRICbIqqeIz6wQdmJfD1hFpGp3OKO2BAzqIt2xNLpsBDWt80/lLQ821MbZkgFHqcGnt8pbIs+Ti72Xqe+MSeWunHem3pAAzQillRdsoWUtpjh72Yok38jbGOzxrw0bjLHnCZ9UrFt5LPGJ+dlLNaaMXS7w54HgaR2ArBJx4WyHrch2BBgJOvAY4HuUIbIWAE28rZF2uI9BAwInXAMejHIGtEHDibYWsy3UEGgh0Eg+L49wapufxxovr44X1znU8mWK361lzF7IbOHiUI3BXBLqIVz+PB+IpEadJVlpgby2gFxe6Cx8yuSuKXpgjsBCBLuJlZMnO421PvNrird2JshAHT+4I3BWBm4mXHwUyQ82OLwWB1C2Pp+e9FKkaITWN3zsCe0HgNuKZ83iZJ9zq+3hArrD5FsEv7ecD9mJErsdyBPqJNzqPV3ifQ5qOr8L2eDxUHe9/1V3vy7HxHI7AZgj0EW/WebzLsHPN7+MBheaQEjOfcnxlM9RcsCNwIwIdxDPvcff6Pl6saJN47vVuNAfPfi8EOohXGFLOPGdn3wFrz62hZnE5QdHC+597PUXE73eIwHGI11hA3yGurpIj0ETgOMRrVsMjHYFjIeDEO1Z7ubYnQcCJd5KG9GocCwEn3rHay7U9CQJOvJM0pFfjWAi8eOJhc7XvdjmW0Z5B207i1c7jXdb4wsbpuLC+9s6VtUHfNfFkCSX7odi1QbizPGCO+vBn/qY2RdxZvbsU10W8+nm8pyE/rdC32N5aQL8LKjsp5Ix7T2ske2kb3LuIl+04yc7j9f9su8pcTLx4WoE/AMueNPwCM75A8+r6k+w8vQ4DYHo71IQRfBW/xWd75ur38RreCT187Rt9LY7XTtZrffTXr0N6qRfjAoFjfRAWPM6M3T2KEXBQ7Ko4tCoU99pavJHljJ1MC4qbiZd5uEjCt5+VfhZivvdbSryagfKnz9nQwZDML0aXGhyGSaPVPDREGmAgVPw+Hu4ZHo4tiWGrPP1GX61hoBM7BV6pD+J4j/yoO+sXCCn1o05BHvSR41SMq+mA8Foai4Pq0JKHuBLeIc8L2+B+G/HsebzwLJ/lwnPHYdilxKOh0gBT49vGtM8VQ8gMDsYajRkGZ40+eFfjcQNZDPESKZNy0zelDsWGqU42jiUkY5e6ZHVkQnOFPNQljSBivJaJIPtsxFwe44hg1EaSGHrasiT6VLf9xAskM7+vkg074eH6hp5LiccWGRHQEg2GJ4RAvmSUFGJ7ejFWa2DJ0CWNiEm3c4w8JZabJL8RpjqV0iNrqqPouUQnS0Atk/K1QxJ1R7dJl1FMPOAsHruU5CxhfcSrnscD0YSMG3g8GAw9UKkRMqMwxEOjWwMpGUJmlGKsmWzzLTfkqfXWmTyrdPQEVi8kKxHJ1gGy6UVK6SEn1VHq0tTJ6qgyCh6uVXcrChhSXxuH51odSmmPHNZBvNZ5vKfhKZCS73jrfQOdIKORLfFCGL/jpu9a0aj5nqT5YIwp3ExvZ0YpxtoiHn+OgjKVSJk8VoTXhcRDNq2vllMz2i7iWexkpAAcWE9cW0RiNXmdIl7tN3WY/yzXDuLNnyTRmcol971DzVGjwHjEYEbxHtCFgO2AlgiZkxcdS230sKSsPad14u25dTbWreT16clak0FzyNNSnR777ORqYXBu4rVq7nGOwDMi4MR7RvC96JeLgBPv5ba91/wZEXDiPSP4XvTLRcCJ93Lb3mv+jAich3hYb9M1vGcE1Yt2BKYQ6CRe5Txe3Kv5mL6d93iXvZqhkguJlxaVKwg1F70rearBshhtp+mx6M0p/C2n11etT7WiHjEXgS7itc7jZQvlIOLa306YW7OJdHcjHjoELOJH8inxoEPaeVKIn6jCoujJHSOLpHniWxHoIl5GrtHGaO5swdYy2be54NemiztX4tYt9RA04lIYgYHB0aPwinyBeDhtELeLkQAIZ7p0NRt34T2YnuVMXgvEyrxQ9Nhh+xXSVs4RhrqKPlYX1pfYJL0g03fxJDie++Zm4mXn8ZRcnd4OpK4ST7YSlXZPZIYMZI2xw2i5r5AECwZq0iHrSJa0lDV2iarf2jKECIEs8fBtIp7sgQzxQjbUA8PSEgYhbeVdN3Q27+oqesz9ELiNeOGdrrQR+rKRuuf7503iifGVIBqRxRi7JR5JCFk2r30ulbcozOjCA7HfwSPHeiViCClDGaVneOqlHgxyJjBcVCdP3I1AP/EC6SpDScR1HIDlELbq8SaMpkQWhJWGjMnII3Q2r33uRpgZLfF4ykDqlDoGSzS+J6osfAtwKfFe0LEbQrXXax/xqufx8H53m7db1ePF98IS+HOIV5tlBCnXeMfLdIjveGnoK6RCOi0P5XOoSW/JOnKoWdP9pRy7IR57vXYQb+I83o3erod4MMTk1cwQbBRnh3WxZZBOJyRowEGueCUkR1olQrNxo6fL9BN5ql8ii80j6eEVtWw8Z+SLBNY0Vj/kSWXZSH++CwIdxOOs5XbX4lCzA47R5ENhuNchdvssdqi5sESQuUWs0KkImReK9+QrIHBq4nFWU71NyyBXwHMdEZ3Eo5fWSaN1FHIpayPwfz9UEt2GURngAAAAAElFTkSuQmCC;" vertex="1" parent="1">
          <mxGeometry x="90" y="470" width="222" height="236" as="geometry" />
        </mxCell>
        <mxCell id="byrFbOCBDsxeEp1RwZBV-15" style="edgeStyle=orthogonalEdgeStyle;rounded=0;orthogonalLoop=1;jettySize=auto;html=1;" edge="1" parent="1" source="byrFbOCBDsxeEp1RwZBV-14" target="byrFbOCBDsxeEp1RwZBV-12">
          <mxGeometry relative="1" as="geometry" />
        </mxCell>
        <mxCell id="byrFbOCBDsxeEp1RwZBV-17" style="edgeStyle=orthogonalEdgeStyle;rounded=0;orthogonalLoop=1;jettySize=auto;html=1;" edge="1" parent="1" source="byrFbOCBDsxeEp1RwZBV-14">
          <mxGeometry relative="1" as="geometry">
            <mxPoint x="415" y="840" as="targetPoint" />
          </mxGeometry>
        </mxCell>
        <mxCell id="byrFbOCBDsxeEp1RwZBV-21" style="edgeStyle=orthogonalEdgeStyle;rounded=0;orthogonalLoop=1;jettySize=auto;html=1;" edge="1" parent="1" source="byrFbOCBDsxeEp1RwZBV-14">
          <mxGeometry relative="1" as="geometry">
            <mxPoint x="640" y="960" as="targetPoint" />
          </mxGeometry>
        </mxCell>
        <mxCell id="byrFbOCBDsxeEp1RwZBV-14" value="Variable icRemoteDataStyle&lt;div&gt;using create CSS style for buttom&lt;/div&gt;" style="whiteSpace=wrap;html=1;aspect=fixed;" vertex="1" parent="1">
          <mxGeometry x="360" y="640" width="110" height="110" as="geometry" />
        </mxCell>
        <mxCell id="byrFbOCBDsxeEp1RwZBV-25" style="edgeStyle=orthogonalEdgeStyle;rounded=0;orthogonalLoop=1;jettySize=auto;html=1;exitX=0.5;exitY=1;exitDx=0;exitDy=0;" edge="1" parent="1" source="byrFbOCBDsxeEp1RwZBV-18">
          <mxGeometry relative="1" as="geometry">
            <mxPoint x="220" y="1330" as="targetPoint" />
          </mxGeometry>
        </mxCell>
        <mxCell id="byrFbOCBDsxeEp1RwZBV-18" value="Big object for&lt;div&gt;controler&lt;/div&gt;" style="whiteSpace=wrap;html=1;aspect=fixed;" vertex="1" parent="1">
          <mxGeometry x="375" y="840" width="80" height="80" as="geometry" />
        </mxCell>
        <mxCell id="byrFbOCBDsxeEp1RwZBV-19" value="" style="shape=image;verticalLabelPosition=bottom;labelBackgroundColor=default;verticalAlign=top;aspect=fixed;imageAspect=0;image=data:image/png,iVBORw0KGgoAAAANSUhEUgAAAT8AAAGZCAYAAAD/4zZYAAAgAElEQVR4Ae2dPa8cuZX3+/NMZn+MTgxc4MIfwMlE9ihyYBgGGg0HWmAAQd5ADxaeqC82kO5gHM1kmuTegbCAMFpjsw0EjSB7x3mHfHBIHvLwFFlvXV3N6voLuKg3vhz+i/XTYRV5enM8Hs3l/96b+y+25vkPbMsb83z7xNy/p2O5fzTHH56b7Rf35v1Au//3f//X4B8UgAJQgBXYXB58Hnjv782T7dZs/V8E4dEck2vPzZuB4KM2An58y7GFAlCAFKgHfiOANgTcgB86PBSAAlIBwE+qgX0oAAVWowDgt5pbjYZCASggFQD8pBrYhwJQYDUKAH6rudVoKBSAAlIBwE+qgX0oAAVWowDgt5pbjYZCASggFQD8pBrYhwJQ4CIK/PjVr80v//yd+deMtdcDv2Qi89Y8efXerTyhFR1i8rPdX/gKj399+0fz22//mbnNfzdf/u6v5sfMlbZT5fLacolrP/7V/PJ3v7Z/ebtE2gXt0gP15VAxs+37p/n6z06fXzbuD90zf23mhzdraoUn+9yHqeA35FmoBH655W2FlRwEw2dvBi/Jq2eScxlwQ26c7ONj88kyaH+qcnS5lzru89ANs61878w/vjO/Bfyyck5/H7LV2JND+nAl8DuaN8+2EWrF9bsESV7zy+uA+21rgV/55rQ8WLl7Lbw18tqixya9FO35CC/ld/paHn72f2T2bBKvx9n79bd/DF5j9LLabMg1xp9L2iQ84NJ5As5X3zW9siS99tj62x01ZZtb7lEWfiUd2mzguprb8r1I6/nlV39vZm6cUXkEuKmPfvntd+a3fN9HlCe1s/AT5YVrpBnXQVthA5kr2xvy2Haktttruixb7h/N1/9oNDycqAZ+tFTt/asnbohb8uxGen31rO2lm1a4IfTA9upkxlgvQ4BIAtV2tDDUo4eM63MdJgIq9IGwI8sJJ+VOYiOVLaArHv6yDbIwtW87rwAeX9bnyQZ+SHyH5zZRvfIhSe3gAtvtjvlzejloBXm5SNqK9vPptH55L8o2cN7OrbwXcr8zYz6BvPe0H4f30u58Xjqbap9qR9fCPTOF8pR+0h5jmuXF+5TalOZLr+mjauBnweff5VkvsPFeTw+N+3l8vP63Cs+v2Enp5jKk9C1qHusbHI/dQ8Xv79zWl6s6V7PUvOdHZSflBUBTXRlY2c7N3hZvu9sW26Asa2gm6lVt0mWk8OFyRX4+ZbfNe6DLM7ZtuTbn4NdyL9rKSWxKD4r3gnTIeE5p7uaRhZLwvBgoabubujRLaqaRZej7oI9tecm9pPK478St+0+udP+cVbLepp3pmUrgp8JWHTOgKw6F+0Hw8vBrdpBwKxoPeLiS3dE3OB63dIykc2WLbb7zsw+VAFdiZ6mu0vl8nXw2toHP+G1SJ50T5as26TKyD5nMn1TVvD+6vKTuJG8JfgVQFm3QhYrj1nvh09k00ssS+fUu6Sr+85JtlfvO6xJ9QJdjj9u1S+9DM60tIrmXhTQ2obj/GVtS2zMJxKlK4Kdh1wOGA6PAXBx+yc0Vd8APGXjoll4pHFHHVUM//l+bOhrvp7mp0zTf88k0jY5jHyZ+gKlD/loMzcudsGyDrE3tq4cxXE1scN5p0nbWIfPBJm9HX7tzepXzloa95XvBuoaWtu8kOuh7IbO22CiTyT5kYRz7TdoP2kAUC0y1TrWja6F/J+2I+bV+ZEP+NZBre15X3z/C6ESUT7u27tjOSuCnY/bJwKbjA5jykLeGd35JB5D3hG6IeIDlpfK+7/x+qPNjMnXGdbwwVJVl+5vP17hD2o4mhj90na+R3S79H83X38r3km0PWYsN5UZZz5Nt015J7nzugUkeiqS9DJv+dseyVHvkEDOpw2sVHj6VL9yLNhvKApXuhb5/0e5yWfwezen6V0MfrjjfGPg5r5j7SgQMWRDtpusFL7LxHIg+bvsm3z8qMdWV7Xatldd0Xf6avz/1wG+gJyfB1mf/op5f48bGTlmEYkyCPShw/QqQJxr+0zhXc1OvEfA7l84oFwpAgVYFUo9Venat2cZdtK9VUo8U8BsnJXJBASiwcAUAv4XfQJgPBaDAOAUAv3G6IRcUgAILVwDwW/gNhPlQAAqMUwDwG6cbckEBKLBwBQC/hd/Akvn7jTH7x9JVnIcCUKAe+JXi+cmABzau37KjuszV5YbA79OdMZtN/DsrND8Yc3NrzKe+QjxGu6yNu74ZjXnYjfgPQNV3qhajbCg08XAbtXhQaeh+W32GaKvKOPfhp7sbs9lszGanrT93zfnyK4Ffbnmbj+dnoShi+42M7HLRSc557as5S/C7ufPm+If/bN1zDPwE8AgmG3HcJuJg8Pi2Hz60lTrs2mAbehRPoMven6Ha9qhruiQPZr/Z5+2erpJBJVUCv7Z4frTONy53o4gvIcrzgFUhl4Tf/+xuzZ9uvzX/x7fmw7fmL5tb85+Pxvzf3R/Mnza38W/33z7Vf5v/3Nyav+z+w6a1acI1Lqi5lV5czmuR3gMDL4GfMYYergAAeqDYqxAPnX2oCUQbB07reQivI3giYvgt62ZPk22glliw+brCeQKShJ23hx/+pEyuX3lvXFdrHl9/qFdLq8rksgzZszNG2mGvqfTaBqux8LjlvZJl5eyhvKF+aWcBfrI8WU+bDbLYafYfzP720N/jn6bS1lKqgR8tUSvH83OeIYWwf/5DIYrLT6/N4cUL84L/Dq/NRwHHS8LPPP6H+dPmD+Z771FY4EkY8i0SUDTGwe9Pm/8w/0PXVRmcpbTNeRx0LvcwJfCjh5Yh4kEYHjRxzYKK0vmHnGDJDyU9bI2HjL2pwgOa2GAcTGwZVL6En4azEECXkdNAJLe7Mg/ZHaAvEyrgGqGDhZ8AvNa4ZANpFe6F0ETn11qSWayzNNHui3L4mq7fAs/fi5INnLex/XAwNzRslX99gUZ5+6ZtVHyeE9XArxzPz4HPeXvOCyx5fh+/P3j4Hczrn1JIXhR+5p/m+9tb85c7+t0OuU83lSEXvT/yCPm8yzP85utOTyWUHhoCAHsmtE1gJ7w+m8aDMZQv4MTl85atDmnpROYBpdPSO2Fb+sCPyub0tA1A8Z6chLC0J5eH7M7CT7SRywhtVO2RMKW0Sds5c8u90ADW5VERoW5Rnt1VtnBa2Vba5zYWy9Hlnnj8sNuYTWXgoyZVAr+WEFY6jp9+Byi8u+PxnfmGPL+/vWv8xsdl4eeHt+TtWe+OvUAHwjAkznh+c8GPoWEhxJ5W5qHn5yA81CINP0y8baSlE5kHlE7rh57zWi+L7eH8DGiqm/eNMRoUwcZQGHnQ5TxkQw6WDRskgFR7etkg80vbMjro8ii51jcUoWxpTdtWTihQ7cDzSz2qPhFVutPkPnj4r7oadhqGCfyO5uP3r807dY7qvzT8nCf3B/Ofuz+YP4V3dx5+/ti+G/TvAs/h+dHDzZCT3Tp5wDwcpHfA+zJPAEsGfglE6IEU3gYPE4N36QslG/Tw1l4S5dNx0ga6pobosn1kozwO5RXyWBsETL1pDtjivE3HZSjgJFq2vEcsAUzbTOk0kEt5c/+x6PJCm8bAT2YevI93fg2PLIBRTXWR7/bCu0A71UV8+c1ALpSnrl0efsakcPO9x77Lc0Pev9x9az9ynDLspc5eGuZQjfTg8HUGQ+sD62Go81A9elgaHkoPPM6jH15pI9tAthHYOA9tLSAL9fOzJ/Mc5FdrSqDsYOC25WEAsh1suz7PZWngaC1LNgStuCFim7tHdFmet/ZJAIv7aq8JbznJx3kAv1qGvefwJtMya4Cf6N/YhQIrUwBTXcqen/LUSh7c2POA38qeNTS3OgUwyfnMkCvBEfCr7lmAQVDgogpU8rU3HaKWAHbKecDvov0MlUOB6hQA/Kq7JTAICkCBORQA/OZQGXVAAShQnQKAX3W3BAZBASgwhwKA3xwqow4oAAWqU6Ae+KlJzsn6XVrVYSc4b832i3vzfsQXY3zwqK7vwSAocFEFKoFfbnlbPp4frfZIwNgThIDfRfsZKocC1SlQCfxa4vnp4KXkIY7w/gC/6voeDIICF1WgGvjRHL6whvfZm7gSRAUyoGCmY4a+gN9F+xkqhwLVKVAN/Mrx/LxX6N/5PX8Fz6+6XgSDoMACFagEfi3x/PQ7PT0M1tcLx/D8Ftg7YTIUOKMClcAv98Ej9yttGpL9l8UBfmfsRSgaCixQgUrgdzRHNdUlxvNzYHRTXXJA7AdAwG+BvRMmQ4EzKlAP/ArD1VOCGci8gN8ZexGKhgILVADwW+BNg8lQAAqcrgDgd7qGKAEKQIEFKgD4LfCmwWQoAAVOVwDwO11DlAAFoMACFQD8FnjTYDIUgAKnKwD4na4hSoACUGCBCgB+C7xpSzf5X9/+0fzyz9+Zfy29IbB/0QpUBD9avbH1cfvUZGY5AXpERBea77fKeX7/+M78tgCZH7/6tfnyx66++3fz5e/+ajqTdRWjrk8Kv5Y2qmpxCAUSBSqBn1reloStSpe02QAIMupLz8nRa4RfEXC9gXEe+CU98NSD3m05tSLkvzYFKoEfAc4HL7UwIxh6708FMrAhrZK0WN6W7ZQtUChCsVGQg9/XNEz93a/NL3/3R/P1PzjRP83Xf6Zz/i/xMClfvPbbb//pM4nzSXp/+ce/xvI6PU5Vv6/P1kVtT/K7tNbTpWtffSdsTz1b0obbFO02xiS2SR1YD2yXpkBF8BNDXQLe1h3HyM3OO3zy6l6BEvDLdToaWiYPb0g0xJtzsArlEABy0DLGyPrkfqhW7uTA3ACWzNCynyuLWCWH9TKNrScO+e0Q/Ku/2wpSuwUwDe0DeC13YZGXKoHf0Rwt8Pw7v2f3wfNz8Htj7r/YGhfsQHuJgF+z55UBlz7gzZzpGV1Oeiy9JPKWEkiSJ+ahkpZpjJEw8heH2SVKzJRlrxKoBdTC+02dPhznPUnOx23lY2EBdheqQD3wS97dCcB5KIYoL/bjhxwiA36675VBksJL52seq/QBFDwMjEPGbJ08VNQQlOX4SrP5mwY1z2TKcokIZmTfP83XX4kvyzp98Gb7eXeAYPMWLPVMlfCj93rxR4oECI/qtz4SYLZDcD0fPFoeYuEN9euwKfwIUOxN2XdgYQhM6YTnJwvXsKFruXMWlBGmsojWfSoreb8XU5O9X377nfkyvHNs1k0wY481aV8sprE3GtSNknDikgpUAz/7FddPdYng80CTQ2JMdWnvL0XAtUCxWKKDGn8ASN/3UXn8ceCvhj6KMETYO+J8YahoQcV5/FZ4hRY+4UNJfxDK+tgG2yRbn3pXp20Q9Rv7bk/axzYoHQqwLcqIC1UqUA38ZOy9c+yvw/NrAVwRilX2y2mMyrWZ4Bc81mmqQSnLVADwW+Z9g9VtCtgh9K/zX6YBvzblVnUN8FvV7UZjoQAUYAUAP1YCWygABValAOC3qtuNxkIBKMAKAH6sxFVsXxhj8De9BlfROdAIpQDgpwRZ9iHANz34SFP8u0YFAL+ruquAH+B3VR36rI2pCH60kqMQz+/I10TwgwGrO9YTz+/3Zr/5lXkQQ9+H3cbsHyMU6XiTpPk3c7jdmM3tb8wnn+/T3S/Mzd2/GfP4K7PZUHr/t/u9GFZTvl+Yw4dYNoPH1SHy+bKp3M1G5PnwG3Oj6g11bVK7uWy5bdRDdt7+xvxI9YhyKY+tm+ynOrk9div00u0NOp32DH66u3Ea7h5OKwi5J1WgEvi1xPMLa3kJgIBf+93vgt/vzf72N+bh7hcCiA5iNwJkCfwE8CxswnEZfg5QZIsAnQcQ1WPBSqAV8HNgFCASAJfAy+0HsIU8DugR+sIWUSeVlbSJ4BfaJ6Hernr71Qez3+wNsNeu0iWuVgK/dP3u8Sji+QUPD/Dr7iAd8Hv8VfTowkPuIfb4G3Pjz5Xg57wmBtRI+N393hxufRkBRBpWEjzd+034ebB6zy20RwHXgpSAx15iB/ycBzcUZA9mf3swn7pvHlLMrEBF8BNenYjnF5e6dcDvp9fm8OKFecF/h9fmYwDnWsLYE/zEcNPvswf0sGNPTEKSIUZbB6UAiwYMhAdlOF8JTjKtS8Pl0tbaxPCjLQ8x7b5rA9ud8/bkOSov57GRV3dz95v0VQDX6b1El+bf3HCe2pvox6B3T+Uo+H04mBvAb2as9auuEviV4/n1ht/xaD5+f/DwO5jXP6VRXtaxtldCzQGHHm4HkfRaPC8g5j1DhpR95xc8RCpPAk3kC8NNCUKZNoWfLYe8LQaRhJ+A0qnw4/d7YZjNnp8EnGxfA/bcnn4Pk05FGm8APi1LNcf1wE94aUf7gUPH7Ovw/Gz+d+Yb8vz+9s5EaDoIrh5+Da9m470lCbH4TjB88JBwSCAl8zEk5LYNfvSu7RfmQENtO+Rspo1wlmXm90uen8l5pwzcHLAnhp99yuH5VQM7bUiV8Evj+bEH1wd+5P29Nu8SkAJ+5EE1YBIgkELs092vzH4nvvYG+FE6Gkb6IWIOLAlQmkALHqX3wPa7X4WvvRZg/O7Nf4g42fPL2RjanQFpB/xGDXsN3vlp6NRyXA38yvH8CHo8BcZvR8T0W7fn1wRR9IpS+CVDReUtRvAROBwMk3dkHpR2uCeHlh5qCfw4vwKeLO8i8JN283tI/7QCfrVgaxo7qoGfHqZOfbwO+GW8mcQbw3X5oaT//ikPG6a6nKLeOfMCfudUd/ayrw1u5LE2v15b7zAMx+do82k30nmM9I4Vs/1OU3La3IDftHpeuLQ5QLDGOi58W1H9WRQA/M4iKwqFAlCgdgUAv9rvEOyDAlDgLAoAfmeRFYVCAShQuwKAX+13CPZBAShwFgUAv7PIikKhABSoXYGK4CcnM4sgB7RaAz9aXmE/ovlr6TSU/aMwk5Z1bWhFiI5novLZ6R+fzOH2xhw+xPw0PaSZN16nvTCFxNsh0+trvMbWnY+RWZrrb719clrK494GPIjti3P3dD3ShtTaYUcvb435/G5YnkGpPxjz+a0xPw/KpBI/GvPZTp2b+zBjQ1/tKoFfSzw/G96K1/m6dE9evW+s3e2aFL2OSc5z9rwIgFytBIX9o17a5cDSBMR4+MWyqIwIW6o/XosW2vO3ew/aB7Pf7dOQU497c3P3YA63EZCG4Hd7Y24CEGPb03pSG2Ktw/f6PsDDS/Y5AD9TCfzI62PA0VrcXDw/t0aXlsEBfqO7/IQZIwCahRIECB4KahYiudh2Kp336nLwknWl4DHGQcqV37jmM9o1zncHsyeP9HHvAC2CjT7snAfq1kL7TGT37sHwNUPrdX2eRj26jd4Djl6jbEF5/+3OmKfSk6akBKyNMZ/5v7ciO8GSz3+mPLqf7zLXPPxe7uI1WZ4oOt1VNkjPj2xmG4LX6ut56u176W3htpXsJpuf3on2Sg+zxQYyNqtd2gp7VBH8xFA3G8+Pobg1z39wIOzy9uR1eH6Zu3/SKefFpWtxfYH0wHsvScJB7qdVO49JlkX7g+FnQeM8NqorKc+HlnIA+2QOu4M57BjQ7OUJT9UDz9rJ+9YrpGF8C/yEDTbvSPil+rijpxtjAqBouKcgx3kIHAE+pXQeIJyOgMH7XE5uSza85NcTYsiZ1GmMIahZwPl6aN+CbmeMTsv1yPO0TyDl9sp65b4RNnA5fbeVwE+913t2b+6/EDD0UVoo2sv22ZvBQ16CIODXt0v0TRcBoHMkkKOHP4CnBLSJPD8BnsQGYSB7bxaO4X2jhx9DzqYX7QvnyU5KG6816hE2iGpP36WHXHh9dl/AT3pddI1BVvSCvEfG7/wkeIrGatCI48SD83YG+Hk7KQ2BU9ZVslumIXs4bwN2woai3YUL9cAvCUOlh8FHY8E3IpoLe3+AX6EHjD4dAZAWkfPi3FAyAifNYfTw+KzD3vTDiqy7EY3G/oiSH04LT9a+y+w77NVNHXvc9pDTNeElSXDMCb/gEco2CsgywIJ9LXaHNL4sznv18NPx/Gy4qxPAB89P9sap9gvwE54e1xTen1mviCJL8xXeTuH5kT2x7IZHZqtq1hPh12xPKCN4flSI/0iShV9qg62y2GZue/9tMtyT2QgiwgukdOz5EUTktZBNQInOadiEdHLHD2HlUJTf+dl65Hs5zifqYYCFujrs5jZQUZyX33vmbOAqi1t/L/h1SjWeXzGen/31NhXPL/k40u/9Hzy/YpcYecE96PK9GkEt691JePgOGPKFoWfqkQXwtFhn6xLTbSRU9TU31aUFft/QF131MYZspXPSfsKf/flPN1TW9UgbrOkTws96PWLoq+HAw2L6qCCvJUNLhqSAEtkZgNSiN12SZb0leAngEaDYhuCJinoYYLIumUfaLdNQvZy3y4Z2832f9V58NfDj4em5toBfe7fAVShw/Qq4VzLVeX7ngh6XC/gtsWs3vcvUY1xim+q2mTwu6b3J/ew7vbqbE60j713NIIDnF+XBHhSAAitSAPBb0c1GU6EAFIgKAH5RC+xBASiwIgUAvxXdbDQVCkCBqADgF7XAHhSAAitSAPBb0c1GU6EAFIgKVAS/Ujw/F8Zqyz9cPnKlB6a6xJs+5Z6c8BvKVZOCw/nMMrZ4rbDnpyjkp7g0p8K4ScbuPM/nMpmJxk273RwwOdE5TLRutaFgd4/TdloJTzrukV5OCOYVDpyNVnXYaSkDyuO8tNWTiuW1ufZzNlCb5YTtKW2pBH5t8fzSFRx66RvP4+vaAn5Tdhsuy0VBebCx+/hcuhZWnKUVu42gpen1zJECqYWWn6Evo6ukOcmuGH/v093e7HcUX5BT5ex2tt2IoKoJ/EKdfoWHOOZSh26Hwo/LJ9Bp+NlrYjUFp+27zYGnb96p0uVsWAH8dCCDUjw/BckkGEIKSQ1DwG+qLirK4RBPClA2rl4WDqfDz3lxIgSViMUXLPPL0kLIqt3BEKCDJ5i129v2mAnHpdtnPUm2wdVqoayXxwWDCjtqeZhNRQBjL06s0ZUlTAY/qr9Ql1zGxp6XhROFvqI8Ox+iSoBYeqZyPTGVxXH8qD4uz7apxQa6Tnk59p/UYIr9Sjw/gp8IYdWI5yeGxAhpNcV9n6QMDg/V8MA0LEJtE8DPhpPidcCFYS/BieBLwUpF4FKGX95uto22cd2uzdNoD9XLNrjGjYJf0KW8Q0DRKysmgZ+HLHuQ0uuS+2QZ2UAAovMEr7c+L8fo0/ZRHlmGBSkPx2W9cl/lKSsy3ZVK4Ncvnh95c2Nj+sHzm67TuJIIANH7oYc/DCsbsOC6GTB83GPbKEuCJ7UhlMbwk6Bkb0/E4qP00W5hm09bGvY62KfwC3VPsBPe33mvTMNlCvhJOJHJ8jjx4LwNDD/rtRG0PMwknKW3KD087b2x/bJObcMEMnYWUQ/8kiGsHgaLIS15hSM+egB+nX1hWAKCkoioYvd5qNsAFhctAMOnura6rGTI2QU/UTiXU7Rb2hbfCWY9v8QGUccEuxYgKlLKJeCn66SmBVjl4OeHrzlPEvBL4CZgljnf9lGj7Zp+zyePAb8JnkxRRPSY/EkCAr/zYtCI9G5XAqZxMX8iKYvyy2jQBfgleXyx/lzZ7tQ2/kjShJ+2wZVP5covxfnGdJ8lUIR3Yh4oGkTsOTVKE1BqXNMnqGw1FOV6CXIyVBVn7YQfl2eMIRu5vBL8bIguzuOHwJyH6yxtXSix07zvajy/Yjy/o3jft92O+vEigiDgV+pGY87LoSfnF/Ag0CReIXdSB47kGnuLXIzeqrL4vZ1LRnZkfj6zCL//13hXF79AC/upcOvdedC22uAtmQh+HKzTfojwHxUYfgQUe563ChzJNeE9akn5OAxvb415q2IAhmu+LvLoWuHn3w2yDTI2XxF+Mk/GBrYzu/X3JLxqySZqP1kN/KSXdo59wK+9I+AqFFiUAvY/J/5PdZzlgN843ZBrQgXcECb14Jx3eFrnntDERRZFHhd7YnrL7+aW2DD7ikF9bR/TDsBvjGrIAwWgwOIVAPwWfwvRACgABcYoAPiNUQ15oAAUWLwCgN/ibyEaAAWgwBgFAL8xqiEPFIACi1cA8Fv8LUQDoAAUGKNARfCTk5lFkIOwAoTj+j03b8K59pUicr4g5vmN6R7dedy0g7jGtxHkQKyfdWnVlBZeFWLDXcVr6WTmbjtKKWhi8FRRQYorK0qV+/NT2tBRFS4PUKAS+KlQVe/vzRO1fteuAHn23DzfAn4D7u+Zk8Y1sHGmfXPJGUEvXjfGzutTKzssGMM5t3JD5hnbkCnBA/iNvQt15qsEfjqQgYrnRzC00NPp4PldtFtxpJRkOdkY+DXz6JiAbiK09DD7tVxGHeEcydItXiIml2/5hJw3O1lYLB+za2H1kjOuzC/h4iVq4jR2L6xARfATQ90knp/0CgG/C/eXpPp8XLwmyDo9PxkUgWtQ58bCj4srbcN61Rb4cd6s5ycDBPgyckEBuAxs61GgEviV4/m54e4b497fAX71dJ0UchFw6XmyN15z1jeGvQp0NlXu3ESN154cRxKRIKSq2PPjanPw03lsYALhTXJebOtToB74JR8xGHL8kWNrwg8Y+R8yev5D/yEvgRMfPCbufCrSSYznNwJ+KsCotTQZSk9oe0vcOQ0ywG9C3Sssqkr4lWP2MRSHgQ/wm77naW/OhoCyX25d2KrwsYI8OBHxmSxpeH7eO4xfeAmgmY8kqpxRrVLDVPLmpOfHQ1YCIQUDkO/qKK08tvWr8qxXKd4HjrIRmWZRoBr4leP5SdABfrP0is5KCE464oqIh2eBF6etBBD6cnPwc1NkOvJMAT8ZQ45gpuLYEeBsBBQVS49MZyDydZYpGUZjyMuyVL+tBn5yTt459jHsrb4vwkAoMKsCgN+scqMyKAAFalEA8KvlTsAOKAAFZlUA8JtVblQGBaBALQoAfrXcCdgBBaDArAoAfrPKjcqgABSoRQHAr5Y7ATugABSYVQHAb1a5URkUgIH7DvwAACAASURBVAK1KFAR/GgCMy9jE0EOjs0lbkOXtq1qhQcvOwtx8mrparADCtSlQCXwk5FbjuaYxPOjaxKGcsVH//11TXJWS8zq6nOwBgpUoUAl8NPL1iTw5H5/2OlVIuuCXzOSShW9DUZAgYoUqAh+wrvLxPMLUV1UhGcNudLx2uBH62djoICKehxMgQKVKFAJ/Mrx/DTMKOLL9hnH9+vvCa4NftS/bACBiYIBVNJfYQYUmEyBeuCXjeeXgRt5hYBfZweA59cpERKsXIEq4VeO5+c+jDx59d5Hds7AMYFovL42z68Rb893dDq/gTe48scezScFqoFfOZ6fnAKzNWPAR0NnwM91eDcU1rH48DBAgfUpUA389Lu9qY/XBb+WqS52HuDwX0Fb36OBFl+7AoDftd3h4iRnB0QMea/thqM9YxUA/MYqh3xQAAosWgHAb9G3D8ZDASgwVgHAb6xyyAcFoMCiFQD8Fn37YDwUgAJjFQD8xiqHfFAACixaAcBv0bcPxkMBKDBWgYrgJycziyAHfsVGeRJ0XMXRNjdwTfP83ERm/gHwOKE5OR/i/fkpMOHYrQmmoAhJ+g2X5+cIqh8m3+weRB+kHzXn9BsTf7Sc6or2iAztuzx9x5fJ5bnVKrGeDV0X7TDeRhngoTWPqmeqaUFBx0Sj9ibj6vkVqAR+btlaCFKaxPM7Ggu+Eet5JQzXAj/3oGUmMavJzRYC9mF0QLoRUKIyJDAM5ZVQoX5JYAnnHOwclBxMQ34LIAbeCPjZ/Jn2iGfDtjkDFjq/f3ww+2BnzJTNQ+3MlBNzjdkjbdrtH1Mq8pyuQCXwa4vnp6/18/Qk+Gh/HfBz4GHPSHYPgl16nh9KD6THg7nxD/5w+Ln4gRZ4CRSdBbG8OeFHdRF08nWOgZ/NMxhkefjKe4P9yyhQEfzEUFfG8/Ne4D2FsrJh7kU6GcTgp9fm8OKFecF/h9fmo7i+Dvgx0HRnygGAz8mt81AirHw5vTw/793lvKdwjuvS9rUfh6FqwSvLgowgXII5h/vS5ZGdYriuh72j4Jf5z6C9tbg6lwKVwK8lnp8F4daEITEdFwKafvz+4OF3MK9/Sj3EVcCvOETMQYfP8dYYGt6S99YbfgIUwasMoBNdOJwTdYnLfXcZgqEunzEHv6QNGQDl8tjhvQZiX+My6ay9mSF3JilOXUCBeuAnvLTjUQx11fu/5FqSh2D3znxDnt/f3jVCXq0CfoY8P36/lvamzmHvB0rvhmgPA9/5WZDwcLAAGvcO8DT42RYRSBVQmiCjetSHEKVLM4+D/+Tv/DJ6pHcGR5dSoEr4pfH8CIRiqNvi+dG7vY/fvzbvGlBcyzs/9+5NwyEHDeuVWC8nBdKnu73Z78Z98IiAE+8XrTfKQE7rGtPpLbS64JcBjob/GPjZPAz53sbjnV9vqWZOWA38WqeykPcXftbyuXmTgZv+wKGP1+H5ud5jwRaGpAweD0Y+H4Z3CkgWVpuBX3u918RQ8mW492exfmM/PiiPLNhR6Pkd7+EolwaZPrYlh6G3q6eYhvWx2/QrLeBXuEcLPV0N/DSspj5eE/wW2hev1OzSR6grbe6CmgX4LehmXaupzqNSHqH1vKTXuNzWh/Z1ebnLbeIiLQf8FnnbYDQUgAKnKgD4naog8kMBKLBIBQC/Rd42GA0FoMCpCgB+pyqI/FAACixSAcBvkbcNRkMBKHCqAoDfqQoiPxSAAotUoCL40UqOTPACv7bXBTXw1wtre9vmBmKe37T9k6ZvuBUdvlyxqiKdZC0nTKsJ1YlJdC1Od0nK5onMuSVqYlKyzpMUP+Dg5a0xn98NyFBI+vOdMZ9t3N/Tx0Kisacfjflsl2a29d0a83N6GkcFBSqBX3s8vwRqBMMRsf0Av0IPGHm6C34h+IBd7cHz9crwi8vtyCCaGCyWyNmVIXvz4AMvsMmpDQ6eUwBwKvixnW93xgB+rEY920rgJwIZ2KVrBEOxnjcsZyudTyO4JLD0eQG/aTtdCp40uGm6jtZBycGwBL/MKgi5HI0AShOEhXdJrWnYoIMeWPBKiPbTIAerpxtj3nJ26XV9MObznTEETPbyQjqfPlee9Ao/k94alee9RSov8UDVNe35GWkX24ptUYGK4CdgZ4e64pjhN9LrIxgCfsU+MOpCAzwCTAn8LIB4jWwBfiJvMEaco7py8MzaIAMP2LqHwy/YIHZa4beJnp2FmhqONuBHkBLAy+XhqgmqL23EHWPIBt4H6Fih8dtK4NcSz4/Bd1RD43C+2+sD/MZ3kFLOLHh8YIP0nR8PeamkMfBL88h65b61MwFtyfJx51vhJ0BmyDuTx8YYDT+CXcOjE3moLvYiaWuBp706fTyuWavOVQ/8EpjpYbCH44gPHTwEhuc3bT/PgkfAL7zzS6pNQRYvtQx7vfeWRFj29TRs0MPeWMHJe73hp7w6qngI/CitHM4Gz0/DTh+f3ML1FVAl/NJ4fuTZneb1wfM7Q8dWoCFvjz82JMPepOoS/MRvgNj08YNHA3D2Y0gu3H7ME6qceNjLQ07rmfHQVnl6BK/Eq8vAzw5ZhacngZfkJ8Cx5+ff9/H7xMSG0ODCjteB708h1epOVwO/1nh+9K7vBK8P8DtPv06GtxzLj77VNn4siesn+MXpLNabC5FOHLzYw4vv+Jrv7Lh8AiOnp23D25wQfvIDxUuawiLhJ4epfN5DTw5fA8j0NQFCO2zm8vyHFIauhaS/9naQ5+e1DVrz/Vj3thr48fD0XFsMe9fd0c/WeuX5na2ekwp2/+nA80tFBPxSPXAEBYYpUDv86PXEJr6SGNa4604N+F33/UXroAAUKCgA+BWEwWkoAAWuWwHA77rvL1oHBaBAQQHAryAMTkMBKHDdCgB+131/0TooAAUKCgB+BWFwGgpAgetWoCL4FeL5HY9GToDebjMBD5Klcfm1vpjnN21H1hOM0zlkpQnLcp0v2cMrPvzkZzFRWq7s4EnNuRYkdoj8Nm1mZUOSfsIpIHYStJysnDE2WSKXuX7KKbvigyZAd9gwpo6wxI4z+5UnvNqETy9tWwn81PK19/fmCa/ooP3tc/OGATcysgvgN23XlHByEOO5ZGpCrQUQQY9BJ+2gc7RUzV27uY1wlOUX4WfnsHHEGLeyZCNWMVAZ+8cHsxdQlOWmdku7hu9fGn7W4jPNOQT8GD5n2epABjJun/MIn//gPLrmut+8p6dXigB+wx/othwpRIwxvNaXYCdgQ2Vw2ibEUvgdHn3cPpGH8jfzOcua58njZBiqsn1YKLYltI3tDiec15p6suFieaew3IzAIZe4sbckl8sFby0HL3HuKYW3osAHfokbL3sLRom04ZxxobA4jwyqmtimPEa5lE4uy7PlFuqRdS5hvxLPjwAnhrONeH7OM6RQ9gxBDbeuY8Bv2u7YgIj18Fy0Zel92VoJMLuHCDF/7CI2R8/PeYcOXrL8JuSoVOctHjzUXOvEObLHe4GyLLlv87DdroAQRXow/EL+uJMEKfAQsvAjUArYWBD6NcEEOApDT3ktqARUaWjLQRNknlBjBkoEOAk8KqMBTWMMlVcqu+H5hQqXvVMJ/Nri+TnwPXn13hyPzgt0+/08PoYi4DdtRy1CJIBN1Kfg97Dbm/2OIMdDUgEtH6pelj8GfjK/jACdnCcTG/ATdp+4q9/x8bEEja1CQIvTEASf0u+IPEYo8TWbR0AxmCnK4XNJHglVHVxBgFXDTh9z2Uvf1gO/ZDgthsE6oot+B5jkKwMR8Ju2qzYgQoCj4S7BpDDsdXkezOHuwXy625vDhwz8PBAfxA8k5eGXGw7zsJdgqqLH+B8/Kto9rTy2NA0ePm6DnwXNowMfDXHf3kXPjfPbwk+FH+UXofmlTRp2+vgMUl2kyCrhl7zX07DTMAT8LtJxUoi492TZMFTWs3IfMmwe8vruPlmPa393MHs7NBWen33fR55h/HW4EvzCe0avAKWzQ+4MgLmMst0s48h3fpxdbAkaPOTkd2i5Ya+95oe9drhLoaw+uKEvRYXmMsbAT9rA4bLssJfgJ4beVDYPe8kG3icoNt75iTbqXXsPwntXfbWu42rgJ6ez6GGtvLaVX357go+GvvD8pu14BJFiLD0LPPa84hdcC6vw85PeO8vAzw1F+eux/4orfqLSepi+Oe5h83WJd3yl946tdtsyp4OfDVrqP04QwCS8GIb2Q4SAEMMmQFK8o5P5k9/woOGur8eWR/scV1BdY5BSUwmMnJ5iFDLwGJJ0jc4N8fycvuKeT9vtJi2tGvjxu7lzbQG/SfsNCoMCeQXo9Qc8v/L7t3MBrq1cwC/fV3EWCkyjAL9n5alG05R6zlLg+Z1TXZQNBaBAtQoAftXeGhgGBaDAORUA/M6pLsqGAlCgWgUAv2pvDQyDAlDgnAoAfudUF2VDAShQrQKAX7W3BoZBAShwTgUqgp9bt0vBCxox+2ygAzq/Hf3j5ZjqMnU3SldlpKW7icI8CTr9MfH0Gk9GLq+84CkUPGk6Tn7WE5anCEZA7aBJvWHCr2+YnBDMkVnSNg84yqzBHZDbJc0sb7MTpMWE6cFlrixDJfDrH8+PVnvoFSBt8/v4GuA3dc8uwc/BKoBILG9zUVwivKRFEn68FM1dL9UTQ2XFdPmyZT199nPw43zJKgs+OXQL+A1V7CzpK4GfCGRgl6yJeH7k9T17YxhiRxnoFMvbztIp+hVagFJmXW0AGwc/yFSQpPHL1FyyQj0q5p9Nq8v3y+xSzzNTuTpl19c+qpP+MAc/XpKml6pRluw1BT8qMyxHU9FWEg9ULVWTeax5GW8w3wqcJQUqgl8hnp8KZEBBD7Yc5Rnwu2AvLkCJAJTAywc63VEklxisQBvurh2SqMsuDdUTh7w0lGavslGehZ1YYTASfto2edyAnwoQYGHH62rVtVCOgJ/2Mim/BB5d5/W4VHeIxQfQBTnH7lQCv7Z4fkdjgWffBW7N81cixD3gN/a+T5BvOPxoOMvg0gYQyOw7QhUOKx+01OXuhJ+uZIJjDT8NKxsUQAck1fUKD06CjpLJd4scdMDCT8NOH+s6cNypQD3wS0Cmh8FinbAeBif5RDp1Hu/8OvvCwAQF+LUMey3gtFfoa2WQNdMU6ukz7B3Yoj7JJ4Mfh6RnL9FXTvAL3p00SMNOH8u02O+lQJXwS+L5JRAjKIrhcXKtDD56Xwj49eoPAxKVoETnNya8Z7NDTx/iqGUYyvBr/qhQqR79wcN9RQ71Ukta6hvQ0CSphp8NLSW+sNpQVR5odggsroWCxLBXpqfrybA5ZKC2uLBV/KWZ7Gi885Ppsd+pQDXwkzH70q+58fc7GlNgAL/OG3y+BA5yPJ3Fbtmr89Bx11Rst+SaDz7a8OJkTL1mPTx0tl6iiPOXgI8aPiH8LGxkzDwBtVJsPjIhe03Aj9LYoa4oTw99GXiyrLfw/E7u2tXAL3zNHQC0IXng+Z3cV1AAFLgqBQC/q7qdaAwUgAJ9FQD8+iqFdFAAClyVAoDfVd1ONAYKQIG+CgB+fZVCOigABa5KAcDvqm4nGgMFoEBfBQC/vkohHRSAAlelAOB3VbcTjYECUKCvAvPDj6Ky2HW6z82bZE5fy2TmkGdcUINVrfCwv5u6MfKHvft2BqSDAmtSYF74cYQWC7MUfsmStuR6uqTNrgSRIa4SgJaXuK1rkrNaYramHo22QoGeCswLPwZVAjcClgpkQJDcbs3zH3y0FwE7F+ElBWeflR7rgp8xaUDQnr0ByaDAihSoA34EQx+jz3p2X9yb+2cOfjFysxsWP3l1b55vAb+uPhoDBXSlxHUosE4FqoLfm1dPQtRm8vDI83Pwe2Puv/CeoPYS2Zvs2K7N86Pu7Bb+i+Ce6+zjaDUUyCpQB/ws0LYBfMej8/LCsJeHwAS4xpC5/J5PDofXBj94ftn+jpNQIChQCfxctGYLOwKcfefHQ9v0faB95yfeAUrAte2vDX6ld350frOBNxieAOysVoF54We9Nv8TlD4sffxxIoIcX1MBS/0HEPx0Zf9+WoKfGwqrGHv9i0VKKHA1CswLv473cm2e26nX1uX5tUx1sfMA4fldzROMhoxWAPAbLV2lGYuTnDkiMsBX6Z2DWTMrAPjNLDiqgwJQoA4FAL867gOsgAJQYGYFAL+ZBUd1UAAK1KEA4FfHfYAVUAAKzKwA4Dez4KgOCkCBOhQA/Oq4D7ACCkCBmRWYH35hojOv4ODlaS3x/Hj521ZNfh4wb3BN8/zcRGZayUF/cUJzcv72YD7ZzuanwIRjtyaYfhg8SR9+HNxPlSn8+Ljrv+5Hx/kHzeOPiVNd0Z5efd1O3Yl5nE3pdJ38qpXUho38QXXRVpuXrxUMKuvg6ojtowLonLPX2cX3YWP4x9ZdmniedErLKBjSeZrbHPXqzLLiBPPCb0w8v7CWN43rN3TS81rgl4OD7d9qcnN86B2QbgSUqIz4oBpjKK8Ahi2P4BfOSQg4mIb8FpL8MI6DH9nm4PDJHHZ7s7+V8Hsw+9uDebjjNGSdsyELFGk3tasDfAkbcjqoc1Z/XyZpHGxIdCC9ZBuSWkYfNO7b6JLWkXFe+LGnFoDGXl+6ftet7eUoLjINPL/2bll+6JMH0RbCD6AH0uPB3PiHtvEQqQfcZpcQIX9n5z0bdZ7SxvKGw8/lPZg92fbhYPZ3D6n3+Lh3oE5AVtaBynDQ5va3K5pczekg2269vgi1VHNpU1fddF16iokVxQPSKsC2mAoXWIE64EcwLMTzix5eh+f302tzePHCvOC/w2vzkWF7PJp1eH6lhyoHHT4nt+7BjbDy3ST30AeIUBqq13t3CYREfgtWrou7X/eWH+iH3d4c7vbm8IFAy56k3FdtJzvsUD3CyNbm7T6IMrqt8ClyOtAlKnND9qUecwI/n+bBFuXgxq8FmsNedz14zz0NTOrrmWfNyaqCXy6eX2/4HY/m4/cHD7+Def0Te4xuuwr4JQ+Y7NY56PA53rrhLT1wveEX3gOK4d2Z4CeH3hF+KfCyDz9D0Hu1DlTpu1CpVOt+CX7e+9PRcsieCLgIbPefhYJya8UdF+19F/egIzkuOwXqgB9/0AihqkQ8v+C9dXh+Nt078w15fn97ZyI0VwQ/6YGpHt4EA4NDwI/y+/dnideRe+jpgfPv/AiW4cEX59mECFNZF19t37LnJ1OFtjDYBITz7/CorR4+bJ8FxkAA5XRgw+gaA9afC3ZymrBl7cOJSXbK9U1S/NUVUgn82uL5sQfXB37k/b027wIwOe9ahr3u3Vvj4wR1W/Xg0oPiHtYUSJ/u9ma/S4dvOq99Chgi9oAeZn5HReUJL8RChr2etK4+T1PugeZzvA3lJDaFs35YquDHka7DRxuRvrSrNEySTQo/qWdSS+tB7j+K1gwrvzgv/MI0F47bJ6M3E9z4vPywIc/76/79oPbu2o5XMez1ndmCLXhDDB4PRj4fvBQFJAsrBpkvMPfQa9DINL4MN+SL9fNX2DgUZACXn8IG4PwQc/8ovLmQndvi4CHrCR8ClN1Wq74AlG0MdQqNgqbuXM52f8X+Z5G1zyYA/LyqZ93MC7+MR9YGrCmvrQl+Z+0xKLxaBeLrhWpNrMowwK+q27FOY+ihlV5Q3Jde43m1qcGG01vIHu98up1u8+VKAPwupz1qhgJQ4IIKAH4XFB9VQwEocDkFAL/LaY+aoQAUuKACgN8FxUfVUAAKXE4BwO9y2qNmKAAFLqgA4HdB8VH15RT4+c6Yz26N+flyJqDmCyswP/zCROcB8fzwo+UX7iaZ6pOJzG4Nq5tI7KdbiAm/cbIvT8WIa17D5GMfhoqnuSTL6zLV9z31dGPM08dm6rHwo/I+838vPzTLzZ0p2ZBLi3PzKTAv/MbE8zvSOl8GpVvz++TV+8ba3a4J0ZjkfJ5OZefHCdBxhJcbEXMvhV9+Pa1daRHKcZCMYBxv+5TgIWB+fjfcliltGF47cpQUmBd+vMJjVDw/t073/asnBvAr3c75z+fhtzcPHGcvLEcj2whqOfhlzqu1sm4Sci5ve5tf3hqjPbTgvalhL8HtKQGOvbtdWvbbXYsXyXlUmVRCzoa0ZBxdQoE64Ncrnh/BLxftJQYvaPP+4Pmdp3sV4ecjxFCo/NTzi0PeEGJfrbe1lqpzY+FXbPUHYz5XoLJD4Y0xb30mgiSBk8/zcNduGYyP6btDm5avFSvHhRoUqAp+7fH8XOSXbQh71Q96DETA7zzdrQw/F8GZhq4p/DLemwKdtTR3bsomFOAnh7XaY8t5fgQ7mcdkyp3SbJQ1nQJ1wK9HPL83z7ZmOyKaC+A3XWfJldQGPxs4dPfQDb/ccFgNe3N1n3QuAykNMsDvJIWrz1wJ/Nrj+dF7vlPARwCE53eevtgKPzvkpfiAHN8v827Pm0XeYfzC2/zgMdewV3pxfeBn1LCXvMPPeg577Uee7DvQ89wrlJoqMC/8wjQXjtvXI55fLs+Wv/72H/oCfumNP/mIhqUcG9Bv41QXMbQlDy78NGMZfu5jSHwfqL/0TgY/8vj44wRvPazGeH6kowUel6XeI7bp7NqECCxtGp3z2rzw46+9F9gCfufsRih7lAL2PwbxH8WoQpBprAKA31jlkA8KjFbAhfoPv3syuhxkPEUBwO8U9ZAXCkCBxSoA+C321sFwKAAFTlEA8DtFPeSFAlBgsQoAfou9dTAcCkCBUxQA/E5RD3mhABRYrAKA32JvHQxfugJ2HfCAeYFLb29t9s8PvzBpWU9UdkELtvaHy+WPlsvz45e4YZ7fxF2vMck5zldzKxd4wrKYxNvIwys//NQPFdIqrvhw64RDIARuii7P57eTh9UPkdtzoXwuYOCWVnOIwAcDczeS1wC/GmxoCDPTiXnhNyqeX7qKg9b4IqTVTL2jrRoCjwCMBZ6HC+3zCo1+ICL43Zib3cFQFBjzSEvi9mK5G11Pw2RZ0xIb5JI4B1O2gWMMHnoGHy02e2L4FeuZ8QLgN/eKC+v9Sc/vjXkul6z5yM3Pf0jBh5BWMz4VXVUl4HHA2ngYSvjZ4AZq/WrTC3PL3g53e0OAetg50G3YU6O6aF/XqY6p3uAt0jVfL9UXzvt2WVgLeHc1117PBEOwUVx2LmYfh7zikFgEFlornIsfmDtHddD5p7Q+mMJpUaj9TYwakyyjUx6oDb/l01MeG73aL+Vje6h8Wq+cRLYmoPdci9xLowUlmtfzY8hq+NGxj9jCQQzun21NhB/B0a8HRkirOrpXC3gk/Jqg80NYBpttzYPZE4g+HMz+7mD2DDqfhspwXpzzEIMHl9hAABVDbB9H8IbKU/ClKkfBL6e8BwwDxXpSYq0wgYjh0wiJlYEpQYyAaUFH7wNLcFLnOZ81UZSb1CnO55qytnNVwa8rnh9FZ7GhrUYAEO/8Ju7a1rPi93obE7w0BgsHPch4V00gevj53/GwoKPyLfxS4CVenLIhDnN9W/117fVNqoQGijhmz69Yn0jLaQhiBMsALQE5C1YOoEBb4bFxPi4nbFV+hnS4vuKdOuDXI54fx+U78ntD9iJ7bgG/iXs5gSUDNqolen7uPZyGTxl+wkYuXwHO/sAR18tpDH8QiR9dXEkpOEXp0+1qgBFs/BfcSeFH9fjI0tZ4ATU6LsLPD3UJqC93+LU6eeMrgV97PL8APu/54YOHvIUX2hfg0RZE+OWh1IBfrix/7sfG+zr3fvCBKk3y5UBbht+kw14xXYU8No4JeA748RCa3t318vyMC8NPv01Cf/3/OT2lR98/7zJSzgu/MM1lQDw/9gr9O78x4EMw0zN0xgQ8afkSfkYPZXk4LGMA5sqy5/7d/Ptt/HLMtYTydT4KEcVeoU08E/wKQ9Ei/LwXR+8Dw58fwrIHlxv20jlObz+G9Bn2kg7aa2QhW7ek3Ubp2ZphcRfnhV/PIar09Kbax7B3cX1zGQbrYW+NVqshcl8TrXecfJjqm3MZ6QC/ZdwnWFmrAjXDj6BH3qUYlveSkTxq8syvGHykA+DXqzcgERSAAtemAOB3bXcU7YECUKCXAoBfL5mQCApAgWtTAPC7tjuK9kABKNBLAcCvl0xIBAWgwLUpAPhd2x1Fe65bAf8Flyc7X3djz9u6+eEXJjrLqC4UvUXG7ZPx/DiyC1/X+fh6+xbz/KbsSLnJw+qcny6RLG3jKRQ80TlMpWhOqI1reP1KA86ziZFb7EoRGcxATXq289RCvjTowSg1agDPxDbY9cJDp8KMEq++TPPCj9fl6qguetla5rqN9vLseRr6asCkacBvys6nQGeLpnNxbS2Baf/IAQt83QmcHNRktJab2wioCD+ft7F6wy2dozwBsKJ8C75ktccE7Z8YPBNYdHIRgN8AiEyy4qIBt454fiG9SjfAbsDv5OckKSAsMQtnJfx4X0FSwImyURkOXD7dI0dy8WC7s6FNXQ0l+N09ROiG8gmsEaTBRLEzCo6ZCc20xvalCpIaznlY8pI0GVGFlrFxvD66ztcIRrQGl4IY2HxiCZtdz+vPJ8NesqsQU5CaTHWxDbTltcdWDrJR1CEkuvrdeT0/hlWAmR+q0nExnp8b7rrYfoBfLT0ywI+gZIevBBzv+RGE/JA28eACnKgVElAMSYbmEPh9Ms7LFIEOJChp3w59UxiOgl9GfFpva+EnIMLrc3VyeZ72A4QEVK0nJmIAUjoNV1mOrYPyC4DK4Apy35CNKx3i6ntBx1XBLxfPzw133xjncQJ+uZt4iXMMP4q6TCHnHwhmfphZBB7BL7yDkwELGH4uIjR5g0kZ1EAJNN/gmCYGQ7VhthppRfkTi0VwIa/NQsaHjHrKgPFQkl4Xe2wNgHm7CH4Bij4cVS/4cZ0+iguXAfiVb3gd8OPILSFIKXt7/JFDRIHx0V1ilOf2Dx08TMewt9wJxlxx4Hkwh7sH88mGn2f4EWhEkFPpdQnPj/Jv2FO0kV/YM3PlPOhQVg2gCSMvKQAAEyFJREFUpd7hw+7GHGjYTAC2kI3vH11kGS5/TGvLeRhWFCvv7Z0xLx/dEJRy0DCVIUTHEnhyX5bO5fG5MITmE6oce1p4jnQsy6B9CV8NUlHs6nYrgV/feH7w/GrpoRZ+5PXRezkdfl59aGAvsRx/L/XMCKb7nfiQQY3ugJ+1gX70yNdth7XJ1+QUflMNe+1Qkoa+FCuPwCfi7BG45Ls8gtDcnl8Onv36kPsgdc3BDeaFn33Xp7y44O0R2PhabqoLeXiAX7+OO0MqglH4qOC9vR15gTfNaCCUlkAkPD9rYQBaCj+bLkxp8Q+hGC7z113nffJHEW9DAK8/DvnOBD/1vo08uuDtiQ8edE56e3Jf3i3ptdF5CS/KI7248P5ugOdH+ft5f1pPaeV17M8LP/7gcYEthr3X0WHRimEKaMgm7wA7ikq9547EC7wM+C3wpsFkKNBXAYJd4i32mdbCH6bCa4O+tS0rHeC3rPsFa6EAFJhIAcBvIiFRDBSAAstSAPBb1v2CtVAACkykAOA3kZAoBgpAgWUpAPgt637BWigABSZSAPCbSEgUAwWgwLIUmB9+YaKzjssnl7LJSc7yvJsEPXRpGy1xwzy/qTtmc/KxC0/lorW4YAK0zE1MLuYpFDzxOJlKkU5K5onMLgCCWC4XJjGf1h677Eush82VJicY565f5JyfOM0rRS5iw5VUOi/8RsXzI/hJGPZby8trenkL+E3dYwl+cv1sLD8sZzNu/e2GgZWs8HDwTIAZYCivyXocICMYY51D9wC/oYpdX/p54ccrO3RIK71sjSC53Rrn4QF+dXY7CaXUQgk/t1RNhLpiECbx/DJl8ZI4G/oqQja3fG7UOl0RgkparycF81IwfT54XrS0bEwsPbH0LSxTI0O8XeR18uTkUBddV0vZpO3YH6ZAHfDrEc+PYGj/fNw/9uj6buH5DesY3amddxaHtzFElYRfAquG5+eHxMl5X3M4J8HoPD/2FtnGUfDjzGJrvUGxAqI47JXgVGt75fIxuZ/E0lMAS+r1UGTo0rWwVljYit3TFagKfrl4fhpub55tzTYEQ+g/BAb8Tu8saQkSSurKrvCOjoDG7/s2EZaNgAdUXAK/WN4UQ97U2nikYSePLaBkYAGGZAZkDKsS/BplUblcngRrNA17Z1CgDvgV4/ll4EZDYsDvDF1haJHt8HPemfMOA7AC0Py7wPDOMFNWbthL5+QHlKEmd6SXsKOk4dh7d+yN8dDUFtcCPw05zt/qzQF+HXdpusuVwK9vPD/35ffJq/c+snMGjvxeUW3h+U3XaVxJGWD5KhrDXoacgB9/xWUwUh7e52sRoPzOz38RDh9GvCXkaYp3iWNbKj01BpcFlocfv3sjKAZPrQV+AZ7aIFVechnwS+Q458G88AvTXDhunxzCluL5yfNbMwZ8NHQG/KbuRs6r63rn56Io+yFuAj8doDQtL77XU5ClMhimvklTvfOzHxP80JaGrhJeBEb+AGF/eIiHqS3wY4ByPtpK70+e56CniVc59S1DeYkC88JPeWP6fd45jwG/5L7jYAYFTomlN4N5q68C8Ft9F4AA51JAeovWy2Nv8VwVotxBCgB+g+RCYigABa5FAcDvWu4k2gEFoMAgBQC/QXIhMRSAAteiAOB3LXcS7YACUGCQAoDfILmQGApAgWtRAPC7ljuJdkABKDBIgfnhFyY6943n51ZxvH/1xAU22I6b6LyaeX52Cdg0Kx4G9SQkhgILU2Be+I2K53c0Fnwj1vPKSdOrgZ/tgPnoJwvrmzAXCpxVgXnhxys8BsXzo+Vt2kvsv6aXAbgu+LloynGJ2Fn7EAqHAotUoA74tcXz89fuKZSVjek3Lqrz2uBHcfRioIBF9k0YDQXOqkBV8MvG80uiOh/NkYfO7EX23K4NftRrbCBRFQTgrL0JhUOBBSlQB/za4vkJr9ANYccNg9cGP3h+C3oKYepFFKgEfm3x/Ah2YqgLz69XR5Ex9WQGG/4J3qCUBPsrVWBe+NkPHfzuzm/DV1wZt0/Ajoa1Sb5xHz/W5vmV4OeGwuLnJFfa8dFsKDAv/Hq+n+MvtFNu1wW/lqkudh4gR0bGAwAF1qsA4Hdt9744ydmHgMeQ99ruONozUgHAb6RwyAYFoMCyFQD8ln3/YD0UgAIjFQD8RgqHbFAACixbAcBv2fcP1kMBKDBSAcBvpHDIBgWgwLIVAPyWff9gPRSAAiMVmB9+YcKynqz83tx/wROgxSRnv7bXBTXw17+4N+8Hzhlcyzw/N4l5Y8KPid8ezCfqHPbHvsX5jf8hcbrG02M2fD3OA2yfLM3pN72CKLjVJTGPtZHsy809pHPW9vTHzDcbOUFbXxNtGvlA2GysB2t3SlnIW60C88KPl6ZZAKbwe/NMBCnNXA8TnqmMsCqkf2irNcGvLZqLhePuIe2Q9LDrcz5FG/xiPW4OYTxOi9dHORuonphfTtImwEUY27wBSuk1Xc+4Y6pbAnZcKchVvwLzwo+9tQbcVLAC7+09/0HDjbxD4RVyeT22gJ/rjDnwWM/vJPh57zFAqb3jZ20wBDIPnQTGCnDWg2UYqmu6Wu/tDotrSPDj8nWBOL4mBeqAH8HQD2Vt1OYv7g3F72vAr83r++m1Obx4YV7w3+G1+SiguCb4hSEvDWMV1LLg4WHewGFv9NR4WN0PGlkbOATX7qA8rxRwaV66lg6jE9CNgl9a3zU97GhLqkBV8MvG8wsAc+8EG0AM14/m4/cHD7+Def1T6jWuCX4JlNL77WL8KSBO4vklHpmqVB2mAJMXPcwS+xTgEu9yWlBZu8QQW1qG/etToA74tcXzY7jx+0I+zm7fmW/I8/vbOxPeEfp0gJ/rvFnwJMPMtJP3e+c3xbDX1dusrw1wbdfSdvQ/OkeZ/WtHyvkUqAR+bfH8yIPr9voYdh+/f23eZcAI+LlOdR74ETD6f2nN2uD7/KTwGzXsxTu/+fBz2ZrmhZ/90MHTWQbE8+vl9aXDXIYhb1cPPw8C+T4wvB/reOcn87jpJxwiP75vC2X16M/Twi/aQHYmdgB+Pe7GepPMC7+MR8ZwOvd2LfBbb1eequWY6jKVkrWXA/jVfocWZh8NWxNPMXyN7fcluIrmsiecfFypwjIYMaECgN+EYqIoKAAFlqMA4LecewVLoQAUmFABwG9CMVEUFIACy1EA8FvOvYKlUAAKTKgA4DehmCgKCkCB5SgA+C3nXsHSihX4+c6Yz26N+bliG2FaqsD88AsTndOQVryKw8XtSyO32GAHW54cnV7rOz8Q8/zSG3/qkZ2oHKaxyHBUxjSmu/CUET3RWq7h5ekloUw5NYbm3okpNL68Rj2Ul+s6oYEvb435/K6lgEdjPtul18fAb0yetFYcnaLAvPDjlRqNkFZueduTV+/dmlx5Xe7TJOm2yC4tk6gBv1O6STMvwS8GUHBwiseUnpa8qbh4BL8AJ7Ukrri+2INPglKZ07ZiRCXtdTgGfr0KVokAPyXIzIfzwo/hpIFmAxsIT5AAt+WQVhTrj/cVJLm8HlvAb9qelcIvF9igC37OQwzALMHPeovSC2y2owi/UcvbjHm7M+bpo6rngzGfb4z5jP+E5/eUz6lhL8GNPMjSdZPxIFWtODyjAnXAj2DYGs8vhrhvC2nVNgQG/KbtRQ34NSDVBT91vTTsLUFRNGdq+Imiwy4B7OUHf5iDFsExAz+C5VufLQvVUAN25lagKvjl4/k58LkhsfMCw/C4h8fHQAT8pu1ao+EX3umpIAQFyBXBJprTJ41IPnxXw04fU4kF+LW+OxxuCXJMqEAd8GuL58fvCRl0jSFzezQXwG/C3iKKasCP4BXe51FC5dnRKfHOzwJLBg4twM8GWk3KFUb4XcCvqQnOdCtQCfxa4vlp2GkYMhQ7tvD8ujvDkBQp/Ah0ypPrgJ+Do/hKXIKfLUekyxhZhN/Id36NKvz7Ph6+2nd44p2fTT+p5+f01D9B0LALJ05SYF74WZDxlJX+8fzSqS7iw0gH8Njroy3gd1I/aWR2nlucfiLj6DWmoLDnJjw/W6D0FmlfDIk30iv0AAzXuTxv1dnhZ9xHEP7Y8VYOez0Y+ZrdejDyB4+GeJ0n/Bdu1c7ObEgwSIF54TcAVhJcU+wDfoP6BRJfWAH7H0jL9J4Lm3cV1QN+V3Eb0YirUcAP1THkPf8dBfzOrzFqgAJQoEIFAL8KbwpMggJQ4PwKAH7n1xg1QAEoUKECgF+FNwUmQQEocH4FAL/za4waoAAUqFABwK/CmwKToAAUOL8C88MvTHTWk5Vj8ILtVsXs81FebKw/HwBh6Nw/zPObuDPxlAyemCzmpOkJ0HHZm1+5wHnkqpDiJGeVZ6KJv5OHk1KTnXk1CKlOK0IaUWImvh0obrgC88KPl6bpJWtHFapKXpf7x6Oh1R4IbDD8Rk+eI1mtkS5vI/iFUFVJxZSuEJ6qdXkb58nFDUwq6H0wNfzaIrYAfr1vy6wJ54Ufr/BQQDu2xfMjYD5744KcUn7KO8L7g+c3cb9K4JfG5jsf/IzJLWWzqyGGeoRyiRpL489RMFNerhY8uBbPjrJTnhDyisvz27ZrKikOZ1SgDvgJoNl1vF/cm/tnPoApe4senG+ebc0W8JuxixSqSuBHHl2M2tx/2Bvz2OgtYjgc1/ZKb9F5fnIdMVk3Cn65ZhH8RNw+uTaXvLcAQkrnY/eRx8eg5C3CWOXEre9cVfDLx/NzQ2L32x5b8/wVPL8qupF65yeBNL3nFwMo5IfTEymS8wapaA9FhpvdqsCl8O4mugczFlMH/Nri+fFQmbd6GMznO7YY9k7cq4Tn5zw9fi/nhqZ5SEkvTtnT552f/SgivEVVxMmHbfDTIaxUZYCfEmQBh5XAryWeXwI1iuSsvgQn18uBTQG/iXujgJ+OzTe958dgzf+Y0aTD3gLkaNhbeqdHygJ+E/evGYqbF372Q8fQeH4tU2B6gg/x/M7QkxL4pT9g1P7Oj0GmbGqd6iLy2OG2OJ76nV8Bfnroq9/rAX7qfi7gcF74DYDV0Hl8Xenh+S2gN8JEKDCjAoDfjGKjKigABepRAPCr517AEigABWZUAPCbUWxUBQWgQD0KAH713AtYAgWgwIwKAH4zio2qoAAUqEcBwK+eewFLoAAUmFEBwG9GsVEVFIAC9SgwP/zCRGcdzy+u4W2ErAp5xgU1WNUkZ54sPDTKST19EpZAgVkUmBd+HKHFwkzCz63ieP6DiutnJ0WnS9ps1BcZ4qrnxOl1TXLORz+ZpUehEiiwEAXmhR+DqgG/uCaXQlYlnp8KZGBDWm0lOGPetlUe64KfC/MkI60spD/CTCgwmwLVwy9Gbnbe4ZNX9+Y54NfZQcrBBTqzIgEUWIUCC4HfG3P/hQ9uqqM+szfZsV2b50e9V4eaWkWPRiOhQE8FqoffkYa9WwafD2MPz6/z9sLz65QICVauQP3wU56efeeHDx6d3ZZi3OXe+dnYd6UfEeosFQmgwPUoMC/85JSVrY/r50HmPmTIWH8iaKn3/vDTlf07Xgl+bih8xmjI/U1ESihwUQXmhV/He7m2r7WnXlvXO7+WqS52HmAaDPSiPRCVQ4ELKQD4XUj4s1VbnOTsQ8BjyHs26VHwshQA/JZ1v2AtFIACEykA+E0kJIqBAlBgWQoAfsu6X7AWCkCBiRQA/CYSEsVAASiwLAUAv2XdL1gLBaDARAoAfhMJiWKgABRYlgLzwy9MdG5GZuGJzklUFzs3kMJa0QRoMfF54JzBdczzezB7NZUlTHa2P/a9MZtN/MutAJHd102IjuldXpojSPXoFSR0zk2edqtIYr6bu0++WJdviA3SnvI+l4vJ22WNcEUrMC/8xsTzC+Gv0rh+Qyc9rx5+/s5boO0edD9oP6a5gzo4qjonyw3ApVItdBlKBKnpJ1hT3RGw7U3BVSjACswLP/bWAtCasfjI+2t6fpQO8OObVt424ZKAiCO9TAE/42IGOuik9aZ1ytUmabpmO+j6ZjDICH5dXmyzLpxZuwLXA7+fXpvDixfmBf8dXpuPDNvj0cDzc11demi9O7/y8kI+69XtzUF5Xgn8fBrnazq4lYe94+CX1BeMww4UaFfgeuB3PJqP3x88/A7m9U+pVwn4uY4wKfy897dRQ1mCUQQcD3mp/i7Pr72zNq7695jw+hrK4EQPBa4KfsfjO/MNeX5/e2f0O0HAz/WGqeFnyCtUw+iyJzYx/HwHL9fX4wlAktUqcGXwI+/vtXknhrsMwXXAT75f448N6QeGuuE3bthLbYL3t1qGjW74vPAL01xE3L7OeH48zUXk+eLevM8AjkGX264Dfgy8OOwMUPBDxDgc1VNVWvpQ6Z0fZRns+UXbyJZgn60e8Gu5C7g0sQLzwm8gsHIQG3tuNfCbuIMsoTjy/DDVZQl3qi4bAb+67sfs1thhsJj4HD1D+aFidrMGVug8xo2fZD0wM5KvVAHAb6U3Hs2GAmtXAPBbew9A+6HAShXY/Nd//ZfBHzRAH0AfWFsf2KwU+mg2FIACK1cA8Ft5B0DzocBaFfj/9qbpzUI9hSsAAAAASUVORK5CYII=;" vertex="1" parent="1">
          <mxGeometry x="49.650000000000006" y="750" width="288.58" height="370" as="geometry" />
        </mxCell>
        <mxCell id="byrFbOCBDsxeEp1RwZBV-20" style="edgeStyle=orthogonalEdgeStyle;rounded=0;orthogonalLoop=1;jettySize=auto;html=1;entryX=0.992;entryY=0.365;entryDx=0;entryDy=0;entryPerimeter=0;" edge="1" parent="1" source="byrFbOCBDsxeEp1RwZBV-18" target="byrFbOCBDsxeEp1RwZBV-19">
          <mxGeometry relative="1" as="geometry" />
        </mxCell>
        <mxCell id="byrFbOCBDsxeEp1RwZBV-22" value="Integration with &amp;lt;iframe&amp;gt;&lt;div&gt;new html and add new&lt;/div&gt;" style="whiteSpace=wrap;html=1;aspect=fixed;" vertex="1" parent="1">
          <mxGeometry x="600" y="960" width="80" height="80" as="geometry" />
        </mxCell>
        <mxCell id="byrFbOCBDsxeEp1RwZBV-24" value="" style="shape=image;verticalLabelPosition=bottom;labelBackgroundColor=default;verticalAlign=top;aspect=fixed;imageAspect=0;image=data:image/png,iVBORw0KGgoAAAANSUhEUgAAAtIAAAFhCAYAAABd3E3sAAAgAElEQVR4Ae2dT6gkx5ng21Kru9VSwRhGFzFIHjCCwTBIDPgyJ418GhjDMNCymNNcLIHBCHRw9wMhsYj2aS4LAg0MWp6e0cKaORlWB19e+zLgm+XLa/YgvKdhT7Wn2Vusv4j4Ir+IjPxbWe9VVv0ErapXmRkR+cUvI38R9b18tzabjeMfMYABGIABGIABGIABGICB8Qz8+Z//ubtFwMYHjFgRKxiAARiAARiAARiAAWEAkWY1nm8jYAAGYAAGYAAGYAAGZjCASM8IGrNQZqEwAAMwAAMwAAMwAAOINCLNDBQGYAAGYAAGYAAGYGAGA4j0jKAxA2UGCgMwAAMwAAMwAAMwgEgj0sxAYQAGYAAGYAAGYAAGZjCASM8IGjNQZqAwAAMwAAMwAAMwAAOINCLNDBQGYAAGYAAGYAAGYGAGA4j0jKAxA2UGCgMwAAMwAAMwAAMwgEgj0sxAYQAGYAAGYAAGYAAGZjCASM8IGjNQZqAwAAMwAAMwAAMwAAOINCLNDBQGYAAGYAAGYAAGYGAGA3sV6R///HP3+aeP3A+LhvnPP//cfa7/KvtsNj92P9ftn3/uPn30w3YHv/vzpgy7z989cp+aY1M9+tl//x9h+89/3Crzh48+dZ9//ql79Hcb12qnPz5sk1lo2Nech5Yfjx81U/2Lf3Hf/fTf3J8WMRp17Nhj3vo395ef/r759/5Z67wXrW9su9iPfoABGIABGIABGFgxAzcn0kZig7D+3P04BTJI9M/f1a8Mws9Wpq3wBgls72M/b8qKZXrZbqTY7xsFXPf17TLtlH1CvaGt/n11EqDtHvE6UqT/5B//3f3lJ//i/iTFaETZlX3/9P3fu79EpBm0KmyE62UeVxxL3GAABmAABk6RgWVEWlaGK0JZE1EJcu1z+5l9nzrFrz6rbJeiHeHN9lGgO/bVdph2l/WWP4e2NOUdj0j/0D36tJhUIFrINgzAAAzAAAzAAAz0MrCTSIfV2Xr6hkin316s6HaJ9CZJsEhdLZVDBDbKXtpXZbnvtRHfJOUJirDNr3RXyrxWkbbpF2bl2a8g27SM9P7f3ct/Ied95l799Pfuu5/8e0jdeP/MpWMqK8/dK9Ih7pIGY1f+2zHrizXbiBcMwAAMwAAMwMDpMDBLpL1gSj5wRZItPJNEOqVadIlv8/m0leDmONu29N4LdMhzLgWyJtJh8mBSO1JedJMrrakhqY4k7hWwfGqHTbf4B/fyJ7933/3Hf8hmQN2pHVGk/f7h/atvbdymI2WkW6S1bY1QD/XvqPPrO3e2ZX1MPJVBXmEBBmAABmBgHQxMF2kRzwGB1s5fhUhvojiaFA9tf5owZLKs6SVxxb1ynB4/6tULr64uB2i8NBeryUMi7eXZr07HsirlSnuGRboBV85/0qQAMUaMYQAGYAAGYAAGToiB6SKtucVLr0in1IrrTO0I0lhbeRbp7PpcBXnayngjqHq8f62sHN+sSLMinfXPCQ0GnHfHNQoDSAEMwAAMwEAHA7NEWm+4Ic2hO0da9ytfa4JqP7Pv07FJtOVm15Guke2jN8WOfU1AqvWdnEg3As0qtLLDa7r+zPXCZ3ABAzAAAzAAA4GBnUQ6BVEEtpXiMJAyYdJDvMh+3qRMtEU5yLDNYQ4Sb540ER9dZ/cJ7TsOkd74X0asPW/a5EXPTu2QvjKxRJqYecMADMAADMAADMDAIAPLiHQ10AMibfOOWxIulh8EWP+YSluQNy486WPol/z2LNL2PNL7CVI6MrVDJgXpaRz+yR2aVz1CpO0TQdJTP8IfaAm51cys06SwyjLxIT4wAAMwAAMwAANtBvYo0u3K6ABiAgMwAAMwAAMwAAMwcCwMINKsQA5+bXEssHMeDNwwAAMwAAMwAANLMoBII9KINAzAAAzAAAzAAAzAwAwGEOkZQVtyJkNZzIxhAAZgAAZgAAZgYJ0MINKINDNQGIABGIABGIABGICBGQwg0jOCxqxxnbNG+o1+gwEYgAEYgAEYWJIBRBqRZgYKAzAAAzAAAzAAAzAwgwFEekbQlpzJUBYzYxiAARiAARiAARhYJwOINCLNDBQGYAAGYAAGYAAGYGAGA4j0jKAxa1znrJF+o99gAAZgAAZgAAaWZACRRqSZgcIADMAADMAADMAADMxgAJGeEbQlZzKUxcwYBmAABmAABmAABtbJACKNSDMDhQEYgAEYgAEYgAEYmMEAIj0jaMwa1zlrpN/oNxiAARiAARiAgSUZWFakH166rbty5/uU04srl/339Hz6DOqlB+6b1x81/77z+vQy9nmOpuwXf/oTd+vLd9z9zcbd/+RDd+uzt9yLZvsiMHz/LXf7yw/d3Qcbt3nwjrv15U/cve9zoS0S26X7ivIO9lqFF8YMGIABGDg9Bm5EpM+ebJ3bXrqzHaXg/Klzbo5Im3o//s4j980Bi3QQ2yDSXqo/eWMPIvGGu6si7aU61MeAcHoDAn1On8MADMAADMDAeAZ2FOkzd7l17uoiVjhyRRqRHt9BGxHbuAq9P5F+1d37LK5Ct0Ra+njrLh9OaLOZqHAxEjcYgAEYgAEYgIFjZWCmSJ87TbBIEi3ypCJt0y/MyrNfQc7yMvQHFbVQ7na7DRuenrt0TGXleb8r0q+7r2z6x2tvuretIEp6yGtvuo9ffq87RcSmkOi+Wo6NkYZBX+25GpGW1enbP321tSLtUz6+/NDd8v+K1WRJ1fjsLXffp4jEfVqr2kakN2+4u630kTBhkuZtn5y16j/Wi4PzYuCHARiAARiAARjoY2CaSHtR9jpVX6HU7UkEg4CV8tW9Ih1F2staeO9FXQXdiuxmEyQ71TWvo6upHd9+0339+iP39cuvRGkMUt38vHGbKMnNZ2Gfr16K7fDb33NffDv+HMsU+c6EvDinvs6qbSvzpv2qtRVhn/P8oRFwk8Yxue5GqHdNqamdC5/NY5i4ETcYgAEYgAEYuBkGJoj0iK/4vfDq6nI4IS/NhewOiXRY5RaRjmVVyhVg9rsinXdIS7i9KD9wHxsZlX1UrFv7bzbOf7akSPs0jPIXA0WUzWdepPNVapHv2sr2lItQYp99G2HiMKUc9s05Ix7EAwZgAAZgAAbWw8AEkdbUjaEV6fypHWsW6bdt2oakedhfShSRLqS4EelX3BevNVKtF4QvT48Zm9rRJ6hxtTmkdGhqR3j1T+CQY2Nqh33Sx3yRZkVa+5LX9Qxy9BV9BQMwAAMwsC8Gpol0krqQdiFKna1KVlIwVinSrdSOuJo8WqQr++9tRTpfbW6BsohINwKd9XfigQu0FXdiQy49DMAADMAADBw9AzNFWsUpCFaSq5EivfGrsfnKdRARkxe9ucHUjlbaRvzFwwkiHXKo950jLb8k+KG7ZX95MK5SL7ciPSKlh4Hi6AcKJgo65vEKCzAAAzAAAw0DO4p0U5AP6liR1vxmWdL2/2le9QiR7kmJSEI/JHZelM0fZDFP59BfFvT5zOnzB+7jeIzmQHtR1jSNWF+T2hHjYuspn9ox1MYJ28c8tWOZ1I6ivye0kYuO2MEADMAADMAADBwbA8uKNGIVVybrOdJezu2qNvFiJRcGYAAGYAAGYAAGVssAIr0neMMvKrZTO3TF+9hmZJwPqwwwAAMwAAMwAAOnxgAivSeRFpDKp34g0QwwpzbAcL4wDwMwAAMwcMwMINJ7FOljBodzY2CEARiAARiAARg4dQYQaUR6tXlJp37xcv7cwGAABmAABmDgZhlApBFpRBoGYAAGYAAGYAAGYGAGA4j0jKAx+7vZ2R/xJ/4wAAMwAAMwAAOHwAAijUgzA4UBGIABGIABGIABGJjBACI9I2iHMAOiDczEYQAGYAAGYAAGYOBmGUCkEWlmoDAAAzAAAzAAAzAAAzMYQKRnBI3Z383O/og/8YcBGIABGIABGDgEBhBpRJoZKAzAAAzAAAzAAAzAwAwGEOkZQTuEGRBtYCYOAzAAAzAAAzAAAzfLACKNSDMDhQEYgAEYgAEYgAEYmMHAsiL98NJt3ZU7n9GQXWZUZ0+2zm0v3dk117tLmzn2ZmeQxJ/4wwAMwAAMwAAM7MoAIo18MwOFARiAARiAARiAARiYwcCOIn3mLrfOXV3EGc1BrEhLm7bu8iGzrF1nWRwPQzAAAzAAAzAAAzDQzcBMkT53Vy78lyRaLF5F+kK3umrKxfnTeLB/aaeC+FQNs0tWh9Rjy3dX7rKV2hEEX4rYPjljhjVjhsVF033REBtiAwMwAAMwAAMwIAxME2kvyl5P6yu+uv3peZTXILRWZr1Em3zmMr85SHYj10Gqm59VopNca52mzAbuRqhdahMd38SHWBALGIABGIABGIABGJjLwASRHpEy4aU2T6vwIqwSW9m+2cjqdn5MdjLFMV60tby40lrKeHZ83EeOS/LNCi2r9DAAAzAAAzAAAzAAAzsyMEGkNXVjaEXarB5vNi4T6Swlw+RuuFJym9SRsJeKdnuFW6S5W6RZka5NKviMmTcMwAAMwAAMwAAM7M7ANJFO1t6IbrbK61ePe0S6sr3sxDK1I+Rdq0hv3LgV6Uags/al9u8euLLd/ExMYQAGYAAGYAAGYOC0GJgp0hqkIKxJViuinK1Ib6Lg2tSMuEodygjbbU61P96mfmT7m1XylCMtZTTiDdDaV7zCAgzAAAzAAAzAAAwsycCOIl10xqBIh/3DqrOmduQr2GEFWrfJUzfO/SP2nP1DL1mKSO2pHUW7WIkmBwoGYAAGYAAGYAAGYGBhBpYV6YUbt+SMgbKYXMAADMAADMAADMAADCzJACKN/DM7hQEYgAEYgAEYgAEYmMEAIj0jaEvOZCiLmTEMwAAMwAAMwAAMrJMBRBqRZgYKAzAAAzAAAzAAAzAwgwFEekbQmDWuc9ZIv9FvMAADMAADMAADSzKASCPSzEBhAAZgAAZgAAZgAAZmMIBIzwjakjMZymJmDAMwAAMwAAMwAAPrZACRRqSZgcIADMAADMAADMAADMxgAJGeETRmjeucNdJv9BsMwAAMwAAMwMCSDCDSiDQzUBiAARiAARiAARiAgRkMINIzgrbkTIaymBnDAAzAAAzAAAzAwDoZQKQRaWagMAADMAADMAADMAADMxhApGcEjVnjOmeN9Bv9BgMwAAMwAAMwsCQDiDQizQwUBmAABmAABmAABmBgBgOI9IygLTmT6S3r22+6r19/4D4+5DYu2Lb7n3zobn32lntx86q799mH7tYnbzQX9YN33K0v33H3s/recHe//NDd/umrzh/75YfuVvXfT9y972/cxpdR2yduz8runrG/+NOfZPVI/Vk/fv8td/vLD93dB1rntPKzska2iWO6+4vYEBsYgAEYgIF9MYBI94jK2ZOtc9tLd9azz746xpe7KpF+xX3x2iP39cuv5FI5IXZeUL1Ib7wYZ4I6INK2H2w59vMg0qWMTxtcgkTbMoL0Z23dBMH3Iu2l2u4/rb6s/RNiyXHEGQZgAAZgAAb2z8BxiPTF1V6EF5GeAuDuIu1FN65CywpzJqcHItKtdm02zsu1XT33K+pxFbol0mfucrt1lw+nxJZ9uRnAAAzAAAzAwCEysGqR9qLrXC7RItVu67Zb2eDc1cW5k0/Cewth87nf+PQ8raSePw37t/+fC1CqP+54dWHLH/f+7Zffc9+8/ij9y1Z0dUX6pQdp+zevvenezlYmX3dfmePz7UFutXwp++PvaF3vuS++rW0syvDl5SkleTuHjo11xLaWcbJx3T45S3G3Ii1y6ld09VwPRKTbq9q1FWn5TNM53nB34yp7MwCITIcoZOev58prwwSxIBYwAAMwAAMHzMAqRTqJrpHfJClRpP2Kn39/5c43G+dlLu0fJLqRmCA2zc9BMP0xHakdoQ2hbKk7yGLzc2pPT+cHObXCWqzqepF+5L75zuvxIqpvb+Q7CHHzs4pyI9RfvaSf6WtRpm/v6+7jl15xb0fRbrXTi71tt5RVK0frWOD1UERa4hNzoEM+tgrznHNshNolNueUwzFjrjf2gRMYgAEYgIGlGVifSIsc90mHkeeNvI8ibKXYvk8BNfvqZ9X9usT44aWsg0/4yj5Ib1tsDeRepO3q78Z5qU1ibfaN7fIrzq3tfZLbJd9adq2doby87X11aFk7vC4m0u1fNsxSSPQXHdMvLeb5zc0vROq5VH4xsouRns9lYjbnGw1llVftD15hAQZgAAZg4PoYWJ9IbzZueEU6rgwbObZSnI63OQb+fb6ibI+pQ1mkh0wR6Yokt+rQ1A4jYDWRDivGmrJhV7AVpAHJ1ZXvlCJi5L21raknX/nursPHsRXriakNi4l0LsatmJtYt7b5lejKCnTX531l+W2sSLdiPBgzZZpXYgcDMAADMHDzDKxSpBWcJGg2/WLsinTfqna8mfeJdJnasVloRVqkOAnqkEhHyU37bzYhB3rSivTGffySpo5EIH3qhsq0rEjr+z5gu0Va+2un16qsmqdjGAHb21M7qm1oUj2ynG7TnvZ5NwLNKnQfU2xrs0NMiAkMwAAMHBIDqxbpFEiz8uzTOVz/inSQ3vyr9JYYiwhZKc/EqJ1THaR+SmpHTNOwz4n2YmykdUikW7nKIQ2jyanWi61bctNqtpXvoh0+XcT+kmNF4KUv6mkl2oZdX9spFOHZ0e0V5r2JtKZ9ZL88GNuVfdZ3rsLONE4S5xmDfXWwjZjBAAzAAAzAwHUwcBwibQXDyq8R7PbqcpGW0bFCnaeBGAHyK9BNvsL2yXl8EkOeHjLUiUlkfVqFkWg5pyGRVnlNKRkP3MfxCR9hlToItD61o3kt6tlEAU/llNtV+jWto709nGdRjpVv20ez30dp7chf1ljvT6TDoBQE3uRaj5ZoBjXtI15hAQZgAAZg4BgYOD6Rni1pAH0MQHMOcAwDMAADMAADMHBdDCDSiDfPp4QBGIABGIABGIABGJjBACI9I2jXNcuhHmbUMAADMAADMAADMHC4DCDSiDQzUBiAARiAARiAARiAgRkMINIzgsbM8HBnhvQNfQMDMAADMAADMHBdDCDSiDQzUBiAARiAARiAARiAgRkMINIzgnZdsxzqYUYNAzAAAzAAAzAAA4fLACKNSDMDhQEYgAEYgAEYgAEYmMEAIj0jaMwMD3dmSN/QNzAAAzAAAzAAA9fFACKNSDMDhQEYgAEYgAEYgAEYmMEAIj0jaNc1y6EeZtQwAAMwAAMwAAMwcLgMINKINDNQGIABGIABGIABGICBGQwg0jOCxszwcGeG9A19AwMwAAMwAAMwcF0MINKINDNQGIABGIABGIABGICBGQycvEifP3XOPT2fDM/Zk62z/22fnE0uY2i25Nvmtu7yoc4sz9ylr9Z+ptuGXsOx+2hnGQuNy9XFUJtufruP8fbSnU2+eObGU/tQozSnL28+bkPssp0+ggEYgAEYOAUGjlekL66cc1fufLIgNeB7QRyUrLlC1dTTBVoQaeca+T13clYuk+vhcrrKX+rzapx8/A9cEh9eum0lltXzmcjRqDI66l+qXyjn5q8N+oA+gAEYgIHjZuA4RFqkrRTegxdpEfB+0RSR3m63zYq5iNdW1K//uOu+aOvSuL8JxvjzC23oWhn3E5XKtxH185k2EIwqY7ZIy4Rqt0ni+BhOO2/KJV4wAAMwAAOnxMCqRdrLil+gbb6aT5/pN+fmNQmVl2yzoZApXQk2e8S3NYHtE0ZdQY6HF/VsNuFY2dqsOjcXoBfpp1duGycJcm7bJ5fuKhPpoo5iQlHGo1WPl7krd25jUpQxdEH4OlrHlHHpb6fUkbX16blri25RRiueGrtmv9TnrRXlsI/dPqbfszZW+m1MGSmevSLdnIOnp3WuzXZ7Dqns1vlqbHglRjAAAzAAAzCwFAOrFOkkKy25MGCMXJFuy1pTRl0Qm+2hE0ph1O1BdBpx7dpP9m+E2uZrS9usOMvPVxdSbhR6L2JWwss6tS1NHU174rZYRlNvXzttec37apx8/Me3MwiqWWVVsU99XJ5bpZ16LhqfHpmstjnu37etufAq9Zv6RpXRKdIjzjXVFfbtmow17W36i8+IBQzAAAzAAAwsw8D6RFoEK8lVTxBuWKSrIiVtaq3c5ucQZDl8FkT6zK/MXl2IuImYijjVVsabY+rx6RC/isz5to+JsRXPuOjevHS3US5eObemnbW2hc90n+F4anzyeNYHiiCfXSu51bqSuGr5tTbrtri6PtDXm0rspb3V+gfZmXL+TTvr8WE7cYEBGIABGICBMQysT6RVwsTY+mTvhkXai2JjleadWXVNchalsTgnFWkRq21K8WiLtBcvU0M9Lh3i52Uub5Mvry+2qd3hIquKX7GPwNjdzrrYWtkeFU9/LhKIfonfDLAx7nw64hnPe1QZHSI96lxTfEPs/Fnv4ckxYwYR9uFmAwMwAAMwcKoMrFKktbOSmNVW/gZkScuwsqaf6esoGYppGWXKhD92UEYbga6tjkrbfLkqiL48I9Lxc1t39/l0iJ8vY88iPdjOWttibGIMx8VTB7JGLttxrdWlx4XXXfp9Ejs+Lm3pH3eueo7t47UNvOb9SjyIBwzAAAzAwNIMrFqkUzBqX3t3SEo6Jq7odYvnxg2tXIayOsQsyqMVOV9XetqCHNcvQUmkN0GagjAbkW5NFqJcVQW+r517FukR7fTymGKjsTffOgzGszY4hHO2fTCqT1vt7S7bTmIytsaU0cXo4LlKP+d9ltWdVqtr7eYzYgUDMAADMAADSzFwHCLdIQ5BzpqchyRUXnKaz+27tI8V7bRDI75l2WmXLK0giq1urApuN8yNSFvpNiJt01x8Hc3TN1TwBtvppS2XMn/MhLb6/WvfCph+CZMIDUS7nQJ01tadntrRH9N66kt+TN7eqf0eyqqXEeReI5G9ZjHcjZ2lBgjKybkgHsQDBmAABmDAMnDUIm1PlPeHDH6QxnwS07GCbuR8cp/6CVQjxZOP36Vujl38L3/Sf4d8TdM2+IQBGDgNBhBpBOcgBCes3pqVcaT3IPqFG8Fp3AjoZ/oZBmAABuYxgEgj0gcjbPVUiHlgMyAQNxiAARiAARiAgX0zgEgj0gcj0vuGnfIZUGEABmAABmAABpZkAJFGpBFpGIABGIABGIABGICBGQwg0jOCtuRMhrKYGcMADMAADMAADMDAOhlApBFpZqAwAAMwAAMwAAMwAAMzGECkZwSNWeM6Z430G/0GAzAAAzAAAzCwJAOINCLNDBQGYAAGYAAGYAAGYGAGA4j0jKAtOZOhLGbGMAADMAADMAADMLBOBhBpRJoZKAzAAAzAAAzAAAzAwAwGEOkZQWPWuM5ZI/1Gv8EADMAADMAADCzJACKNSDMDhQEYgAEYgAEYgAEYmMEAIj0jaEvOZCiLmTEMwAAMwAAMwAAMrJOBvYv0+VPn3PbSnXlhPXOXW+euLq47WOfuyt1Evdd9ntTHQAQDMAADMAADMAAD18XAfkX64aXbuq27fKgdikhfV8dSjzLHKyzAAAzAAAzAAAzsh4EdRbpfjP1q9NNzk3PTv//+OrlYkb64ci5r136Cu7/zob3EFgZgAAZgAAZgAAZumoGZIh3E1PWmSxTymqV2NMe7bMU6AuFXsqX08N/2yZmR8Y3biAib/1rbN0HYdZftk8t2akcq48qdkyedx5d4EA8YgAEYgAEYgAEYGGRgmkgnwbXpGvXZ0NmTrcmN1n1UcBt5be0X62jyqHMh9/tb+fZCbNsT60h52RvnV8a7pD8JtS1D28vrTc/0qB8GYQAGYAAGYAAGDpWBCSItgjpWNnP5bU4+SG62guzFuRHrdjrIxnl57kzFKOry5ZXtLPapzbDkOCPfTZuBl1jAAAzAAAzAAAzAAAy0GZgg0hu3iavF1XQMK6d+lbeR4ybwQaSb1WYtU/eNq8mak2FfM8lt75fKrNbdI9KsSA9+bdH0XxsgthETGIABGIABGICBU2VgmkgnWQ5iKp6bBDZtq6w6F9uyYyor0tmKdTo2QNpK7dgUkjx2RVoFOhN0LoRTvRA4b9iHARiAARiAARiYysBMkdZAV1aYqyvCPfsXIh1+kdCmZsTV5yi8rdSPKMSNnOf7S0BaOdJyTGeqiLaV16kwsT/MwAAMwAAMwAAMnBIDO4p0G5aW6GYryhXxLkVa9vefNXkd+Qp1sxru93h6HkW5It+xiOpTO7J2tc/jlCDgXOl/GIABGIABGIABGJjOwLIi7VeHrdBObxCdSMxgAAZgAAZgAAZgAAbWwMCyIs0qL7+4BwMwAAMwAAMwAAMwcCIMINIn0tFrmNXRRlYfYAAGYAAGYAAG1sQAIo1IM2uGARiAARiAARiAARiYwQAiPSNoa5op0VZm9jAAAzAAAzAAAzCwHwYQaUSaGSgMwAAMwAAMwAAMwMAMBhDpGUFjVrefWR1xJa4wAAMwAAMwAANrYgCRRqSZgcIADMAADMAADMAADMxgAJGeEbQ1zZRoKzN7GIABGIABGIABGNgPA4g0Is0MFAZgAAZgAAZgAAZgYAYDiPSMoDGr28+sjrgSVxiAARiAARiAgTUxgEgj0sxAYQAGYAAGYAAGYAAGZjCASM8I2ppmSrSVmT0MwAAMwAAMwAAM7IcBRBqRZgYKAzAAAzAAAzAAAzAwg4FlRfriyjl35c5nNKRvpnT+1Dn39JwOXjiufTFn235mrsSVuMIADMAADMDA8TCASCOnTFBgAAZgAAZgAAZgAAZmMLCjSJ+5y61zVxdxZnEQK9LSpq27fHg8sx1mrvQlDMAADMAADMAADBweAzNF+txJEof8lyRaLD6K9OWTbdzqnNteurPM8IN8Nzu0U0HOiuMvU2pHrLdM83h46aTGpi1NHdsnZ8ywsvgfHoQMDPQJDMAADMAADMDAGhmYJtJRWJ3rWPH1Iu1cI69RaJP4lj9vnM9/NnnVQaJN+bHMlCNdWfX2x6Q6LIiNUKfjkUomFkl9M1kAACAASURBVDAAAzAAAzAAAzAAAwswMEGkRUqN4NYqr0iurlL7X0D0Il6WEVaZw2pyEN9GxIMU579sWO5jj7cSnb+XMpoV63zbGmdAtJk+hAEYgAEYgAEYgIGbZWCCSG/cZsyKdJnKYeW5JtobK8Z1Kc5FeuP8CnSsx75vwxTK9mkk1RXrmw1+u720h5jAAAzAAAzAAAzAwFoYmCbSaRU65ipneclNjnT2+Dsrz1aqi7LGr0gLXCrcVsItdI1Aswpt48L7tVyYtBNWYQAGYAAGYODwGZgp0npiQViTrHpp3nOOdBTwkEvtf92xeG61tKlMH9H28spFCQMwAAMwAAMwAAMwsAwDO4p00Yi4+ry/p3aY+jTNhJQNflkgfbth+OAzuIABGIABGIABGNgzA8uK9J4bm82eqmkiiFQWo+vsD+pisIIBGIABGIABGDgxBlYr0v2/ZIhQI9QwAAMwAAMwAAMwAAP7ZWB9Iq0pHV3Psj6xmRAXyH4vEOJLfGEABmAABmAABroYWJ9II8p8bQQDMAADMAADMAADMHAADCDSB9AJXbMcPmcGDAMwAAMwAAMwAAOHywAijUgzo4UBGIABGIABGIABGJjBACI9I2jMDA93Zkjf0DcwAAMwAAMwAAPXxQAijUgzA4UBGIABGIABGIABGJjBACI9I2jXNcuhHmbUMAADMAADMAADMHC4DCDSiDQzUBiAARiAARiAARiAgRkMINIzgsbM8HBnhvQNfQMDMAADMAADMHBdDCDSiDQzUBiAARiAARiAARiAgRkMINIzgnZdsxzqYUYNAzAAAzAAAzAAA4fLACKNSDMDhQEYgAEYgAEYgAEYmMHAUYr0+VPntk/OxgFxceXc9tKdTQrembvcOufclTtPx527K/ko+2zkDOrhpdu6rbt8OHL/VOfw/hKL9n/7qWvZGXOM8dPz2I/h56uL4XPebKbsO6Y89lm2b4kn8YQBGIABGDgOBk5epL1ozhZp55LYeRmeKdITxHjqhefPL8logPbsicwC7CTgAGGWCU7WxglyHPsi9c0e4zu1P9j/AFmDj3GLDsSJOMEADMBAi4HjEOliVXlwRTpJb1yrbYm0rC73iWaQuu1226x8+zbIunLfcdcvETWR3mzC6vnNiqa0oWtlPMY3+1ZhWKT9uZrl99b5SR8VkwrE9vqZJObEHAZgAAZg4FgYWLVIh5VV10rNCCJ9HtMvglm1pCrOqnwZLZEWwDVVw6w6p5lYlLqnjZhJnVdPJEXDinRThm9FVk8oo/G+ilR64b9y5351Nu6ZlTF8IY4T6b52Sh15W68uwv55TIsyuoQ1TWIq56vx9fuU21WkbT3lPhqPWvvithRL2096HK/HMrBxHrAMAzfPgLt1y10+/3xrBW/JvrmOOpZsL2XdPJdL98EqRTqtPHbIWthuJMvLU12cukVaO7sRtybvOkpdEmf5eesuL4xIR2FsjgnlND9r+Ru3qYqjfu7MKmqot1qGSmjxWhPpLLVjsJ2hTruSq/FvRLo8t0o7Jwhsrc2NzDf92N13PSKt8UntMZzoNl73euNbehCjPDOWwO7RsvvR3bvuN88+696/d28153gdknsddTDGMMb0MbA+kRYB6hBoPdG2iIlY1YWpW8ZKcKIs+18IDKJ4daGfSflX7txLaSN62h59bbcr1tEr0nm7fXsHzl/rk1eV3mblW951tzEdo3XU2hblW0W6GkPpp7R6HuMz5iZfq88fV5Fzv2/tXEaItLZFykjtLPucny1LvIcHGLh+Bv72/n339JlnnAij/PvPW7eOSqTlnP7n/fuzzwmRvn4mGQfymK9PpK0cquypFMVXkcd81XYXkQ5SJvrZlKkiHUT1SlM8KmLnJdNabK3NXfLYVV6tjCIGCnqnvBf7d7bTr9yWspqLal3WC2FPK8BlWTmQVSn3bW1irucWVvJr5eXtS/vbc07tyScq1X3tcbyffcMjtjnrxIN49DHw3RdfdL+8fTsJtIr0r27fXs01OEZyx+zTF6ddj+8rm21co2MYWKVI64kl+StWFJcRaRXommgZqYtC5iXbiq9/b+U7rg7XJPgmRXqonbW2xWOyFenaedWkMx7rqt8Q9AmwibmW68uaKNIq0AUzyhSvDJwwAAM3ycBLm42TNI7tt76VSbT8LJ9PbZuI5m+ff97977t3fXn/97nn3H954YWsHNn+/5591m//X6YOeW9/luOkvP9qjteya+3Sur++d69at2y3/6QMPUbbK6/vv/hiZ/tl/33nYdfOjc8YJ5SBVYu0nsRG5MiI0e4iLUJXEzQFx0idlUordl7YbBlRzGvC6Y+rCLstL8qjnzzUylC5LF4HV6QH2xnO1abT6Aq0inRYGc5/KTPsY89fY6evEo/8nLtXo+UYE3M9x0p8AhMdQi7nOiF2iS+tj9fs5kt8lGVeYWEZBv7++eezNA6VTFmZlhXqOXGWMkSSVX5FpP/PnTupLJFQ+UxkVcqX9yK+8v6X9+/7Y7VeScEQsRV51s+krK7UjKG6pYxShPUYkXZps/7c1f7yeG0Xr8swSRyH43gcIl0IzqBIewGz+Rb6Phe7boCs1BnpLsROhTOU3jx9I6SIREHVqu2rTgqK8qQ9i4u0TZXxbSjbKRDlbd3pqR1FXzUxDnU06TMlvDbmcVsRnzzeJqDIc7rpNfEu48vPxAYGbooBkWRJ2RAptP8kN1pypHdpl5RnxVfEWT7TMkWc7Yqurk7rdtlXJVYkWt6riIt8y3aVcD1GX4fqlv1kH1t/eUz5c9n+8nitm1eu5+ti4ChF+rqCdxL1tFas9WkiYycd4y7mkKbTt4I9rpyT6JPOyQgxov9hYE0MaBqH/AKhCKH+kzSOn5kUi13OqRTNmohqvfoqK9hap6R2qIiLdMvnuoItK9Yq1bq/fR2qW/Yt9xn6udZ+K+K2ft4zHlwHA4g0UpIGzDpw7ZQUv/Krq+bEbyB+DGR1rogLcTltBiSN4w/maRwqsb947rnZaRw1pkoxLUVUpLlPREWWRZxlJVpTPuRVPhfJ7krrkLYM1V3bpzym/Llsf7m9FgM+O+1rbd/9j0gjgiNEMMq0Zksg0SNixsC178GL8mFsjQx874UX3K8raRy/e+YZ9zc7pnHU4lGKZimistqsolw7Xj6TMkSaRZ7l5//2wgv+Z5HwrrQOPc5Kelm37CNlSBu0nLK95c9lGeV2KZN/xOA6GUCkuegYdGAABmAABvbMgKRxPL5zxz8HWuRP/0kaxz7/yEopmqWIinBoXrS2SV6tiIhEy2cqu7JNfpacabtf+V72GRJpbY+mk5THlD/r/lpXuV0/5xWZvi4GEOk9D57X1ZHUw6ABAzAAA4fJwDsdaRz/+txz7s9mPo2Dvj7MvqZfTq9fEGlEundFgUHh9AYF+pw+h4FlGPirjjSO3z777F7SOOi3ZfqNOBLHKQwg0og0Ig0DMAADMLAgA5LG8c+VNI7/2HMax5SbP/siizCwDAOI9IKDJ1AuAyVxJI4wAANrZUDSOESYJXfX/vv0zh3SOLjfMmE9QgYQ6SPs1LXegGg38gQDMLBWBiSN4zfxz2xbgZY0jr82f1J7redHu7k2YaDOACKNSDNDhgEYgAEYmMmA/LKgpHFYeZb3sir9XvxT2whIXUCIC3E5BgYQ6ZmD5zF0PufAIAYDMAAD8xn4p440DhFrnsYxP64wSezWxAAijUizEgUDMAADMDCBAUnVqKVxyGeS4rEmCaCtSCsM7MYAIj1h8AS23WAjfsQPBmBgzQzIKrP80mAtjUNWp9d8brSdaxMG5jGASCPSDP4wAAMwAAMDDEi+c/k0jv/8418AlDQOedwdEkIMYOA0GUCkWwPgmbvcup7/rty5HHNx5dz20p21jq+AJPu6eNyY/efscx11dLXr4aXb7vv8uuqe+fn5U+fc03NuflPi5/vZuauLCuNTymFfuFsRA5LGIU/eKFehf337NmkcK+pHJJdxe18MINIDA0GncE0R6YE69tW5i5bbJ+orFOlFY3MM/TviHDqvhRHHEm9uYmtjQNI45E94lwItq9LyrOi1nQ/t5RqEgf0wcBwiPVVqZf+Rq5Gd8jC1zrXLBiJ9AjfOc3fltu7yYWWw8ZOljm2dbEt5e/4mprPuyjmw7wkwvEy/v3/vntsWf1RF0jgek8YBQ4wjMFAwsGqRPnsSczCyFIuQmrF9cukkoUL/a30d7cVQtvbf6IdE+lzbIEVlci4SYf+r1VNLI5kiK2Pq2LgUJ9Oc7ZOzURdD7VgtJsVUV6RTTF017cXHUg8eiHs5c/bt2G5d6PGtu7yQdBL5z8arjGcRc9s+OTTrL7kBh+OvLmxcbfljbtLh2Ksn2r6yjU09vvn+f0U75SK1bd1eOs9ZxvnG7RLPLL4xZSOPZX6uIf5FKpNv45W7tNdA0cbNpoll4qUYhLK2sG3UdUnMcj6Xisff3L/fmcbxPZ7GAZuMTzBQYWCVIp0EoiVCVlKMnPgbfocQJWGpb+8VadG4JKRRoGr5o1E4fG616YR22Wfu/OLcndVWBM1x1ZtGRx1ByEwsNht3dnHuzh+OE+lUV1f50i4VsdQfOplp6vDnaiSrKmY95xiEPpyHPVbKDX0Qha1oQ1uWww24Hfs6O7auFIuediZxLM81TRxGtNPH2vCo8TVl7hpPfy6+HjH5nI/2eXawHY9vroE4kUl9YGUnnnd2zdjtvG/HnZhcV0y+25HG8YdnnnF/TxoH8tQ75nOdXtd1eqj1rE+k5eZdvVErzG2J05XG5oav+5pXkRUjKtphdeHSFcNcQBqpM+XKBeiFI99X29R/LkU5fRdztQ5djS7rnlCu1tlRvo+TFz0jfiLrskqp/VTZHoQzP0ZjXnu1QmvL7uwfbUOlT6X8+nEVdnzbp8SvJp21z5o+sOfW1TbfXj2XBeIZ4j/uvMr2pf6pMVH7TBnyrxLj8f2e6srKaGLHdmKxKwM/u3u3msbx0d27PI2D645JBAwMMrA+kVYJkoU0FbWso4MMlV8j18VJJVcKq9/ce49TsYn1y75VWe+Ui2aVzn/DL2uDtRXt7Pw6bpyddZQpAF1x6yhX6+4pP6xI51JmZTdLU9ATja9jz9fKnC271T++naaSoo/0pts6zp9nhZ1ZIl2yVBH0znZW9i0nBeWx5nTHxtPHIZWT953GKLzW25OOL+NblXxhq2G9eo0oZ7wODtp5/wxct8SzM56SxvG7Z55p/TLhr27fdrJCTZxhCwZgYAwDqxRpPTEvVCIR2c28duOvfKYSkR3bhqYuXFHAi2OnirSkWGSPz/MSMlOm/flUhOihpHHY8wqxqE9C7H7F+67y5UZdkU0ru7Xt2odjX4dFOoqamVzZY8p66v0aYpPJaOXcyrLyn2urz/az4XbW2uY/U94mt6noy1KuInfVyWRfv9e2tT6L59sxUc1jN9DOst38jOzNYEAk+ReVp3E8JY0DnmbwxBjGuL1qkU4Ay81bJSP+wliW9+lv7maVUH42wpXKqVxENanx+2d1BpBk3+pqm6+/kFz/WTkJsMI1Ec5aHWkV0Jy7ruiPPP8UGy9beTn5tvz8MpHWPrF1xvPPpLUSf63DSrEtO/VPq31xwpC4yOOZjsvqXE6kGx6L9Jox7fSxMbFW0U3nUpkMdcTTx0ommzb22TnbuAh/pt7Yb1WmpYxYZ7O9bJeUl3Oh/cmrjTvvr4sHSdcon8YhP5PGAYPXxSD1HB9rxyHSmRiEm/ngUzuyY7o7ti5cY1akdSXOfO+ub5PURPHQzyendoypQ0XOVJLq7z7v2sWepCwWlSTYi14uTFZ2tSwfy9SMfH/dp+vVlxdF0pZt+ydvn3myh55vFL/UBPMmnEvoj3Rewkjl3LraGD4PfdL31I7BdhpJ9U3c4akdqS6NwUju/bm0pL/gxcdz6KkdxTFT6mdfVggXYuBv7993suJcPhP6l6RxwNhCjPXfFxgHjzk+RyzSzRMjjrkDObdDG6CiSM/Nde9YBbYThuvp83J1uRLnKNLl02iup32V9nBDRIoKBiSNQ2S5FGiRapFrWOU6ggEY2JUBRLoYeHcNKMef+kW5q0jrNwgmxSKmdmQr5YfALSKNiB0Ch5U2vLTZ+HQN+SMqVqI1jYNx+tTHac6fa2A5BhDpyiAMYMsBdnqx3F2kJWYpJSOmnxycRMt1g0gj0gc4fspzn2tpHPILhjyNg7H99O5J9Pm++/wIRRpo9g0N5cMYDMDAoTEgkiyPrrMr0PJeHnEnj7o7tPbSHq4hGDgOBhDpA1xR4eI6jouLfqQfYWD/DEgax+M7d1wtjUP+2Ap9sP8+IMbE+JQZQKQRaW40MAADMLBKBiSNQ/6Md7kK/a/PPef+jD+qsso+PWUh49zXOSFBpLmBMtjCAAzAwKoY+N4LL7hfV9I4fvvss6RxwPKqWEae1ynPtt8QaQYdBh0YgAEYWAUDfWkc79+7t4pzsDdg3q9fouhD+hCR5gbKzQcGYAAGDp6Bd55/3v3HH/8KYZnG8emdO6RxwO/B84twH69wI9IMQAxAMAADMHCwDPxVTxrHX7/wwsG2G3E6XnGib+lbywAizQ2UGxEMwAAMHBwDksbxz5Wncciq9HukcRxcf1mx4D2ieUoMINLcQBmQYQAGYOCgGPinjjQOEWuexoGknZKkca6HzzsizQ30oG6gDBqHP2jQR/TRvhiQNI7fPPtsKw9aPpNt+6qXcmEaBmBgLgOINCLNzQkGYAAGbpQBWWWW1ebyFwkljUNWp+fe4DgOOYIBGNg3A4g0N1BuUjAAAzBwYwzU0jjkrxSSxoEA7VuAKB/GlmAAkeYGemM30CUApgwGQhhYJwPyxA35AyrlKrT8oRXSONbZp1yL9NspMoBII9KINAzAAAxcGwOSxiHPfi4FWtI45FnRp3gj5pwRUBhYLwOINDdQblwwAAMwcC0MyGPryj+qomkc8rg7ZIIYwAAMrI0BRJrBm5sXDMAADOyVgb+5f78zjeN7PI1jr7Ffm5TQXkR6bQwg0txAGcRhAAZgYC8MSBrHvz73XCuN4w/PPOP+njSOvcR8bRJCexHntTOASHMDZTCHARiAgcUZeP/ePbf91rcyiZY0jsd37jjSOJCntcsT7YdhZQCR5ga6+A1U4eKVgQYGTo+BrjSOX92+7b77x+dFw8TpMUGf0+fHzAAijUhzY4MBGICBnRkQSf5FJY3jKWkcO8f2mCWEc0Oy184AIs0NlEEeBmAABnZi4Gd371bTOD66e5c0Dtjaia21SxbtP/6JAiLNIMcgBwMwAAOzGJA0jt8980yWBy3Ph/4laRyz4ol0Hb900cfH18eINDdQBnwYgAEYmMSApHGILJd/VEXSOP72/v1JZSEWxycW9Cl9ekoMINLcQLnpwQAMwMBoBiRdo3wah/wsn5/SzZNzRRZhAAaEAUSaGyg3PxiAARgYZEBWmmXFuVyFll8w5GkcCAVSCQOnygAizQ108AZ6qhcH582NAQY2XpLl0XWlQEtutORIEyOuExiAgVNmAJFGpLkRwgAMwECLAfmjKZKuIX9ExUq0pHHIUzpO+cbJuSOOMAADygAizQ2UGyIMwAAMZAzIn++upXHIn/smjQOBUIHgFRZggBzp7OYBEAwKMAADp8zA9154wdXSOH777LOkcTDZ4n4JAzBQYYAV6UpQTvlGyrkjkjBwegxIGsfjO3eqaRzv37vHzZP7BAzAAAx0MIBIdwQGmTg9maDP6fNTZEDSOP5QeRqHpHH82YsvcvPkHgEDMAADPQwg0j3BOcWbKueMTMLAaTAgaRy/rjyNQ9I4/vqFF7hxcm+AARiAgREMINIjgoRYnIZY0M/08ykwIGkc/1xJ4/iPb33LvUcaB+LAPREGYGASA4g0wEwC5hREg3NEqI+VgXeef96JMNvH2cn7T+/cIY2DewH3AhiAgRkMINIzgnasN1nOC4GEgeNk4K860jh+8+yzTrbR78fZ7/Qr/QoD+2fgqEX6B+9+5B4//sC9fQOyHOp+7B4/Lv995N59a2TH/uiDvbT/7Q8eu8cfvN158/Rt/+hd94Mybm+96z56PKH95fE3/fOhxXNCPDr7pKsMOddaH3btP+dzH0/Ddw9TDOYjr/k5/dBzjPyyYFcaxz89/3znGEB/3Ux/EXfiDgPrYwCR7rkJ7QL0ZPGptWPF4rdL7PZ27IrjOZmnUSL9A/fuR4/dR+/+YGehGpqc7a1Pa9cNn/n+FFGupXGIWPM0jvXdrLmG6DMYOEwGjkOkO6RhsnwseANepO4Vi99BXvArjudknjquibxfjkGk5RxW/C3JgmOO9q2kakjKRpkHLU/oII3jMG/E2ne80j8wsD4GVi3SXi4kdaLrK+xRMrGfThsUHy91H7mPPgpfjX/wo7fdBzEN5IMfxTZF8XvXp6jEr9Ar5+pXA1MKSTuVJcUpxurdMrXD16Nf0X/gfH2pniBbTYpKRVp8yscH7m1bTjpe49uc32NJD/nRnDQRW0aRnrKaeIZ4ZH1SS5exsXxc9onGtOdVjv/oXfe2ZSelXhRxTOyYa2lMPI0E3uyKdMPoEqvra7iRyePpyidsaBpHKdCyKi2/ZLiG86KNPde0ud6IE3GCgcNhYJUincQxiUFHQKNMtHJ9r2FAykVJJfWxyyU5SqmXliDA/jg9L/+5/eo9CoNu32ycj4WRVn98+bMVtVhmypGOP6d2eSk2QmVj1ZUjrcekdoV2NlITxK35WcWnIuW2vux9vYxUpj+PdcQzsGEmPL7t5c+GFY2v6dfBQTT2a4rPJsQv9bOPbdlP5joaE0/TPzcr0tpu5aqYZJl2DsZtBfvKqvL2j4+qE0H+bvyDKSLVZRrHf9665fOj5XF3x3DenAP9CAMwcIgMrE+k5QafhG0AKtm3Sz5UTnQ1rlWmuSn7fYzojLgxlULb6nwvKrFM087sOLuP1mk/q4qtCJMKal2UrPTY99rGrA1ar7xW66t/7svQmNo2a3n+M23nQD9uNq7aJilD+9fWYT7PjrP7ZO2I/VA9v6Xj2S20KrmT+kTPo3ytnKuU24i1xLzOh+fAHt8VT1Nnrc3K0+Crr6uZbOZtVL6a7WOuf2mPxnOwfnMeh76v/BEV+1cIf3n7tpM/oFKuQksah+x76OdD+4bHPmJEjGDgsBlYn0jrKqzIrYpa143QCMB1g5gJXK19Y0Sl1n4re4WANOkXKhE1aYur2D52dZHqbLut256T/zyfaPgyYv9Uy+sqy5Zr3ntR00lP9momI/qEFhO3rG7zeeLBtuM64unrM1JoziUI5MQ+MTFK5ySfVc71YEW66xwmfx5i56+DobFhctk3P5BL6oaV6FKe5WfZLn/yO2NhhedK+2+eN/qAPoCBcQysUqS1c70kiYjoquQB3TAygau1y0ubkcB4Dtlxdh8tw35WEViNTXitS5ldPbTv9disDVqvvFrpbH3eLdJe6lRy9Th/HhNXpPvkyMZF3h9sPO0Kd/0indQnGs/y1cRA+/V4RboR6GNchZb+E4n+3TPPtFaeVaYljePxnTuONI76NaXXAK/EBwZgYGkGVi3SKRgVaZBtXkhKgSuFY08/d8qo1jda/OzX8VEYklCWP8eVyMe6Ih1TIlKqR7M9reb7djT7B1numJzMFemYn9t8Za/iM16ktV1WlLL+XVE8fbvt5C+uUqf4jO6T8I2D/+XN8tnkUoatI14PqY7IoW9L4skMsGPiqSzrtVYrx+yTrtdFPxOWJnC0aN0mXnssV+RYUjVUmmuvItH7ie/1nCNtJ84wAANrZeA4RLrjJpaJVsc+++o4L9Lma/sm7SLe9MeIStznsJ7aYdISVNQqK+P+/DOxUumT4/f11I5xK/w3G88wWOZ8VETQ973GuuupHRrTjuO1fyL7cj2UIr2Jk5zEpx4zmk9tY/5qJzz7usZOpdwhiRaxtr94eCpx4TwRLxiAgUNg4KhF+hACTBt6flHwhr4toE8YfNfCwC+ee653JdquTn/KqjSr8te8YLSW64h2MubvkwFEmoFn/zefMnUhPi0ipZfQB/vvA2K8uhjLXyC0oly+l0fg/er2bfezu3edPFd6nzcKykZEYAAGYKDOACKNYFzPDTjKdEohyNI+6nBy0RKXU2VAcp5LcZb0DcSZa+JUrwnOG/YPlQFEGpG+HpEmzsQZBkYxIH9cRSRaxFmeE/3+vXv8aW/YGcXOoYoG7UKCj5kBRJoBmgEaBmDgQBiQx9whzkjHMUsH5wbfx8YAIn0gN9BjA4vzYbCEARiAARiAARg4dgYQaUSa1UgYgAEYgAEYgAEYgIEZDCDSM4J27LMrzo8VBBiAARiAARiAARgYZgCRRqSZgcIADMAADMAADMAADMxgAJGeETRmaMMzNGJEjGAABmAABmAABo6dAUQakWYGCgMwAAMwAAMwAAMwMIMBRHpG0I59dsX5sYIAAzAAAzAAAzAAA8MMINKINDNQGIABGIABGIABGICBGQwg0jOCxgxteIZGjIgRDMAADMAADMDAsTNw3CL98NJt3dZdPuwB+eLKNf8N7It0d85WX/zpT9ytL99x9zcbd/+TD92tz95yLy4arzfc3S8/dHcf9PTljPp8u/va+v233O0vf+LufX+HeqeW4fcPsdzfABTieevLD134V6sv7HP7p6+6jW/T8vFvzu8V98Vrj9zXL7/SyVja99tvuq9ff8998e2RfeL3f+A+nsFHqjPj+lV377MP3a1P3uhoa9xe4cZfG30xj3HWfvGxt+22/fDgHXerUodtc/t9iPNXL42Mna278v7j7zxy33zn9Y449NTx0gP3zWtvurcrZbbb3FPOwPHD45L2lV4HlWvdx1m3166BoozWeHKg11EWu8DFN68/cuHfhOsrK2e4r5r7Q+U6KvjX60BeW9dCV72+v2rj2XDb+tjz7e685jdxjKzw09XOyueD96PKMZtNMZa3+NvtvPticr3bniQ4JAAAFl5JREFUrvM60piducutc+7peXuM8+545c43G3fcIl2FTgO0cZsxoj1UBtsDYGbw8oNB34AzK2bhIkKkG37nDbrN8WkQNH2XPvN9FG504QYm8d/tJpGXXWnHWC5qIi1i9nqHLC8k0jbeclPturE3spzHqxGIcO6+vDj59LGxkuxjYW4cKTbmOvD7TxWGZUV6dp+OFOm3X35vN+E2bLfHpYrI+f1Nv5U/t/qoXUbZz5vNQtdRH+OJj/7ralQ8a9fXyPLH8NB7Hfn4mvjPqdf0+Zj2jN3H92vffW2BttvYjGpX5NGORW3++pkYVU/G8BLl1cvoP/+FrqMpTBlZ7ovTcYi0nOz20p1NCZDsO/e4qfWcwv5yQceZcPuGVb9o+sBsbzMCsWA8+y/cZVYZwmruhJuDHxyHBWmw7WPj1HPjkUE5TF4Q6Y3EKd5IJS725pV4VfF6UHyTUb3J2htD/CanvFG3+kaOiSyN5CS1zfNwYiLdNy61YivjlB1n8v7ROGbX3WAZYexb5Do6EpHuvY6q18nE+0e1TyaWURk7vaCW16fdb4G2Z2zZsjve19tkGd79vAP39WtBr4mlXofOv/c6Ep+rrRx3xC60Oaw4X13U4hS2bZ+ctVejizJXLdJnT2TN3RUSHZfiU75GO13j/GnaWLyJ+/pZiG66cud+5Tr+bDoq1R83NZ0RO2DbtO+82taNy8tot3UY0NfdV+nrOP1aTlfm8q/r5Gtz/1Ws3z//6q75PJSRvvrNYqExacfCy6J+pfTgnapk+Iu++rV2uPBvfybpIeEr87RvGrji4PBTERT9mrUtp/5C7NnuB/G0/R13T1JStN3+4gj16FeKd319RT1+wNQ21IRqRBnFhZj1sy//HXff3xBiPaaNKTbpPLQt2s4x8TQDR8+Npxm4ZCAdlvvmPAKXypFfCdMUACME/nPDbz21I2f8q5eb1I7y+Oar6UdO697oirSvN14jJq0gvwZzxrNBVOIUeRTO2t+OREYl/ai8qXbEuLlxdN2oTJmeGdnP9LPhoom96dsWZyrSNqb5WCDl5HEttts4St9pv2Z1FeW/1PSZb6eU8dqb7mNZcdb+N+WU41HaR1N6FhyXsrhl/VTGPsbV9G3Tf3nM/TWaxq4wSQq8TL2Oyr7QMT4fp/P+aqdIDcbT9l3virTt16Lvx/ZJ33VkYpv1i7bP989P3G1JrfKpfqGPwvvYB7EP/diuY2TlOhm6V2TbP3vL3ZOURdOnOunqu1dkZdS+0fNt1fG7dj/Kucpj0sGnxiq9hrFF26kpmFqWsHr7p2+EdLUYr2Zsa+LbHN++J0lZvecq5/nZW+6+TwGNx5tYDt/TQhwG70eJwZByoefYfj13mtTbeFsR62rGQnNcuFOsOLUjibCR2naghlM3/A20byVbO6WyT2hD01nhZqw/R5n37bOzGumERpbzY+IKudMyik5NF4X9PNwUc/l43X380ivu7Sx/tBHqJBemPD/IGrHYbMJgWdu3GmdTVtd2f6GYwcxfdOnncLE2KQRxFVSF0pcfL+h0jF64jdyFC7n5OUhz+bOusKrs2HzuWEe6wHUAUnFpjikHmvLnZsCtlDEUL3/edtAOZZQroHkMLRdj4mn2jzceyW/v6r85n3uuvBxF/iJj/qZvpCmUXWNZ2hNv3Gl/ZbkmdzqBLM7Di4G96XfVVRw3KR6xn5WdQgg6+yrFPvRZw5G2pd73c/rDxtmmwfj+MNd/kDITSzPxKett+ljbK6+hz5pxqdJnUcabfepjTtm2sv5lfo7XvUiE9p/0fdGHTV1NX/lxzR4Tmens70lM2Zhu3KanH5q29bM9Kp6dIl3v16YPi/bOOVcd+1SA9VVj7K+XOB6nayfeC7J97AJHcW0m6SvvDc3P4V5ixn1fl+UjMqN1xtQH+zsLoYymzOn3o4F4dvJpj2ufe5DWpl3h5/Jcm+2Brf5xaOy5Nvew5hpq2I39aO7xdtuk9+puxrf88WlRtPGwrnK94/U5pq9jrSItje87OXvxVmcUDWTjRHqk2GZ1WXkO78OsJ8xm2u+1TXZf/azvtRzYuvbtGVw7B82usmZ8Xr3g5ULSi9deVObz7Di7j7bBfmbf6/Zw8auc1G562Q3PDMzp4sraUP/63ZehA+qIMlLZllX7vqhT9s/qiPtmbbfHZ19Pd8VTY7RxrQE+K8vsN/XzuOr4tojVa2+6L74T5Ffkq33z7WC0Jg81Zmv7aXsr+3uhSHK+wznGOlp9UfRha7u2LfFS41fa1X8DG2RJ60mvlTj7+Kg414Q2HFObWFdFutYX/jMz+ansU+NilPilc9u9H8O1EMelog+bWDd9VRtT0vW6hBDYc6vErGmTnnulf00Zo+JZuV6knuqx0iYzCWu3R9s18rUz5vH4dL3EcSvGOLu+7D567tlnTf817bX3ivo1l/V1Vl5sW9b2oTp67iVjucnq64hvdZ+8bdl5+XjJdr03a7n1mIT45eWFz2w86/cYqbcR61BP1o/ad7u8ipelhVDxq2GB9u3PfE5jULyuWqT/+BuS17si3SfS5TK/dtIIkfYdlX+NrD9lXycPQeQHPft1n7lZpWN7BtehwTnN7LR15nXshMYPOvr1Vf4aJNdeiOYizgYB83k6L3Nx+33zsvWrqHCxmn3T8fkMuHoRZ20IZWi52WttQNd6sjKKi1H3sa9+/3xFwLdNZT3uW22v3zYmnqYdtZuCbc/c9ypoLz3w4iw34q9eElEbz2j15l270fdxrO0w5+HLjSIdvhkyXJu3467FHi78ipqm6eR9KgN204d1PvXrY50MhpuU6TtzTuO2VaTYxse/t+NJ8749+dmEVLFiQjKqzyoCNkmklxiXOmLXiIW9jkzMzfXc9J/Zrk94Ka7Xcf2Tl5Md08d4Opeesb5LhtOxse7a9bWJfa1pONlrnIQt0Scmttm5axvtWCXva+Ou+TyVYcv17/vuFfV+b7iw163pr0l11K/3Lp7SeWgc/Gu9ndm+Nl7p2LzuttBKuRNEejCe+aRH29eutyOuqd0m1kOfJRbVyeKxybuKz4vyBhdZZX9fx1pXpM0JpxtgmnEUgR6YVQwGywRKO19fy9SO/AkgI0R6k6d5aLlTXz9+qXj0lB9sS1HpGVx7Bs3aCtTU9vn9/YXWloimLDsgmIvYDkzZKqv2c8dxhpGmjhErALVBJ2tDKKOcRds6qqu7RRnZ/rW2VuLlB9jixtw96HbEpasdtfOutWvyZ/Ebk9dEoONX06+9576uPl2jg9GaPNSYre2n7fX764prYMeK9GB/aDlTXstYlz/7sto3tCy1QPZZvG8GRNqnZZTjh15v7dedVqSLlcxJIj2lLzr29WLUWv2zfWLfN+eeXXfV/rHXX3Pczpz1MZ7OseM6iturk5x0bGxr7fpSCS8mTTufU1l39ToxMbTxlvddIm2fhiN12OP8vaQURVNHx7dAVqTz8uKxWdvNfaw8x/hzVl78LGOr4zgb81oZ2eQ7a5OeY86nlJHf02ptr18LoS21/bWu+Gr6StvfrncBkVaB7nLCFNNmEbSdI20zB4rzSMcfkUhrh3Q+fWNvIm1FOQQ6SL3Ocuz28L6WzuFl3HZ4nC2NWwUzv4RiB7fqINg/uPqbob2pjRqwewCzsPn34SLMJMEPbJqvbC9sc1Fmg0DYRwdO6Xs/6JgB0w8q9sbojzeDRFan5kBOzJH2ZdhBOJ5bqje2M0lv3N4xw5dV7dZqo293PvHw55rKNIOTOf90PWSTjq54mv7z55TX15Rl9mv16/A2z1ZagQ5iXf8quIvReExiPOz3TSoztqHKvd12wyKtvCZO2vxmN0Af68BSfpMbjnl/34X4ZZPkYqLRGg/89lo6Tn1FenSOtB1z4opna9V78bHIxK8cHyTm5fWdjUHNmGGv2VJmWuPQjOum2od9jKc6uq6jeN5j4tlVT+TAshOu7/zaqrY9tc/Ev/ZZGe9yHztWyftOkTbjvuYvm/Gz1UcFC+HeYsZ5X++0HOmhOgJrZvyPbdBzGhXHot2aCtaU0b73+naZ+4b8nI8x5p5h4u+PMzG07Rt1rmbsk2Pb9er1N/NeJBI99lvydF7WzwKbgwuseqxZaF31UztsRzbvQ2DMt7PN2yitKTWk2RLeaSforKZruwQyfUUQdto+OQ8P7va/LDhOpKXNaVXdF6MiPjDYaEf61yga6as2u5qk0tF8Pdv1sP0wIOp+Cw6Mpq3+YtNfHjEXci4Q5iLOBtUgFeEpGvq1nBnoYj1hAOzeroNXSMuo/ZZ0qEfTNvb31A4VbDOQaqz8eeeDSVWk9SvkFFONR4yV/+M1/fHU88xeOwbL5hobz2e+Ata+yfvtiV3lT14txznj9qkdtk1lWemG7wUgZ9rvm+R8/PnY+nrfZ+w25ed85n0cysv5y29wTTm9dStH1ddhkZay81javtBferN91bxPMddfEvV9+577ouOpHfYPssgY1BLpVkpB0ZbqOU6JUx5v+8tiKcZRVvQasRKt+2RjWyEMus8Sr3m/NE+mKT9vPeXExCkf6zWeXfeKR0UOdH4t1p/YMiX+xb5FrDXm8uqvhdEiHcd2HRsrfZJfizp2Nu3Jth/kUzu0rQXDrfG7udeEeObjTltozT3DcKP36dQnRUyzeJULR2bSo9dBu95wPtm1VJaTtUfPf8lX6261cpuVbKuHRyjStZPnM4WXV1iAARjYJwNe6orV5nFPnKBf9tkvlA1fMNDPQFjY7Pu9uPrxiPTeZzj1wAM0cYEBGDhKBmIKQLO6HFc79/kNAOP4oo+uPEouYQRG9sQAIr2nwDIQIUkwAAMny0CU6ZRigEQjMdxrYeBIGUCkj7RjT/YGTn8yWMMADMAADMAADFwTA4j0NQUasWV1EgZgAAZgAAZgAAaOiwFEGpFm1goDMAADMAADMAADMDCDAUR6RtCYTR7XbJL+pD9hAAZgAAZgAAbmMIBII9LMQGEABmAABmAABmAABmYwgEjPCNqcGQvHMNOFARiAARiAARiAgeNiAJFGpJmBwgAMwAAMwAAMwAAMzGAAkZ4RNGaTxzWbpD/pTxiAARiAARiAgTkMINKINDNQGIABGIABGIABGICBGQwg0jOCNmfGwjHMdGEABmAABmAABmDguBhApBFpZqAwAAMwAAMwAAMwAAMzGNi7SJ8/dc5tL92Zb9y5u3LOXV0sOxs5e7I1dSxbNjNH4gkDMAADMAADMAADMFBjYL8i/fDSbd3WXT7U4CPStU7gM+WDV1iAARiAARiAARhYDwM7ivSZu9x2rzD71ein5+arggMR6Ysr57J2rafDuLjoKxiAARiAARiAARg4DAZminQQYtebplGT5vjZE1mp1v/sinUMioiu+W/75MzI+MZtsu1X7tKkdvg0j2wVPJSZp5jYMq7c+YycGAA+DIDpB/oBBmAABmAABmDgphiYJtI+VUMMtyK/hYzW85ajgKec6Y0L4mtk1kuyKT/WmWQ6SnTKs9Y2pTLDKnnaP+VmmzJtW5OUd2y3+/I+n9AQD+IBAzAAAzAAAzBwwgxMEGkR1LGyWVuNltlS7fP8s3Y6SJTtKMpD2/2MxMtxI+d1qS9mbyLkScaLbScMyE3N8KgXBmEABmAABmAABg6dgQkivXEbXf0dWpEuRLYJgkhzKeN2Bdm+N/Ck8urb26Js5dy+N2WqHLMizUxaWeAVFmAABmAABmAABiYwME2kU8FBTiXJI6VYpG112Q0yXZPa/LOhFeeh7SrtSa6ThBcSrQLNKjQXTGK3YITPYQMGYAAGYAAGYKCHgZkircIRpDmT6S5x9Y2IAm7kdfkcaW1bI/t5vnT8RUOe2sGF0XNh6ISMV72eeIUFGIABGIABGCgZ2FGk2wGtrRg3lcbV5z0+taOpa+N8W1qpJO0222N4T3xgAAZgAAZgAAZgAAbGMLCsSPvV6DIH+uY6ol/qb65dYzqGfegfGIABGIABGIABGDhsBpYV6YP6qjzPvQbEwwaR/qF/YAAGYAAGYAAG1sbAUYp0SOlw/PXCg5rYMDisbXCgvTALAzAAAzAAA/0MHKVI0+n9nU58iA8MwAAMwAAMwAAM7M4AIs2qLU/vgAEYgAEYgAEYgAEYmMEAIj0jaMzgdp/BEUNiCAMwAAMwAAMwsHYGEGlEmhkoDMAADMAADMAADMDADAYQ6RlBW/vsifazAgADMAADMAADMAADuzOASCPSzEBhAAZgAAZgAAZgAAZmMIBIzwgaM7jdZ3DEkBjCAAzAAAzAAAysnQFEGpFmBgoDMAADMAADMAADMDCDAUR6RtDWPnui/awAwAAMwAAMwAAMwMDuDCDSiDQzUBiAARiAARiAARiAgRkMINIzgsYMbvcZHDEkhjAAAzAAAzAAA2tnYO8iff7UObe9dGdeWM/c5da5q4t9ghPqcOm/rbt8uM/6KHvtFwHth2EYgAEYgAEYgIE5DOxXpB9euq2zIjtWpM/dlVtAuFv1A8kcSDgGbmAABmAABmAABmCgzcCOIt0vxn41+um5ybnp37/poD2L9MWVc1m72oFp2sI2YgEDMAADMAADMAADMNBmYKZIB9GV7InuNI2aDKtIN8c7u2LtV5BTTkb+xotvOH673YZt20t3/qR5H9JHzEn2rUiLTPv/rtw5edJmsmPiR1yICwzAAAzAAAzAAAx0MjBNpJPo2nSNunidieCm3GjdJ4iwc4281verSbiUEY+3Uv3kzG02sn+lTX0irVAkoa4cr/vw2gkQs1Nlm1dYgAEYgAEYgIFTY2CCSIvEjpXNfhHeevmNsHnZbcQ6dMCY44NUhxXxjv3HiLRKsuzbEn8uiFO7IDhfmIcBGIABGIABGBjLwASR3riNF1PJhxgQar/KW8qxdIqV39hJNy3SrEiz2qyTKV5hAQZgAAZgAAZgYAID00Q6FRxWgEWp2znSQZazVed03AGJtAo0q9BcMIlPZuBjZ+DsByswAAMwAAMwsHEzRVrhqYhx52q0HFPZv7oi3SXj9nNb1sTUDmkjT+1AoBFoGIABGIABGIABGNiBgR1FWoW6eW0/8q7ZNl6kbRpJeLZGEN8xIh32iUflL6w+c7HscLEw87bXMu/hAQZgAAZgAAaWFWm/Gj2QP43IILMwAAMwAAMwAAMwAANHwMCyIn0EAWF2yewSBmAABmAABmAABmBgDAOINPLPjBgGYAAGYAAGYAAGYGAGA4j0jKCNmaGwDzNZGIABGIABGIABGDhuBhBpRJoZKAzAAAzAAAzAAAzAwAwGEOkZQWN2edyzS/qX/oUBGIABGIABGBjDACKNSDMDhQEYgAEYgAEYgAEYmMEAIj0jaGNmKOzDTBYGYAAGYAAGYAAGjpsBRBqRZgYKAzAAAzAAAzAAAzAwgwFEekbQmF0e9+yS/qV/YQAGYAAGYAAGxjCASCPSzEBhAAZgAAZgAAZgAAZmMIBIzwjamBkK+zCThQEYgAEYgAEYgIHjZgCRRqSZgcIADMAADMAADMAADMxgAJGeETRml8c9u6R/6V8YgAEYgAEYgIExDCDSiDQzUBiAARiAARiAARiAgRkMINIzgjZmhsI+zGRhAAZgAAZgAAZg4LgZQKQRaWagMAADMAADMAADMAADMxhApGcEjdnlcc8u6V/6FwZgAAZgAAZgYAwDItL/H/7RCPwGQY2HAAAAAElFTkSuQmCC;" vertex="1" parent="1">
          <mxGeometry x="425" y="1040" width="482" height="235.66" as="geometry" />
        </mxCell>
        <mxCell id="byrFbOCBDsxeEp1RwZBV-28" style="edgeStyle=orthogonalEdgeStyle;rounded=0;orthogonalLoop=1;jettySize=auto;html=1;" edge="1" parent="1" source="byrFbOCBDsxeEp1RwZBV-26">
          <mxGeometry relative="1" as="geometry">
            <mxPoint x="220" y="1510" as="targetPoint" />
          </mxGeometry>
        </mxCell>
        <mxCell id="byrFbOCBDsxeEp1RwZBV-26" value="refers to global object (parent)&lt;div&gt;$ its link for jQuery&lt;/div&gt;" style="whiteSpace=wrap;html=1;aspect=fixed;" vertex="1" parent="1">
          <mxGeometry x="180" y="1330" width="80" height="80" as="geometry" />
        </mxCell>
        <mxCell id="byrFbOCBDsxeEp1RwZBV-27" value="" style="shape=image;verticalLabelPosition=bottom;labelBackgroundColor=default;verticalAlign=top;aspect=fixed;imageAspect=0;image=data:image/png,iVBORw0KGgoAAAANSUhEUgAAAV0AAAA7CAYAAADYUllEAAAOxUlEQVR4Ae1dQYvcuBL2X9r8hyWnx8LAMD9gr0ty3MvmMjR72IXcQyA59ewx18zCg8CGmUsuGQLLQm45TAJ7eP+gHiW5pK/KktvubrvdPTUwtGxJVaVP1udS2ZIb8j9HwBFwBByB2RBoZtPkihwBR8ARcATISdcvAkfAEXAEZkTASXdGsF2VI+AIOAJOun4NOAKOgCMwIwJOujOC7aocAUfAEXDS9WvAEXAEHIEZEXDSnRFsV+UIOAKOgJOuXwOOgCPgCMyIgJPujGC7KkfAEXAEnHT9GnAEHAFHYEYEnHRnBNtVOQKOgCPgpOvXgCPgCDgCMyLgpDsj2K7KEXAEHAEnXb8GHAFHwBGYEQEn3RnBdlWOgCPgCDjp+jXgCDgCjsCMCDjpzgj2w1b1iZ4/vaDnHx82CsfQ+o+vL+jRr9f07zEYe4Q2njTp3lw2tLo9wl6pmvyZVs0Huqnmb5/BA61MiEyWr2gzV0ZSffS0NmDHke6/b5/Rk7ffxjfo6zU9mZwwvtGbXy8otHUQNrEZdYx7mvnxVavnYjs8jOghNuyLdLfuQ2PzqR066R5Vj05Euj1ENXrg9MgaA/VovSJ8T/pFXP/v0BtSlDKE8Gr6tsbDCNzFBiNq4+G+bN6o6MgKTEK6N5dntL5aUdM04f/s6r6F5Z7W5/FcyDtfk+TQ7YqayzXkr7JH92VNZ62spjHnS3VYViov+qAeEbEX3KD+3o77TKvzO1pfvqOm4f/3tP4iFb7R+lzOv6Pm/C616f7qPZ1d3dEq1NF5dPuhlaXPc53V1R2dSZ3Lz0HRTdINuto8sWTb3/pAHEcqQX+B9HjwRa/QeNNc9vV10WtUA7b19sqeuLQavU/xQtE7BE98cJijIPP1J1FIRGV8sL04TQ84v72mJzwbeIq2GT0FT13hARaUk1oezhiqNnBftHaVZitcT/oQ5REVdFlZQe4zevO1bO1DOzsR6SKh3dCqOQOSyhDfX51RIuRAlLlczuP6QJhcTsiyJWMJITCRJnktsUpe1hpTo0m3eUdnV+10lwkTyBVlR6KN5TjdQDiAiTPY8+WOzqB+KNcSqK7Dni0S/BSebpk4QpuY7BTJYEsr6QLpSskOubeDU8iU82VAJ5IJZUYM2KL+SAyiJ5LlZpmBPKX9wQ4bZilgx5gBaaKMQFwpj+uWbUhtF+CIqHQOslUScRRSlLYPssFgqHVrLLUuZcYom3XN0z6ajHSR7DC2GsgOvNBEksHTLUQrS14rkq6kiSgTdew01LtbN1qy08fWCxVyRgJG/ZFYwWNlrxZIV+rzgFmfT0u6ekChlTy4yqSApTppM2AxnweoDP5w3pRFWzgdPauRNhiZUX+XHDu2oKFtOtgwknSxDbaNVicec1o8Sf6Vm4+Y1ZErGZ3fbr9hXdTJVe1xEKcwjCSLtnE69mMXVzQH9eL5h56egXRjSCGQcCDQ7LUqkuwj3csCGXPPsad7CNJlT1U82BAmyA+3kGgxjRda7TyX0XlTk27PoNnGy+UGqAGLrS4McFMWB2lMX49/48HIjBZ021kkG20uURvWEMJRN4xQtisX2xCKgD1aJ5Bj0JO96I6MUZ4uyG3bg/KqNmDbweboKddufN32oxjUi+cfenp60g0hgJZomVgTSXLYAMIBNdKlenhiCOkmT9r09PjwgiZW8UxDbDaFCtgDzmEITaBgAJI2nOakrlMiXfR8deU4i8g3NZ1bOOohVj04C3Vrp9SA1YU6Mk1ZHKQ5zQNbPCstr3jEMjtvFERvLZFmKFMjkiy1Y2/OalMF0mFMUwgh3mgkRKPkoZ2qTmzv9p5u1Jnra/yqNmDbCv0ibcBiErrIunQu92G5ni730I4mI938ICvHaYnwQdqK1jamW/Nog4csD8SAqDd4uoGUUyhDk9F40oVwQCJZvlzwQdoHWoeHZzmmm0MF+tJico0P5aJcCcf0k24k5VTPPEjjmUNTiZ9r7dHuavjADLpu3cKZQCJ6iiwDjge6eIvxtyU8oycTrYlhtrJrg9tag/pSHWNfImBbGY+DB6ptz9Nqfb5DtPJQyhKwnFfxXJzCv6I38LpcIK5UJ+rcbHskWsE8YdCGE+T8I2UDNNz0i5Brrpe98hgfz1igLp23+SYHFpx0cjLSFRI5DfR0DHexbQo3J31zqdo6hZdbVXaMGeVputxIjrFFg23uuTYGy/CCVQScdKvQYMbSSVdmEAMJF5vm6SoCHS8TvNZqpSPN0G1FT/ZIG7Rgsych3QW3101zBBwBR+CgCDjpHhR+V+4IOAIPDQEn3QP0+N+f/kel/wOY4iodAUdgZgQmIN0XRFT7n7l1C1VXIlw+53+OgCNw+gg46R6gjycj3eq7zvygDV/dO0CjXaUj4AgEBKYl3S8/0tnlz+D57oq62YdhV3EHqo+k+9dv/6Gn6xhu0OaYxSM6s3zkpJtwGfcedqo2ceI4rt/4JsPpvMEQ2rOgN08mIt2fw2qztEAiEe8u1zQsJ95FzBR1zQY2m1QE0l3/onZCY+LVf066eqGIRmfTUZd0I55yTR7sPXK+MaZVmZtaMTyfiUUvTMh11Sq0fLqaOi7S1QtLSvs+jyPdwirDKlLbZUxAur+H7RlXty/o/uo74t8c493OSK4VVlvVVqxtL3Y/NceS7n9f0vfNL/THp3/o98f8W/J0tzDtxDzdXUhXoxdv2GlJeFiafrhwC98Qki3a0C2Peoiis7psSxWLr9aDwSjb9yWnrnQC0o1eLpPtzeV3tP7SJd24XHXMi/yVmCST3eUd7Geb90dQ+9U27ZaKAYe40IGX68pyWvR6cMewvIS3tp8uLgHOy4RzvTLwfwcvl8n2T3r6+CX9BaQbsSkseS6L0mf3RLpMdqU9fVkZ4oPbVhL14apxynhXcA17U2Q8u3sY62ano0CmGbvkUeL+H23hTHxmym8wDB5zu5Q8E2V7PRb2jM5yW0Ulz9YsX0/2b5nYj5fLZJOX8z4y+1fg0uq8fNgQlF3JhsuoYXof7Y2bGYWlxW1e8EhlVzfGIizdHhrmMLYELKFNoJ+zPr5+Rm/elr7KgXJaL9rU3bKbUrUJSPcF0e0P7dT5B7pRbzJEvaNJt3aRtoNTBjGTRdqIJjWRE7iijNN5UxoCL1V7VpEoomxdp6MHZCi1lQMOL/zxU0sOP/2ZXh+zxRmnPNBtbuHYEEYuUblp5QIqFdonu6i1e0sIxqog77CW9n/QGCGuaR/hUJnLyaY9uo7FVfeH0rz5AK+ZAvGFazDMnOqkq/GP3nLEIaabNPMCGai3uqczl9+Xp91drpzBQQLJZzendD1NhqhPlwu7sglpGg8bZYQ0kHoOf2h5XK4WMum2QddV+cYWzgs3ESFTRe5ZTigj7VECdzuYhnQD0UJcd9eYrrmQU5Mt2eExp+XrC+FXvGAe6JJOkszGNdnLyqQLdRTZ8BaTelNylFpKpwdpENftxnRjSOVQpIveOpJfJOSMjyZdwCg1PBKrzCq012r6wuCKepO4oQm8ZrYi3ZZY04ZJ8SaZSbdGmniDu6FVMX6LZYY2qFLOepdQbBxpQUX1RQwkWS6Dx5mgQm2wJRIres4XacexPrsyAbOeoV4uaze2YHMqpJs3DsK6nG7tnoBw2azpSJffXDj/ke6JyVfCDIjEiDQOIKxmyY4HbdgBLHqpmThwcGMahXEd8cDwPKdNHUMO25Iuv7nw/W//UAg3PH6ZPvMj2rWnJWd7fvfo6WbsYkghHIcbGWCkcDAYJTNr57mAyVPy7DaXSeCwBF4znMavj7QeaLyhgZfKkhOGfcTYlxdlBNm3q8qHUY3OYS0qlEICtNlIJDZv0zHWtTrwGMux+5i/NNJHrH15IaTAZPf1mp6P+jCpsQWbOJp0405vuHMcits1PS3psofL5GtIN0ztzCDob0jlIjeky9PYSBYYGpDtEMULMwMdFAcvLk2XIWMDOQTSLXrP7UbruG8wUQonyOti/NsslnQZr5ZoA+kKjhHjzZ4ukDZCGtKmLwqkm+XryvEaqnmbdoN7vn7g4VUgYamLU31ONyRhg6AjhRBQf+V6TEWih7u+rDy3wBtCqtM+LB4TdiiQSRIHBJjODU5oAmPvU6b50YOVbRq5HKazN9sXj+0l3eBJM+m9GvlNNW2zamoBp+xRc0msm9OhrRKCUAJ3O5iAdCGs0E7N8hsM0djxpNtekHYABBIoTXXZ28gffowfhxSyMANd4dcSSQpLVOoYcmAR+IAJvUTZ0xfDBPFBGjzwCW8y2FfGYpuxnjK1dJC8NJu5iSR0eRtCwHhubud7Wl/ZmK7gpeVFjxb6Ke1HbPqigyvnSz3wsOVtlj6CssQWiFYwF8KNdsbrkfPaD6qm6yyStbxmlj+KuhnP8AAuydF4dB62STb3X9NUvGMplH81ceTzOgSA54emM/GEGkxaacrNHxIVoo37Hsd9dtsHUzAljwSdQwwyne8n3VbmYLJjW7MOfDAXid/ktfZp7LC9mG5jvxB/HopgX7kJSDe+rdB9XYzP7/IXBwASwNhp/S7a91k3xnT162J8zv7x4FTttQXs8R5JV904rJ5jOC5isZks99O0Hj1sVzHOK7MifUOo2lPw3lLZnbzc/k8u7U7oycpqQhNitdjRZkxGuvnd3O4rY9ujZWJhJrywvdx5a6YHaWbjG/1ljTzNHWxdkWi4dg8JFITv9ACrIG+uU9ljZa+1Z2ovD8dq5Le1wdExqHur5voFPcEz7vPcoewkSSbq5DFmT7arC2O63dxdzjDZsg0SythF1pLrHhnpLhnK4bbVSXe4DC/pCDgCx4nABKR7nEDMabWT7pxouy5HYFkIOOkuqz/cGkfAEThxBJx0T7yDvXmOgCOwLAScdJfVH26NI+AInDgCTron3sHePEfAEVgWAk66y+oPt8YRcAROHAEn3RPvYG+eI+AILAsBJ91l9Ydb4wg4AieOgJPuiXewN88RcASWhYCT7rL6w61xBByBE0fASffEO9ib5wg4AstCwEl3Wf3h1jgCjsCJI+Cke+Id7M1zBByBZSHgpLus/nBrHAFH4MQR+D8xdWpVZpYBegAAAABJRU5ErkJggg==;" vertex="1" parent="1">
          <mxGeometry x="-130" y="1271" width="349" height="59" as="geometry" />
        </mxCell>
        <mxCell id="byrFbOCBDsxeEp1RwZBV-29" value="Function" style="whiteSpace=wrap;html=1;aspect=fixed;" vertex="1" parent="1">
          <mxGeometry x="180" y="1510" width="80" height="80" as="geometry" />
        </mxCell>
      </root>
    </mxGraphModel>
  </diagram>
</mxfile>
